# MagicaVoxel @ Ephtracy

# group
o 

# material
mtllib Helium.mtl
usemtl palette

# normals
vn -1 0 0
vn 1 0 0
vn 0 0 1
vn 0 0 -1
vn 0 -1 0
vn 0 1 0

# texcoords
vt 0.888672 0.5
vt 0.896484 0.5
vt 0.958984 0.5
vt 0.974609 0.5
vt 0.990234 0.5
vt 0.994141 0.5

# verts
v -0.4 0.1 0.3
v -0.4 0.1 -0.3
v -0.4 0.2 0.2
v -0.4 0.2 0
v -0.4 0.2 -0.1
v -0.4 0.2 -0.2
v -0.4 0.3 0.2
v -0.4 0.3 0.1
v -0.4 0.3 0
v -0.4 0.3 -0.1
v -0.4 0.4 0.2
v -0.4 0.4 0.1
v -0.4 0.4 0
v -0.4 0.4 -0.1
v -0.4 0.5 0.2
v -0.4 0.5 0
v -0.4 0.5 -0.1
v -0.4 0.5 -0.2
v -0.4 0.6 0.3
v -0.4 0.6 -0.3
v -0.3 0 0.3
v -0.3 0 -0.3
v -0.3 0.1 0.4
v -0.3 0.1 0.3
v -0.3 0.1 -0.3
v -0.3 0.1 -0.4
v -0.3 0.6 0.4
v -0.3 0.6 0.3
v -0.3 0.6 -0.3
v -0.3 0.6 -0.4
v -0.3 0.7 0.3
v -0.3 0.7 -0.3
v -0.2 0.7 0.1
v -0.2 0.7 -0.2
v -0.2 0.8 0.1
v -0.2 0.8 -0.2
v -0.1 0.7 0.3
v -0.1 0.7 0.2
v -0.1 0.8 0.3
v -0.1 0.8 0.2
v 0 0.7 0.3
v 0 0.7 0.2
v 0 0.8 0.3
v 0 0.8 0.2
v 0.1 0.7 0.1
v 0.1 0.7 -0.2
v 0.1 0.8 0.1
v 0.1 0.8 -0.2
v 0.3 0 0.3
v 0.3 0 -0.3
v 0.3 0.1 0.4
v 0.3 0.1 0.3
v 0.3 0.1 -0.3
v 0.3 0.1 -0.4
v 0.3 0.6 0.4
v 0.3 0.6 0.3
v 0.3 0.6 -0.3
v 0.3 0.6 -0.4
v 0.3 0.7 0.3
v 0.3 0.7 -0.3
v 0.4 0.1 0.3
v 0.4 0.1 -0.3
v 0.4 0.2 0.2
v 0.4 0.2 0.1
v 0.4 0.2 0
v 0.4 0.2 -0.2
v 0.4 0.3 0.1
v 0.4 0.3 0
v 0.4 0.3 -0.1
v 0.4 0.3 -0.2
v 0.4 0.4 0.1
v 0.4 0.4 0
v 0.4 0.4 -0.1
v 0.4 0.4 -0.2
v 0.4 0.5 0.2
v 0.4 0.5 0.1
v 0.4 0.5 0
v 0.4 0.5 -0.2
v 0.4 0.6 0.3
v 0.4 0.6 -0.3
v -0.3 0.1 0.4
v -0.3 0.6 0.4
v -0.2 0.1 0.4
v -0.2 0.2 0.4
v 0.2 0.1 0.4
v 0.2 0.2 0.4
v 0.3 0.1 0.4
v 0.3 0.6 0.4
v -0.4 0.1 0.3
v -0.4 0.6 0.3
v -0.3 0 0.3
v -0.3 0.1 0.3
v -0.3 0.6 0.3
v -0.3 0.7 0.3
v -0.2 0.1 0.3
v -0.1 0.7 0.3
v -0.1 0.8 0.3
v 0 0.7 0.3
v 0 0.8 0.3
v 0.2 0.1 0.3
v 0.3 0 0.3
v 0.3 0.1 0.3
v 0.3 0.6 0.3
v 0.3 0.7 0.3
v 0.4 0.1 0.3
v 0.4 0.6 0.3
v -0.2 0.7 0.1
v -0.2 0.8 0.1
v 0.1 0.7 0.1
v 0.1 0.8 0.1
v -0.1 0.7 0.2
v -0.1 0.8 0.2
v 0 0.7 0.2
v 0 0.8 0.2
v -0.2 0.7 -0.2
v -0.2 0.8 -0.2
v 0.1 0.7 -0.2
v 0.1 0.8 -0.2
v -0.4 0.1 -0.3
v -0.4 0.6 -0.3
v -0.3 0 -0.3
v -0.3 0.1 -0.3
v -0.3 0.6 -0.3
v -0.3 0.7 -0.3
v -0.2 0.1 -0.3
v 0.2 0.1 -0.3
v 0.3 0 -0.3
v 0.3 0.1 -0.3
v 0.3 0.6 -0.3
v 0.3 0.7 -0.3
v 0.4 0.1 -0.3
v 0.4 0.6 -0.3
v -0.3 0.1 -0.4
v -0.3 0.6 -0.4
v -0.2 0.1 -0.4
v -0.2 0.2 -0.4
v 0.2 0.1 -0.4
v 0.2 0.2 -0.4
v 0.3 0.1 -0.4
v 0.3 0.6 -0.4
v -0.3 0 0.3
v 0.3 0 0.3
v -0.3 0 -0.3
v 0.3 0 -0.3
v -0.3 0.1 0.4
v -0.2 0.1 0.4
v 0.2 0.1 0.4
v 0.3 0.1 0.4
v -0.4 0.1 0.3
v -0.3 0.1 0.3
v -0.2 0.1 0.3
v 0.2 0.1 0.3
v 0.3 0.1 0.3
v 0.4 0.1 0.3
v -0.4 0.1 -0.3
v -0.3 0.1 -0.3
v -0.2 0.1 -0.3
v 0.2 0.1 -0.3
v 0.3 0.1 -0.3
v 0.4 0.1 -0.3
v -0.3 0.1 -0.4
v -0.2 0.1 -0.4
v 0.2 0.1 -0.4
v 0.3 0.1 -0.4
v -0.3 0.6 0.4
v 0.3 0.6 0.4
v -0.4 0.6 0.3
v -0.3 0.6 0.3
v 0.3 0.6 0.3
v 0.4 0.6 0.3
v -0.4 0.6 -0.3
v -0.3 0.6 -0.3
v 0.3 0.6 -0.3
v 0.4 0.6 -0.3
v -0.3 0.6 -0.4
v 0.3 0.6 -0.4
v -0.3 0.7 0.3
v -0.1 0.7 0.3
v 0 0.7 0.3
v 0.3 0.7 0.3
v -0.1 0.7 0.2
v 0 0.7 0.2
v -0.2 0.7 0.1
v 0.1 0.7 0.1
v -0.2 0.7 -0.2
v 0.1 0.7 -0.2
v -0.3 0.7 -0.3
v 0.3 0.7 -0.3
v -0.1 0.8 0.3
v 0 0.8 0.3
v -0.1 0.8 0.2
v 0 0.8 0.2
v -0.2 0.8 0.1
v 0.1 0.8 0.1
v -0.1 0.8 0
v 0 0.8 0
v -0.1 0.8 -0.1
v 0 0.8 -0.1
v -0.2 0.8 -0.2
v 0.1 0.8 -0.2

# faces
f 3/2/1 2/2/1 1/2/1
f 4/2/1 2/2/1 3/2/1
f 5/2/1 2/2/1 4/2/1
f 6/2/1 2/2/1 5/2/1
f 7/2/1 3/2/1 1/2/1
f 7/3/1 4/3/1 3/3/1
f 8/3/1 4/3/1 7/3/1
f 9/2/1 5/2/1 4/2/1
f 9/3/1 4/3/1 8/3/1
f 10/3/1 6/3/1 5/3/1
f 10/2/1 5/2/1 9/2/1
f 11/2/1 8/2/1 7/2/1
f 11/2/1 7/2/1 1/2/1
f 12/3/1 9/3/1 8/3/1
f 12/2/1 8/2/1 11/2/1
f 12/3/1 10/3/1 9/3/1
f 13/3/1 10/3/1 12/3/1
f 14/3/1 6/3/1 10/3/1
f 14/3/1 10/3/1 13/3/1
f 15/2/1 11/2/1 1/2/1
f 15/3/1 13/3/1 12/3/1
f 15/3/1 12/3/1 11/3/1
f 16/2/1 14/2/1 13/2/1
f 16/3/1 13/3/1 15/3/1
f 17/3/1 6/3/1 14/3/1
f 17/2/1 14/2/1 16/2/1
f 18/2/1 2/2/1 6/2/1
f 18/3/1 6/3/1 17/3/1
f 19/2/1 17/2/1 16/2/1
f 19/2/1 16/2/1 15/2/1
f 19/2/1 18/2/1 17/2/1
f 19/2/1 15/2/1 1/2/1
f 20/2/1 2/2/1 18/2/1
f 20/2/1 18/2/1 19/2/1
f 24/1/1 22/1/1 21/1/1
f 25/1/1 22/1/1 24/1/1
f 27/2/1 24/2/1 23/2/1
f 28/2/1 24/2/1 27/2/1
f 29/2/1 26/2/1 25/2/1
f 30/2/1 26/2/1 29/2/1
f 31/2/1 29/2/1 28/2/1
f 32/2/1 29/2/1 31/2/1
f 35/6/1 34/6/1 33/6/1
f 36/6/1 34/6/1 35/6/1
f 39/4/1 38/4/1 37/4/1
f 40/4/1 38/4/1 39/4/1
f 41/4/2 42/4/2 43/4/2
f 43/4/2 42/4/2 44/4/2
f 45/6/2 46/6/2 47/6/2
f 47/6/2 46/6/2 48/6/2
f 49/1/2 50/1/2 52/1/2
f 52/1/2 50/1/2 53/1/2
f 51/2/2 52/2/2 55/2/2
f 55/2/2 52/2/2 56/2/2
f 53/2/2 54/2/2 57/2/2
f 57/2/2 54/2/2 58/2/2
f 56/2/2 57/2/2 59/2/2
f 59/2/2 57/2/2 60/2/2
f 61/2/2 62/2/2 63/2/2
f 63/2/2 62/2/2 64/2/2
f 64/2/2 62/2/2 65/2/2
f 65/2/2 62/2/2 66/2/2
f 63/3/2 64/3/2 67/3/2
f 64/2/2 65/2/2 67/2/2
f 65/3/2 66/3/2 68/3/2
f 67/2/2 65/2/2 68/2/2
f 68/3/2 66/3/2 69/3/2
f 66/2/2 62/2/2 70/2/2
f 69/3/2 66/3/2 70/3/2
f 68/3/2 69/3/2 71/3/2
f 63/3/2 67/3/2 71/3/2
f 67/3/2 68/3/2 71/3/2
f 71/3/2 69/3/2 72/3/2
f 69/2/2 70/2/2 73/2/2
f 72/3/2 69/3/2 73/3/2
f 70/2/2 62/2/2 74/2/2
f 73/2/2 70/2/2 74/2/2
f 61/2/2 63/2/2 75/2/2
f 63/3/2 71/3/2 75/3/2
f 71/2/2 72/2/2 76/2/2
f 75/3/2 71/3/2 76/3/2
f 72/3/2 73/3/2 77/3/2
f 76/2/2 72/2/2 77/2/2
f 73/3/2 74/3/2 77/3/2
f 74/2/2 62/2/2 78/2/2
f 77/3/2 74/3/2 78/3/2
f 76/2/2 77/2/2 79/2/2
f 75/2/2 76/2/2 79/2/2
f 77/2/2 78/2/2 79/2/2
f 61/2/2 75/2/2 79/2/2
f 78/2/2 62/2/2 80/2/2
f 79/2/2 78/2/2 80/2/2
f 83/2/3 82/2/3 81/2/3
f 84/2/3 82/2/3 83/2/3
f 85/1/3 84/1/3 83/1/3
f 86/2/3 82/2/3 84/2/3
f 86/1/3 84/1/3 85/1/3
f 87/2/3 86/2/3 85/2/3
f 88/2/3 82/2/3 86/2/3
f 88/2/3 86/2/3 87/2/3
f 92/2/3 90/2/3 89/2/3
f 93/2/3 90/2/3 92/2/3
f 95/1/3 92/1/3 91/1/3
f 96/2/3 94/2/3 93/2/3
f 98/2/3 96/2/3 93/2/3
f 98/4/3 97/4/3 96/4/3
f 99/4/3 97/4/3 98/4/3
f 100/1/3 95/1/3 91/1/3
f 101/1/3 100/1/3 91/1/3
f 102/1/3 100/1/3 101/1/3
f 103/2/3 98/2/3 93/2/3
f 104/2/3 98/2/3 103/2/3
f 105/2/3 103/2/3 102/2/3
f 106/2/3 103/2/3 105/2/3
f 109/6/3 108/6/3 107/6/3
f 110/6/3 108/6/3 109/6/3
f 111/4/4 112/4/4 113/4/4
f 113/4/4 112/4/4 114/4/4
f 115/6/4 116/6/4 117/6/4
f 117/6/4 116/6/4 118/6/4
f 119/2/4 120/2/4 122/2/4
f 122/2/4 120/2/4 123/2/4
f 121/1/4 122/1/4 125/1/4
f 121/1/4 125/1/4 126/1/4
f 121/1/4 126/1/4 127/1/4
f 127/1/4 126/1/4 128/1/4
f 123/2/4 124/2/4 129/2/4
f 129/2/4 124/2/4 130/2/4
f 128/2/4 129/2/4 131/2/4
f 131/2/4 129/2/4 132/2/4
f 133/2/4 134/2/4 135/2/4
f 135/2/4 134/2/4 136/2/4
f 135/1/4 136/1/4 137/1/4
f 136/2/4 134/2/4 138/2/4
f 137/1/4 136/1/4 138/1/4
f 137/2/4 138/2/4 139/2/4
f 138/2/4 134/2/4 140/2/4
f 139/2/4 138/2/4 140/2/4
f 143/1/5 142/1/5 141/1/5
f 144/1/5 142/1/5 143/1/5
f 150/2/5 146/2/5 145/2/5
f 151/1/5 147/1/5 146/1/5
f 151/2/5 146/2/5 150/2/5
f 152/2/5 148/2/5 147/2/5
f 152/1/5 147/1/5 151/1/5
f 153/2/5 148/2/5 152/2/5
f 155/2/5 150/2/5 149/2/5
f 156/2/5 150/2/5 155/2/5
f 159/2/5 154/2/5 153/2/5
f 160/2/5 154/2/5 159/2/5
f 161/2/5 157/2/5 156/2/5
f 162/1/5 158/1/5 157/1/5
f 162/2/5 157/2/5 161/2/5
f 163/2/5 159/2/5 158/2/5
f 163/1/5 158/1/5 162/1/5
f 164/2/5 159/2/5 163/2/5
f 165/2/6 166/2/6 168/2/6
f 168/2/6 166/2/6 169/2/6
f 167/2/6 168/2/6 171/2/6
f 171/2/6 168/2/6 172/2/6
f 169/2/6 170/2/6 173/2/6
f 173/2/6 170/2/6 174/2/6
f 172/2/6 173/2/6 175/2/6
f 175/2/6 173/2/6 176/2/6
f 177/2/6 178/2/6 181/2/6
f 179/2/6 180/2/6 182/2/6
f 177/2/6 181/2/6 183/2/6
f 181/2/6 182/2/6 183/2/6
f 182/2/6 180/2/6 184/2/6
f 183/2/6 182/2/6 184/2/6
f 177/2/6 183/2/6 185/2/6
f 184/2/6 180/2/6 186/2/6
f 177/2/6 185/2/6 187/2/6
f 185/2/6 186/2/6 187/2/6
f 186/2/6 180/2/6 188/2/6
f 187/2/6 186/2/6 188/2/6
f 189/4/6 190/4/6 191/4/6
f 191/4/6 190/4/6 192/4/6
f 193/6/6 194/6/6 195/6/6
f 195/6/6 194/6/6 196/6/6
f 193/6/6 195/6/6 197/6/6
f 195/5/6 196/5/6 197/5/6
f 196/6/6 194/6/6 198/6/6
f 197/5/6 196/5/6 198/5/6
f 193/6/6 197/6/6 199/6/6
f 197/6/6 198/6/6 199/6/6
f 198/6/6 194/6/6 200/6/6
f 199/6/6 198/6/6 200/6/6
