# MagicaVoxel @ Ephtracy

# group
o 

# material
mtllib Star.mtl
usemtl palette

# normals
vn -1 0 0
vn 1 0 0
vn 0 0 1
vn 0 0 -1
vn 0 -1 0
vn 0 1 0

# texcoords
vt 0.0683594 0.5
vt 0.185547 0.5

# verts
v -0.2 0.3 0
v -0.2 0.3 -0.1
v -0.2 0.4 0.1
v -0.2 0.4 0
v -0.2 0.4 -0.1
v -0.2 0.5 0.1
v -0.2 0.5 0
v -0.1 0 0.4
v -0.1 0 0.3
v -0.1 0 0.2
v -0.1 0 -0.2
v -0.1 0 -0.3
v -0.1 0 -0.4
v -0.1 0.1 0.4
v -0.1 0.1 0.3
v -0.1 0.1 0.2
v -0.1 0.1 0.1
v -0.1 0.1 -0.1
v -0.1 0.1 -0.2
v -0.1 0.1 -0.3
v -0.1 0.1 -0.4
v -0.1 0.2 0.3
v -0.1 0.2 0.2
v -0.1 0.2 0.1
v -0.1 0.2 -0.1
v -0.1 0.2 -0.2
v -0.1 0.2 -0.3
v -0.1 0.3 0
v -0.1 0.3 -0.1
v -0.1 0.4 0.3
v -0.1 0.4 0.2
v -0.1 0.4 0.1
v -0.1 0.4 0
v -0.1 0.4 -0.1
v -0.1 0.4 -0.2
v -0.1 0.4 -0.3
v -0.1 0.5 0.4
v -0.1 0.5 0.3
v -0.1 0.5 0.2
v -0.1 0.5 0.1
v -0.1 0.5 0
v -0.1 0.5 -0.1
v -0.1 0.5 -0.2
v -0.1 0.5 -0.3
v -0.1 0.5 -0.4
v -0.1 0.6 0.4
v -0.1 0.6 0.3
v -0.1 0.6 0.2
v -0.1 0.6 0
v -0.1 0.6 -0.1
v -0.1 0.6 -0.2
v -0.1 0.6 -0.3
v -0.1 0.6 -0.4
v -0.1 0.7 0.4
v -0.1 0.7 0.3
v -0.1 0.7 0.1
v -0.1 0.7 0
v -0.1 0.7 -0.3
v -0.1 0.7 -0.4
v -0.1 0.8 0.1
v -0.1 0.8 0
v 0 0 0.4
v 0 0 0.3
v 0 0 0.2
v 0 0 -0.2
v 0 0 -0.3
v 0 0 -0.4
v 0 0.1 0.4
v 0 0.1 0.3
v 0 0.1 0.2
v 0 0.1 0.1
v 0 0.1 -0.1
v 0 0.1 -0.2
v 0 0.1 -0.3
v 0 0.1 -0.4
v 0 0.2 0.3
v 0 0.2 0.2
v 0 0.2 0.1
v 0 0.2 -0.1
v 0 0.2 -0.2
v 0 0.2 -0.3
v 0 0.3 0.1
v 0 0.3 -0.1
v 0 0.4 0.3
v 0 0.4 0.2
v 0 0.4 0.1
v 0 0.4 -0.1
v 0 0.4 -0.2
v 0 0.4 -0.3
v 0 0.5 0.4
v 0 0.5 0.3
v 0 0.5 0.2
v 0 0.5 0.1
v 0 0.5 -0.1
v 0 0.5 -0.2
v 0 0.5 -0.3
v 0 0.5 -0.4
v 0 0.6 0.4
v 0 0.6 0.3
v 0 0.6 0.2
v 0 0.6 0
v 0 0.6 -0.1
v 0 0.6 -0.2
v 0 0.6 -0.3
v 0 0.6 -0.4
v 0 0.7 0.4
v 0 0.7 0.3
v 0 0.7 0.1
v 0 0.7 0
v 0 0.7 -0.3
v 0 0.7 -0.4
v 0 0.8 0.1
v 0 0.8 0
v 0.1 0.3 0.1
v 0.1 0.3 -0.1
v 0.1 0.4 0.1
v 0.1 0.4 -0.1
v -0.1 0 0.4
v -0.1 0.1 0.4
v -0.1 0.5 0.4
v -0.1 0.6 0.4
v -0.1 0.7 0.4
v 0 0 0.4
v 0 0.1 0.4
v 0 0.5 0.4
v 0 0.6 0.4
v 0 0.7 0.4
v -0.1 0.1 0.3
v -0.1 0.2 0.3
v -0.1 0.4 0.3
v -0.1 0.5 0.3
v 0 0.1 0.3
v 0 0.2 0.3
v 0 0.4 0.3
v 0 0.5 0.3
v -0.1 0.2 0.2
v -0.1 0.4 0.2
v 0 0.2 0.2
v 0 0.4 0.2
v -0.2 0.4 0.1
v -0.2 0.5 0.1
v -0.1 0.4 0.1
v -0.1 0.5 0.1
v -0.1 0.7 0.1
v -0.1 0.8 0.1
v 0 0.3 0.1
v 0 0.4 0.1
v 0 0.5 0.1
v 0 0.7 0.1
v 0 0.8 0.1
v 0.1 0.3 0.1
v 0.1 0.4 0.1
v -0.2 0.3 0
v -0.2 0.4 0
v -0.1 0.3 0
v -0.1 0.4 0
v -0.1 0.1 -0.1
v -0.1 0.2 -0.1
v 0 0.1 -0.1
v 0 0.2 -0.1
v -0.1 0 -0.2
v -0.1 0.1 -0.2
v -0.1 0.5 -0.2
v -0.1 0.6 -0.2
v 0 0 -0.2
v 0 0.1 -0.2
v 0 0.5 -0.2
v 0 0.6 -0.2
v -0.1 0.6 -0.3
v -0.1 0.7 -0.3
v 0 0.6 -0.3
v 0 0.7 -0.3
v -0.1 0.6 0.3
v -0.1 0.7 0.3
v 0 0.6 0.3
v 0 0.7 0.3
v -0.1 0 0.2
v -0.1 0.1 0.2
v -0.1 0.5 0.2
v -0.1 0.6 0.2
v 0 0 0.2
v 0 0.1 0.2
v 0 0.5 0.2
v 0 0.6 0.2
v -0.1 0.1 0.1
v -0.1 0.2 0.1
v 0 0.1 0.1
v 0 0.2 0.1
v -0.2 0.4 0
v -0.2 0.5 0
v -0.1 0.4 0
v -0.1 0.5 0
v -0.1 0.6 0
v -0.1 0.7 0
v -0.1 0.8 0
v 0 0.6 0
v 0 0.7 0
v 0 0.8 0
v -0.2 0.3 -0.1
v -0.2 0.4 -0.1
v -0.1 0.3 -0.1
v -0.1 0.4 -0.1
v -0.1 0.5 -0.1
v -0.1 0.6 -0.1
v 0 0.3 -0.1
v 0 0.4 -0.1
v 0 0.5 -0.1
v 0 0.6 -0.1
v 0.1 0.3 -0.1
v 0.1 0.4 -0.1
v -0.1 0.2 -0.2
v -0.1 0.4 -0.2
v 0 0.2 -0.2
v 0 0.4 -0.2
v -0.1 0.1 -0.3
v -0.1 0.2 -0.3
v -0.1 0.4 -0.3
v -0.1 0.5 -0.3
v 0 0.1 -0.3
v 0 0.2 -0.3
v 0 0.4 -0.3
v 0 0.5 -0.3
v -0.1 0 -0.4
v -0.1 0.1 -0.4
v -0.1 0.5 -0.4
v -0.1 0.6 -0.4
v -0.1 0.7 -0.4
v 0 0 -0.4
v 0 0.1 -0.4
v 0 0.5 -0.4
v 0 0.6 -0.4
v 0 0.7 -0.4
v -0.1 0 0.4
v 0 0 0.4
v -0.1 0 0.3
v 0 0 0.3
v -0.1 0 0.2
v 0 0 0.2
v -0.1 0 -0.2
v 0 0 -0.2
v -0.1 0 -0.3
v 0 0 -0.3
v -0.1 0 -0.4
v 0 0 -0.4
v -0.1 0.1 0.2
v 0 0.1 0.2
v -0.1 0.1 0.1
v 0 0.1 0.1
v -0.1 0.1 -0.1
v 0 0.1 -0.1
v -0.1 0.1 -0.2
v 0 0.1 -0.2
v -0.1 0.2 0.1
v 0 0.2 0.1
v -0.1 0.2 -0.1
v 0 0.2 -0.1
v 0 0.3 0.1
v 0.1 0.3 0.1
v -0.2 0.3 0
v -0.1 0.3 0
v -0.2 0.3 -0.1
v -0.1 0.3 -0.1
v 0 0.3 -0.1
v 0.1 0.3 -0.1
v -0.1 0.4 0.3
v 0 0.4 0.3
v -0.1 0.4 0.2
v 0 0.4 0.2
v -0.2 0.4 0.1
v -0.1 0.4 0.1
v -0.2 0.4 0
v -0.1 0.4 0
v -0.1 0.4 -0.2
v 0 0.4 -0.2
v -0.1 0.4 -0.3
v 0 0.4 -0.3
v -0.1 0.5 0.4
v 0 0.5 0.4
v -0.1 0.5 0.3
v 0 0.5 0.3
v -0.1 0.5 -0.3
v 0 0.5 -0.3
v -0.1 0.5 -0.4
v 0 0.5 -0.4
v -0.1 0.1 0.4
v 0 0.1 0.4
v -0.1 0.1 0.3
v 0 0.1 0.3
v -0.1 0.1 -0.3
v 0 0.1 -0.3
v -0.1 0.1 -0.4
v 0 0.1 -0.4
v -0.1 0.2 0.3
v 0 0.2 0.3
v -0.1 0.2 0.2
v 0 0.2 0.2
v -0.1 0.2 -0.2
v 0 0.2 -0.2
v -0.1 0.2 -0.3
v 0 0.2 -0.3
v 0 0.4 0.1
v 0.1 0.4 0.1
v -0.2 0.4 0
v -0.1 0.4 0
v -0.2 0.4 -0.1
v -0.1 0.4 -0.1
v 0 0.4 -0.1
v 0.1 0.4 -0.1
v -0.1 0.5 0.2
v 0 0.5 0.2
v -0.2 0.5 0.1
v -0.1 0.5 0.1
v 0 0.5 0.1
v -0.2 0.5 0
v -0.1 0.5 0
v -0.1 0.5 -0.1
v 0 0.5 -0.1
v -0.1 0.5 -0.2
v 0 0.5 -0.2
v -0.1 0.6 0.3
v 0 0.6 0.3
v -0.1 0.6 0.2
v 0 0.6 0.2
v -0.1 0.6 0
v 0 0.6 0
v -0.1 0.6 -0.1
v 0 0.6 -0.1
v -0.1 0.6 -0.2
v 0 0.6 -0.2
v -0.1 0.6 -0.3
v 0 0.6 -0.3
v -0.1 0.7 0.4
v 0 0.7 0.4
v -0.1 0.7 0.3
v 0 0.7 0.3
v -0.1 0.7 -0.3
v 0 0.7 -0.3
v -0.1 0.7 -0.4
v 0 0.7 -0.4
v -0.1 0.8 0.1
v 0 0.8 0.1
v -0.1 0.8 0
v 0 0.8 0

# faces
f 4/1/1 2/1/1 1/1/1
f 5/1/1 2/1/1 4/1/1
f 6/1/1 4/1/1 3/1/1
f 7/1/1 4/1/1 6/1/1
f 14/2/1 9/2/1 8/2/1
f 15/1/1 10/1/1 9/1/1
f 15/2/1 9/2/1 14/2/1
f 16/1/1 10/1/1 15/1/1
f 19/1/1 12/1/1 11/1/1
f 20/2/1 13/2/1 12/2/1
f 20/1/1 12/1/1 19/1/1
f 21/2/1 13/2/1 20/2/1
f 22/1/1 17/1/1 16/1/1
f 22/1/1 16/1/1 15/1/1
f 23/1/1 17/1/1 22/1/1
f 24/1/1 17/1/1 23/1/1
f 25/1/1 19/1/1 18/1/1
f 25/1/1 20/1/1 19/1/1
f 26/1/1 20/1/1 25/1/1
f 27/1/1 20/1/1 26/1/1
f 28/1/1 24/1/1 23/1/1
f 28/1/1 26/1/1 25/1/1
f 28/1/1 25/1/1 24/1/1
f 29/1/1 26/1/1 28/1/1
f 31/1/1 28/1/1 23/1/1
f 32/1/1 28/1/1 31/1/1
f 33/1/1 28/1/1 32/1/1
f 34/1/1 26/1/1 29/1/1
f 35/1/1 26/1/1 34/1/1
f 38/1/1 31/1/1 30/1/1
f 38/1/1 32/1/1 31/1/1
f 39/1/1 32/1/1 38/1/1
f 40/1/1 32/1/1 39/1/1
f 41/1/1 36/1/1 35/1/1
f 41/1/1 35/1/1 34/1/1
f 41/1/1 34/1/1 33/1/1
f 42/1/1 36/1/1 41/1/1
f 43/1/1 36/1/1 42/1/1
f 44/1/1 36/1/1 43/1/1
f 46/1/1 39/1/1 38/1/1
f 46/1/1 38/1/1 37/1/1
f 47/1/1 39/1/1 46/1/1
f 48/1/1 39/1/1 47/1/1
f 49/1/1 42/1/1 41/1/1
f 49/1/1 41/1/1 40/1/1
f 50/1/1 42/1/1 49/1/1
f 51/1/1 44/1/1 43/1/1
f 51/1/1 45/1/1 44/1/1
f 52/1/1 45/1/1 51/1/1
f 53/1/1 45/1/1 52/1/1
f 54/2/1 47/2/1 46/2/1
f 55/2/1 47/2/1 54/2/1
f 56/1/1 49/1/1 40/1/1
f 57/1/1 49/1/1 56/1/1
f 58/2/1 53/2/1 52/2/1
f 59/2/1 53/2/1 58/2/1
f 60/2/1 57/2/1 56/2/1
f 61/2/1 57/2/1 60/2/1
f 62/2/2 63/2/2 68/2/2
f 63/1/2 64/1/2 69/1/2
f 68/2/2 63/2/2 69/2/2
f 69/1/2 64/1/2 70/1/2
f 65/1/2 66/1/2 73/1/2
f 66/2/2 67/2/2 74/2/2
f 73/1/2 66/1/2 74/1/2
f 74/2/2 67/2/2 75/2/2
f 70/1/2 71/1/2 76/1/2
f 69/1/2 70/1/2 76/1/2
f 76/1/2 71/1/2 77/1/2
f 77/1/2 71/1/2 78/1/2
f 72/1/2 73/1/2 79/1/2
f 73/1/2 74/1/2 79/1/2
f 79/1/2 74/1/2 80/1/2
f 80/1/2 74/1/2 81/1/2
f 77/1/2 78/1/2 82/1/2
f 79/1/2 80/1/2 82/1/2
f 78/1/2 79/1/2 82/1/2
f 82/1/2 80/1/2 83/1/2
f 77/1/2 82/1/2 85/1/2
f 85/1/2 82/1/2 86/1/2
f 83/1/2 80/1/2 87/1/2
f 87/1/2 80/1/2 88/1/2
f 85/1/2 86/1/2 91/1/2
f 88/1/2 89/1/2 91/1/2
f 87/1/2 88/1/2 91/1/2
f 86/1/2 87/1/2 91/1/2
f 84/1/2 85/1/2 91/1/2
f 91/1/2 89/1/2 92/1/2
f 92/1/2 89/1/2 93/1/2
f 93/1/2 89/1/2 94/1/2
f 94/1/2 89/1/2 95/1/2
f 95/1/2 89/1/2 96/1/2
f 90/1/2 91/1/2 98/1/2
f 91/1/2 92/1/2 98/1/2
f 98/1/2 92/1/2 99/1/2
f 99/1/2 92/1/2 100/1/2
f 93/1/2 94/1/2 101/1/2
f 101/1/2 94/1/2 102/1/2
f 95/1/2 96/1/2 103/1/2
f 96/1/2 97/1/2 103/1/2
f 103/1/2 97/1/2 104/1/2
f 104/1/2 97/1/2 105/1/2
f 98/2/2 99/2/2 106/2/2
f 106/2/2 99/2/2 107/2/2
f 93/1/2 101/1/2 108/1/2
f 108/1/2 101/1/2 109/1/2
f 104/2/2 105/2/2 110/2/2
f 110/2/2 105/2/2 111/2/2
f 108/2/2 109/2/2 112/2/2
f 112/2/2 109/2/2 113/2/2
f 114/1/2 115/1/2 116/1/2
f 116/1/2 115/1/2 117/1/2
f 123/2/3 119/2/3 118/2/3
f 124/2/3 119/2/3 123/2/3
f 125/1/3 121/1/3 120/1/3
f 126/2/3 122/2/3 121/2/3
f 126/1/3 121/1/3 125/1/3
f 127/2/3 122/2/3 126/2/3
f 132/1/3 129/1/3 128/1/3
f 133/1/3 129/1/3 132/1/3
f 134/1/3 131/1/3 130/1/3
f 135/1/3 131/1/3 134/1/3
f 138/1/3 137/1/3 136/1/3
f 139/1/3 137/1/3 138/1/3
f 142/1/3 141/1/3 140/1/3
f 143/1/3 141/1/3 142/1/3
f 148/1/3 144/1/3 143/1/3
f 149/2/3 145/2/3 144/2/3
f 149/1/3 144/1/3 148/1/3
f 150/2/3 145/2/3 149/2/3
f 151/1/3 147/1/3 146/1/3
f 152/1/3 147/1/3 151/1/3
f 155/1/3 154/1/3 153/1/3
f 156/1/3 154/1/3 155/1/3
f 159/1/3 158/1/3 157/1/3
f 160/1/3 158/1/3 159/1/3
f 165/1/3 162/1/3 161/1/3
f 166/1/3 162/1/3 165/1/3
f 167/1/3 164/1/3 163/1/3
f 168/1/3 164/1/3 167/1/3
f 171/2/3 170/2/3 169/2/3
f 172/2/3 170/2/3 171/2/3
f 173/2/4 174/2/4 175/2/4
f 175/2/4 174/2/4 176/2/4
f 177/1/4 178/1/4 181/1/4
f 181/1/4 178/1/4 182/1/4
f 179/1/4 180/1/4 183/1/4
f 183/1/4 180/1/4 184/1/4
f 185/1/4 186/1/4 187/1/4
f 187/1/4 186/1/4 188/1/4
f 189/1/4 190/1/4 191/1/4
f 191/1/4 190/1/4 192/1/4
f 193/1/4 194/1/4 196/1/4
f 194/2/4 195/2/4 197/2/4
f 196/1/4 194/1/4 197/1/4
f 197/2/4 195/2/4 198/2/4
f 199/1/4 200/1/4 201/1/4
f 201/1/4 200/1/4 202/1/4
f 203/1/4 204/1/4 207/1/4
f 207/1/4 204/1/4 208/1/4
f 205/1/4 206/1/4 209/1/4
f 209/1/4 206/1/4 210/1/4
f 211/1/4 212/1/4 213/1/4
f 213/1/4 212/1/4 214/1/4
f 215/1/4 216/1/4 219/1/4
f 219/1/4 216/1/4 220/1/4
f 217/1/4 218/1/4 221/1/4
f 221/1/4 218/1/4 222/1/4
f 223/2/4 224/2/4 228/2/4
f 228/2/4 224/2/4 229/2/4
f 225/1/4 226/1/4 230/1/4
f 226/2/4 227/2/4 231/2/4
f 230/1/4 226/1/4 231/1/4
f 231/2/4 227/2/4 232/2/4
f 235/2/5 234/2/5 233/2/5
f 236/2/5 234/2/5 235/2/5
f 237/1/5 236/1/5 235/1/5
f 238/1/5 236/1/5 237/1/5
f 241/1/5 240/1/5 239/1/5
f 242/1/5 240/1/5 241/1/5
f 243/2/5 242/2/5 241/2/5
f 244/2/5 242/2/5 243/2/5
f 247/1/5 246/1/5 245/1/5
f 248/1/5 246/1/5 247/1/5
f 251/1/5 250/1/5 249/1/5
f 252/1/5 250/1/5 251/1/5
f 255/1/5 254/1/5 253/1/5
f 256/1/5 254/1/5 255/1/5
f 261/1/5 260/1/5 259/1/5
f 262/1/5 260/1/5 261/1/5
f 263/1/5 258/1/5 257/1/5
f 264/1/5 258/1/5 263/1/5
f 267/1/5 266/1/5 265/1/5
f 268/1/5 266/1/5 267/1/5
f 271/1/5 270/1/5 269/1/5
f 272/1/5 270/1/5 271/1/5
f 275/1/5 274/1/5 273/1/5
f 276/1/5 274/1/5 275/1/5
f 279/1/5 278/1/5 277/1/5
f 280/1/5 278/1/5 279/1/5
f 283/1/5 282/1/5 281/1/5
f 284/1/5 282/1/5 283/1/5
f 285/2/6 286/2/6 287/2/6
f 287/2/6 286/2/6 288/2/6
f 289/2/6 290/2/6 291/2/6
f 291/2/6 290/2/6 292/2/6
f 293/1/6 294/1/6 295/1/6
f 295/1/6 294/1/6 296/1/6
f 297/1/6 298/1/6 299/1/6
f 299/1/6 298/1/6 300/1/6
f 303/1/6 304/1/6 305/1/6
f 305/1/6 304/1/6 306/1/6
f 301/1/6 302/1/6 307/1/6
f 307/1/6 302/1/6 308/1/6
f 309/1/6 310/1/6 312/1/6
f 312/1/6 310/1/6 313/1/6
f 311/1/6 312/1/6 314/1/6
f 314/1/6 312/1/6 315/1/6
f 316/1/6 317/1/6 318/1/6
f 318/1/6 317/1/6 319/1/6
f 320/1/6 321/1/6 322/1/6
f 322/1/6 321/1/6 323/1/6
f 324/1/6 325/1/6 326/1/6
f 326/1/6 325/1/6 327/1/6
f 328/1/6 329/1/6 330/1/6
f 330/1/6 329/1/6 331/1/6
f 332/2/6 333/2/6 334/2/6
f 334/2/6 333/2/6 335/2/6
f 336/2/6 337/2/6 338/2/6
f 338/2/6 337/2/6 339/2/6
f 340/2/6 341/2/6 342/2/6
f 342/2/6 341/2/6 343/2/6
