# MagicaVoxel @ Ephtracy

# group
o 

# material
mtllib arrow.mtl
usemtl palette

# normals
vn -1 0 0
vn 1 0 0
vn 0 0 1
vn 0 0 -1
vn 0 -1 0
vn 0 1 0

# texcoords
vt 0.0917969 0.5
vt 0.841797 0.5
vt 0.876953 0.5

# verts
v 0.5 2.8 -0.9
v 0.5 2.8 -1
v 0.5 3.2 -0.9
v 0.5 3.2 -1
v 0.6 2.7 -0.9
v 0.6 2.7 -1
v 0.6 2.8 -0.8
v 0.6 2.8 -0.9
v 0.6 2.8 -1
v 0.6 2.8 -1.1
v 0.6 3.1 -0.8
v 0.6 3.1 -0.9
v 0.6 3.1 -1
v 0.6 3.1 -1.1
v 0.6 3.2 -0.8
v 0.6 3.2 -0.9
v 0.6 3.2 -1
v 0.6 3.2 -1.1
v 0.7 2.6 -0.9
v 0.7 2.6 -1
v 0.7 2.7 -0.8
v 0.7 2.7 -0.9
v 0.7 2.7 -1
v 0.7 2.7 -1.1
v 0.7 2.8 -0.7
v 0.7 2.8 -0.8
v 0.7 2.8 -0.9
v 0.7 2.8 -1
v 0.7 2.8 -1.1
v 0.7 2.8 -1.2
v 0.7 3.1 -0.7
v 0.7 3.1 -0.8
v 0.7 3.1 -1.1
v 0.7 3.1 -1.2
v 0.7 3.2 -0.7
v 0.7 3.2 -0.8
v 0.7 3.2 -1.1
v 0.7 3.2 -1.2
v 0.8 2.5 -0.9
v 0.8 2.5 -1
v 0.8 2.6 -0.8
v 0.8 2.6 -0.9
v 0.8 2.6 -1
v 0.8 2.6 -1.1
v 0.8 2.7 -0.7
v 0.8 2.7 -0.8
v 0.8 2.7 -0.9
v 0.8 2.7 -1
v 0.8 2.7 -1.1
v 0.8 2.7 -1.2
v 0.8 2.8 -0.7
v 0.8 2.8 -0.8
v 0.8 2.8 -1.1
v 0.8 2.8 -1.2
v 0.9 2.4 -0.8
v 0.9 2.4 -1.1
v 0.9 2.5 -0.7
v 0.9 2.5 -0.8
v 0.9 2.5 -0.9
v 0.9 2.5 -1
v 0.9 2.5 -1.1
v 0.9 2.5 -1.2
v 0.9 2.6 -0.8
v 0.9 2.6 -0.9
v 0.9 2.6 -1
v 0.9 2.6 -1.1
v 0.9 2.7 -0.7
v 0.9 2.7 -0.8
v 0.9 2.7 -1.1
v 0.9 2.7 -1.2
v 1 2.4 -0.8
v 1 2.4 -1.1
v 1 2.5 -0.7
v 1 2.5 -0.8
v 1 2.5 -0.9
v 1 2.5 -1
v 1 2.5 -1.1
v 1 2.5 -1.2
v 1 2.6 -0.8
v 1 2.6 -0.9
v 1 2.6 -1
v 1 2.6 -1.1
v 1 2.7 -0.7
v 1 2.7 -0.8
v 1 2.7 -1.1
v 1 2.7 -1.2
v 1.1 2.5 -0.9
v 1.1 2.5 -1
v 1.1 2.6 -0.8
v 1.1 2.6 -0.9
v 1.1 2.6 -1
v 1.1 2.6 -1.1
v 1.1 2.7 -0.7
v 1.1 2.7 -0.8
v 1.1 2.7 -0.9
v 1.1 2.7 -1
v 1.1 2.7 -1.1
v 1.1 2.7 -1.2
v 1.1 2.8 -0.7
v 1.1 2.8 -0.8
v 1.1 2.8 -1.1
v 1.1 2.8 -1.2
v 1.2 2.6 -0.9
v 1.2 2.6 -1
v 1.2 2.7 -0.8
v 1.2 2.7 -0.9
v 1.2 2.7 -1
v 1.2 2.7 -1.1
v 1.2 2.8 -0.7
v 1.2 2.8 -0.8
v 1.2 2.8 -0.9
v 1.2 2.8 -1
v 1.2 2.8 -1.1
v 1.2 2.8 -1.2
v 1.2 3.1 -0.7
v 1.2 3.1 -0.8
v 1.2 3.1 -1.1
v 1.2 3.1 -1.2
v 1.2 3.2 -0.7
v 1.2 3.2 -0.8
v 1.2 3.2 -1.1
v 1.2 3.2 -1.2
v 1.3 2.7 -0.9
v 1.3 2.7 -1
v 1.3 2.8 -0.8
v 1.3 2.8 -0.9
v 1.3 2.8 -1
v 1.3 2.8 -1.1
v 1.3 3.1 -0.8
v 1.3 3.1 -0.9
v 1.3 3.1 -1
v 1.3 3.1 -1.1
v 1.3 3.2 -0.8
v 1.3 3.2 -0.9
v 1.3 3.2 -1
v 1.3 3.2 -1.1
v 1.4 2.8 -0.9
v 1.4 2.8 -1
v 1.4 3.2 -0.9
v 1.4 3.2 -1
v 0.7 2.8 -0.7
v 0.7 3.1 -0.7
v 0.7 3.2 -0.7
v 0.8 2.7 -0.7
v 0.8 2.8 -0.7
v 0.9 2.5 -0.7
v 0.9 2.7 -0.7
v 1 2.5 -0.7
v 1 2.7 -0.7
v 1.1 2.7 -0.7
v 1.1 2.8 -0.7
v 1.2 2.8 -0.7
v 1.2 3.1 -0.7
v 1.2 3.2 -0.7
v 0.6 2.8 -0.8
v 0.6 3.1 -0.8
v 0.6 3.2 -0.8
v 0.7 2.7 -0.8
v 0.7 2.8 -0.8
v 0.7 3.1 -0.8
v 0.7 3.2 -0.8
v 0.8 2.6 -0.8
v 0.8 2.7 -0.8
v 0.8 2.8 -0.8
v 0.9 2.4 -0.8
v 0.9 2.5 -0.8
v 0.9 2.6 -0.8
v 0.9 2.7 -0.8
v 1 2.4 -0.8
v 1 2.5 -0.8
v 1 2.6 -0.8
v 1 2.7 -0.8
v 1.1 2.6 -0.8
v 1.1 2.7 -0.8
v 1.1 2.8 -0.8
v 1.2 2.7 -0.8
v 1.2 2.8 -0.8
v 1.2 3.1 -0.8
v 1.2 3.2 -0.8
v 1.3 2.8 -0.8
v 1.3 3.1 -0.8
v 1.3 3.2 -0.8
v 0.5 2.8 -0.9
v 0.5 3.2 -0.9
v 0.6 2.7 -0.9
v 0.6 2.8 -0.9
v 0.6 3.1 -0.9
v 0.6 3.2 -0.9
v 0.7 2.6 -0.9
v 0.7 2.7 -0.9
v 0.7 2.8 -0.9
v 0.8 2.5 -0.9
v 0.8 2.6 -0.9
v 0.8 2.7 -0.9
v 0.9 2.5 -0.9
v 0.9 2.6 -0.9
v 1 2.5 -0.9
v 1 2.6 -0.9
v 1.1 2.5 -0.9
v 1.1 2.6 -0.9
v 1.1 2.7 -0.9
v 1.2 2.6 -0.9
v 1.2 2.7 -0.9
v 1.2 2.8 -0.9
v 1.3 2.7 -0.9
v 1.3 2.8 -0.9
v 1.3 3.1 -0.9
v 1.3 3.2 -0.9
v 1.4 2.8 -0.9
v 1.4 3.2 -0.9
v 0.5 2.8 -1
v 0.5 3.2 -1
v 0.6 2.7 -1
v 0.6 2.8 -1
v 0.6 3.1 -1
v 0.6 3.2 -1
v 0.7 2.6 -1
v 0.7 2.7 -1
v 0.7 2.8 -1
v 0.8 2.5 -1
v 0.8 2.6 -1
v 0.8 2.7 -1
v 0.9 2.5 -1
v 0.9 2.6 -1
v 1 2.5 -1
v 1 2.6 -1
v 1.1 2.5 -1
v 1.1 2.6 -1
v 1.1 2.7 -1
v 1.2 2.6 -1
v 1.2 2.7 -1
v 1.2 2.8 -1
v 1.3 2.7 -1
v 1.3 2.8 -1
v 1.3 3.1 -1
v 1.3 3.2 -1
v 1.4 2.8 -1
v 1.4 3.2 -1
v 0.6 2.8 -1.1
v 0.6 3.1 -1.1
v 0.6 3.2 -1.1
v 0.7 2.7 -1.1
v 0.7 2.8 -1.1
v 0.7 3.1 -1.1
v 0.7 3.2 -1.1
v 0.8 2.6 -1.1
v 0.8 2.7 -1.1
v 0.8 2.8 -1.1
v 0.9 2.4 -1.1
v 0.9 2.5 -1.1
v 0.9 2.6 -1.1
v 0.9 2.7 -1.1
v 1 2.4 -1.1
v 1 2.5 -1.1
v 1 2.6 -1.1
v 1 2.7 -1.1
v 1.1 2.6 -1.1
v 1.1 2.7 -1.1
v 1.1 2.8 -1.1
v 1.2 2.7 -1.1
v 1.2 2.8 -1.1
v 1.2 3.1 -1.1
v 1.2 3.2 -1.1
v 1.3 2.8 -1.1
v 1.3 3.1 -1.1
v 1.3 3.2 -1.1
v 0.7 2.8 -1.2
v 0.7 3.1 -1.2
v 0.7 3.2 -1.2
v 0.8 2.7 -1.2
v 0.8 2.8 -1.2
v 0.9 2.5 -1.2
v 0.9 2.7 -1.2
v 1 2.5 -1.2
v 1 2.7 -1.2
v 1.1 2.7 -1.2
v 1.1 2.8 -1.2
v 1.2 2.8 -1.2
v 1.2 3.1 -1.2
v 1.2 3.2 -1.2
v 0.9 2.4 -0.8
v 1 2.4 -0.8
v 0.9 2.4 -1.1
v 1 2.4 -1.1
v 0.9 2.5 -0.7
v 1 2.5 -0.7
v 0.9 2.5 -0.8
v 1 2.5 -0.8
v 0.8 2.5 -0.9
v 0.9 2.5 -0.9
v 1 2.5 -0.9
v 1.1 2.5 -0.9
v 0.8 2.5 -1
v 0.9 2.5 -1
v 1 2.5 -1
v 1.1 2.5 -1
v 0.9 2.5 -1.1
v 1 2.5 -1.1
v 0.9 2.5 -1.2
v 1 2.5 -1.2
v 0.8 2.6 -0.8
v 0.9 2.6 -0.8
v 1 2.6 -0.8
v 1.1 2.6 -0.8
v 0.7 2.6 -0.9
v 0.8 2.6 -0.9
v 0.9 2.6 -0.9
v 1 2.6 -0.9
v 1.1 2.6 -0.9
v 1.2 2.6 -0.9
v 0.7 2.6 -1
v 0.8 2.6 -1
v 0.9 2.6 -1
v 1 2.6 -1
v 1.1 2.6 -1
v 1.2 2.6 -1
v 0.8 2.6 -1.1
v 0.9 2.6 -1.1
v 1 2.6 -1.1
v 1.1 2.6 -1.1
v 0.8 2.7 -0.7
v 0.9 2.7 -0.7
v 1 2.7 -0.7
v 1.1 2.7 -0.7
v 0.7 2.7 -0.8
v 0.8 2.7 -0.8
v 0.9 2.7 -0.8
v 1 2.7 -0.8
v 1.1 2.7 -0.8
v 1.2 2.7 -0.8
v 0.6 2.7 -0.9
v 0.7 2.7 -0.9
v 0.8 2.7 -0.9
v 1.1 2.7 -0.9
v 1.2 2.7 -0.9
v 1.3 2.7 -0.9
v 0.6 2.7 -1
v 0.7 2.7 -1
v 0.8 2.7 -1
v 1.1 2.7 -1
v 1.2 2.7 -1
v 1.3 2.7 -1
v 0.7 2.7 -1.1
v 0.8 2.7 -1.1
v 0.9 2.7 -1.1
v 1 2.7 -1.1
v 1.1 2.7 -1.1
v 1.2 2.7 -1.1
v 0.8 2.7 -1.2
v 0.9 2.7 -1.2
v 1 2.7 -1.2
v 1.1 2.7 -1.2
v 0.7 2.8 -0.7
v 0.8 2.8 -0.7
v 1.1 2.8 -0.7
v 1.2 2.8 -0.7
v 0.6 2.8 -0.8
v 0.7 2.8 -0.8
v 0.8 2.8 -0.8
v 1.1 2.8 -0.8
v 1.2 2.8 -0.8
v 1.3 2.8 -0.8
v 0.5 2.8 -0.9
v 0.6 2.8 -0.9
v 0.7 2.8 -0.9
v 1.2 2.8 -0.9
v 1.3 2.8 -0.9
v 1.4 2.8 -0.9
v 0.5 2.8 -1
v 0.6 2.8 -1
v 0.7 2.8 -1
v 1.2 2.8 -1
v 1.3 2.8 -1
v 1.4 2.8 -1
v 0.6 2.8 -1.1
v 0.7 2.8 -1.1
v 0.8 2.8 -1.1
v 1.1 2.8 -1.1
v 1.2 2.8 -1.1
v 1.3 2.8 -1.1
v 0.7 2.8 -1.2
v 0.8 2.8 -1.2
v 1.1 2.8 -1.2
v 1.2 2.8 -1.2
v 0.7 3.2 -0.7
v 1.2 3.2 -0.7
v 0.6 3.2 -0.8
v 0.7 3.2 -0.8
v 1.2 3.2 -0.8
v 1.3 3.2 -0.8
v 0.5 3.2 -0.9
v 0.6 3.2 -0.9
v 1.3 3.2 -0.9
v 1.4 3.2 -0.9
v 0.5 3.2 -1
v 0.6 3.2 -1
v 1.3 3.2 -1
v 1.4 3.2 -1
v 0.6 3.2 -1.1
v 0.7 3.2 -1.1
v 1.2 3.2 -1.1
v 1.3 3.2 -1.1
v 0.7 3.2 -1.2
v 1.2 3.2 -1.2

# faces
f 3/3/1 2/3/1 1/3/1
f 4/3/1 2/3/1 3/3/1
f 8/3/1 6/3/1 5/3/1
f 9/3/1 6/3/1 8/3/1
f 11/1/1 8/1/1 7/1/1
f 12/1/1 8/1/1 11/1/1
f 13/1/1 10/1/1 9/1/1
f 14/1/1 10/1/1 13/1/1
f 15/3/1 12/3/1 11/3/1
f 16/3/1 12/3/1 15/3/1
f 17/3/1 14/3/1 13/3/1
f 18/3/1 14/3/1 17/3/1
f 22/3/1 20/3/1 19/3/1
f 23/3/1 20/3/1 22/3/1
f 26/1/1 22/1/1 21/1/1
f 27/1/1 22/1/1 26/1/1
f 28/1/1 24/1/1 23/1/1
f 29/1/1 24/1/1 28/1/1
f 31/1/1 26/1/1 25/1/1
f 32/1/1 26/1/1 31/1/1
f 33/1/1 30/1/1 29/1/1
f 34/1/1 30/1/1 33/1/1
f 35/3/1 32/3/1 31/3/1
f 36/3/1 32/3/1 35/3/1
f 37/3/1 34/3/1 33/3/1
f 38/3/1 34/3/1 37/3/1
f 42/3/1 40/3/1 39/3/1
f 43/3/1 40/3/1 42/3/1
f 46/1/1 42/1/1 41/1/1
f 47/1/1 42/1/1 46/1/1
f 48/1/1 44/1/1 43/1/1
f 49/1/1 44/1/1 48/1/1
f 51/1/1 46/1/1 45/1/1
f 52/1/1 46/1/1 51/1/1
f 53/1/1 50/1/1 49/1/1
f 54/1/1 50/1/1 53/1/1
f 58/3/1 56/3/1 55/3/1
f 59/3/1 56/3/1 58/3/1
f 60/3/1 56/3/1 59/3/1
f 61/3/1 56/3/1 60/3/1
f 63/1/1 58/1/1 57/1/1
f 63/1/1 59/1/1 58/1/1
f 64/1/1 59/1/1 63/1/1
f 65/1/1 62/1/1 61/1/1
f 65/1/1 61/1/1 60/1/1
f 66/1/1 62/1/1 65/1/1
f 67/1/1 63/1/1 57/1/1
f 68/1/1 63/1/1 67/1/1
f 69/1/1 62/1/1 66/1/1
f 70/1/1 62/1/1 69/1/1
f 71/3/2 72/3/2 74/3/2
f 74/3/2 72/3/2 75/3/2
f 75/3/2 72/3/2 76/3/2
f 76/3/2 72/3/2 77/3/2
f 73/1/2 74/1/2 79/1/2
f 74/1/2 75/1/2 79/1/2
f 79/1/2 75/1/2 80/1/2
f 77/1/2 78/1/2 81/1/2
f 76/1/2 77/1/2 81/1/2
f 81/1/2 78/1/2 82/1/2
f 73/1/2 79/1/2 83/1/2
f 83/1/2 79/1/2 84/1/2
f 82/1/2 78/1/2 85/1/2
f 85/1/2 78/1/2 86/1/2
f 87/3/2 88/3/2 90/3/2
f 90/3/2 88/3/2 91/3/2
f 89/1/2 90/1/2 94/1/2
f 94/1/2 90/1/2 95/1/2
f 91/1/2 92/1/2 96/1/2
f 96/1/2 92/1/2 97/1/2
f 93/1/2 94/1/2 99/1/2
f 99/1/2 94/1/2 100/1/2
f 97/1/2 98/1/2 101/1/2
f 101/1/2 98/1/2 102/1/2
f 103/3/2 104/3/2 106/3/2
f 106/3/2 104/3/2 107/3/2
f 105/1/2 106/1/2 110/1/2
f 110/1/2 106/1/2 111/1/2
f 107/1/2 108/1/2 112/1/2
f 112/1/2 108/1/2 113/1/2
f 109/1/2 110/1/2 115/1/2
f 115/1/2 110/1/2 116/1/2
f 113/1/2 114/1/2 117/1/2
f 117/1/2 114/1/2 118/1/2
f 115/3/2 116/3/2 119/3/2
f 119/3/2 116/3/2 120/3/2
f 117/3/2 118/3/2 121/3/2
f 121/3/2 118/3/2 122/3/2
f 123/3/2 124/3/2 126/3/2
f 126/3/2 124/3/2 127/3/2
f 125/1/2 126/1/2 129/1/2
f 129/1/2 126/1/2 130/1/2
f 127/1/2 128/1/2 131/1/2
f 131/1/2 128/1/2 132/1/2
f 129/3/2 130/3/2 133/3/2
f 133/3/2 130/3/2 134/3/2
f 131/3/2 132/3/2 135/3/2
f 135/3/2 132/3/2 136/3/2
f 137/3/2 138/3/2 139/3/2
f 139/3/2 138/3/2 140/3/2
f 145/1/3 142/1/3 141/1/3
f 147/1/3 145/1/3 144/1/3
f 148/1/3 147/1/3 146/1/3
f 149/1/3 145/1/3 147/1/3
f 149/1/3 147/1/3 148/1/3
f 150/1/3 145/1/3 149/1/3
f 151/1/3 142/1/3 145/1/3
f 151/1/3 145/1/3 150/1/3
f 152/1/3 142/1/3 151/1/3
f 153/3/3 143/3/3 142/3/3
f 153/1/3 142/1/3 152/1/3
f 154/3/3 143/3/3 153/3/3
f 159/1/3 156/1/3 155/1/3
f 160/3/3 157/3/3 156/3/3
f 160/1/3 156/1/3 159/1/3
f 161/3/3 157/3/3 160/3/3
f 163/1/3 159/1/3 158/1/3
f 164/1/3 159/1/3 163/1/3
f 167/1/3 163/1/3 162/1/3
f 168/1/3 163/1/3 167/1/3
f 169/3/3 166/3/3 165/3/3
f 170/3/3 166/3/3 169/3/3
f 173/1/3 172/1/3 171/1/3
f 174/1/3 172/1/3 173/1/3
f 176/1/3 175/1/3 174/1/3
f 177/1/3 175/1/3 176/1/3
f 180/1/3 178/1/3 177/1/3
f 181/3/3 179/3/3 178/3/3
f 181/1/3 178/1/3 180/1/3
f 182/3/3 179/3/3 181/3/3
f 186/3/3 184/3/3 183/3/3
f 187/3/3 184/3/3 186/3/3
f 188/3/3 184/3/3 187/3/3
f 190/3/3 186/3/3 185/3/3
f 191/3/3 186/3/3 190/3/3
f 193/3/3 190/3/3 189/3/3
f 194/3/3 190/3/3 193/3/3
f 195/3/3 193/3/3 192/3/3
f 196/3/3 193/3/3 195/3/3
f 199/3/3 198/3/3 197/3/3
f 200/3/3 198/3/3 199/3/3
f 202/3/3 201/3/3 200/3/3
f 203/3/3 201/3/3 202/3/3
f 205/3/3 204/3/3 203/3/3
f 206/3/3 204/3/3 205/3/3
f 209/3/3 208/3/3 207/3/3
f 209/3/3 207/3/3 206/3/3
f 210/3/3 208/3/3 209/3/3
f 211/3/4 212/3/4 214/3/4
f 214/3/4 212/3/4 215/3/4
f 215/3/4 212/3/4 216/3/4
f 213/3/4 214/3/4 218/3/4
f 218/3/4 214/3/4 219/3/4
f 217/3/4 218/3/4 221/3/4
f 221/3/4 218/3/4 222/3/4
f 220/3/4 221/3/4 223/3/4
f 223/3/4 221/3/4 224/3/4
f 225/3/4 226/3/4 227/3/4
f 227/3/4 226/3/4 228/3/4
f 228/3/4 229/3/4 230/3/4
f 230/3/4 229/3/4 231/3/4
f 231/3/4 232/3/4 233/3/4
f 233/3/4 232/3/4 234/3/4
f 235/3/4 236/3/4 237/3/4
f 234/3/4 235/3/4 237/3/4
f 237/3/4 236/3/4 238/3/4
f 239/1/4 240/1/4 243/1/4
f 240/3/4 241/3/4 244/3/4
f 243/1/4 240/1/4 244/1/4
f 244/3/4 241/3/4 245/3/4
f 242/1/4 243/1/4 247/1/4
f 247/1/4 243/1/4 248/1/4
f 246/1/4 247/1/4 251/1/4
f 251/1/4 247/1/4 252/1/4
f 249/3/4 250/3/4 253/3/4
f 253/3/4 250/3/4 254/3/4
f 255/1/4 256/1/4 257/1/4
f 257/1/4 256/1/4 258/1/4
f 258/1/4 259/1/4 260/1/4
f 260/1/4 259/1/4 261/1/4
f 261/1/4 262/1/4 264/1/4
f 262/3/4 263/3/4 265/3/4
f 264/1/4 262/1/4 265/1/4
f 265/3/4 263/3/4 266/3/4
f 267/1/4 268/1/4 271/1/4
f 270/1/4 271/1/4 273/1/4
f 272/1/4 273/1/4 274/1/4
f 273/1/4 271/1/4 275/1/4
f 274/1/4 273/1/4 275/1/4
f 275/1/4 271/1/4 276/1/4
f 271/1/4 268/1/4 277/1/4
f 276/1/4 271/1/4 277/1/4
f 277/1/4 268/1/4 278/1/4
f 268/3/4 269/3/4 279/3/4
f 278/1/4 268/1/4 279/1/4
f 279/3/4 269/3/4 280/3/4
f 283/3/5 282/3/5 281/3/5
f 284/3/5 282/3/5 283/3/5
f 287/1/5 286/1/5 285/1/5
f 288/1/5 286/1/5 287/1/5
f 293/3/5 290/3/5 289/3/5
f 294/3/5 290/3/5 293/3/5
f 295/3/5 292/3/5 291/3/5
f 296/3/5 292/3/5 295/3/5
f 299/1/5 298/1/5 297/1/5
f 300/1/5 298/1/5 299/1/5
f 306/1/5 302/1/5 301/1/5
f 307/1/5 302/1/5 306/1/5
f 308/1/5 304/1/5 303/1/5
f 309/1/5 304/1/5 308/1/5
f 311/3/5 306/3/5 305/3/5
f 312/3/5 306/3/5 311/3/5
f 315/3/5 310/3/5 309/3/5
f 316/3/5 310/3/5 315/3/5
f 317/1/5 313/1/5 312/1/5
f 318/1/5 313/1/5 317/1/5
f 319/1/5 315/1/5 314/1/5
f 320/1/5 315/1/5 319/1/5
f 326/1/5 322/1/5 321/1/5
f 327/1/5 322/1/5 326/1/5
f 328/1/5 324/1/5 323/1/5
f 329/1/5 324/1/5 328/1/5
f 332/1/5 326/1/5 325/1/5
f 333/1/5 326/1/5 332/1/5
f 334/1/5 330/1/5 329/1/5
f 335/1/5 330/1/5 334/1/5
f 337/3/5 332/3/5 331/3/5
f 338/3/5 332/3/5 337/3/5
f 341/3/5 336/3/5 335/3/5
f 342/3/5 336/3/5 341/3/5
f 343/1/5 339/1/5 338/1/5
f 344/1/5 339/1/5 343/1/5
f 347/1/5 341/1/5 340/1/5
f 348/1/5 341/1/5 347/1/5
f 349/1/5 345/1/5 344/1/5
f 350/1/5 345/1/5 349/1/5
f 351/1/5 347/1/5 346/1/5
f 352/1/5 347/1/5 351/1/5
f 358/1/5 354/1/5 353/1/5
f 359/1/5 354/1/5 358/1/5
f 360/1/5 356/1/5 355/1/5
f 361/1/5 356/1/5 360/1/5
f 364/1/5 358/1/5 357/1/5
f 365/1/5 358/1/5 364/1/5
f 366/1/5 362/1/5 361/1/5
f 367/1/5 362/1/5 366/1/5
f 369/3/5 364/3/5 363/3/5
f 370/3/5 364/3/5 369/3/5
f 373/3/5 368/3/5 367/3/5
f 374/3/5 368/3/5 373/3/5
f 375/1/5 371/1/5 370/1/5
f 376/1/5 371/1/5 375/1/5
f 379/1/5 373/1/5 372/1/5
f 380/1/5 373/1/5 379/1/5
f 381/1/5 377/1/5 376/1/5
f 382/1/5 377/1/5 381/1/5
f 383/1/5 379/1/5 378/1/5
f 384/1/5 379/1/5 383/1/5
f 385/3/6 386/3/6 388/3/6
f 388/3/6 386/3/6 389/3/6
f 387/3/6 388/3/6 392/3/6
f 389/3/6 390/3/6 392/3/6
f 388/3/6 389/3/6 392/3/6
f 392/3/6 390/3/6 393/3/6
f 391/3/6 392/3/6 395/3/6
f 393/3/6 394/3/6 395/3/6
f 392/3/6 393/3/6 395/3/6
f 395/3/6 394/3/6 396/3/6
f 396/3/6 394/3/6 397/3/6
f 397/3/6 394/3/6 398/3/6
f 396/3/6 397/3/6 399/3/6
f 399/3/6 397/3/6 400/3/6
f 400/3/6 397/3/6 401/3/6
f 401/3/6 397/3/6 402/3/6
f 400/3/6 401/3/6 403/3/6
f 403/3/6 401/3/6 404/3/6
