# MagicaVoxel @ Ephtracy

# group
o 

# material
mtllib beginningbubble.mtl
usemtl palette

# normals
vn -1 0 0
vn 1 0 0
vn 0 0 1
vn 0 0 -1
vn 0 -1 0
vn 0 1 0

# texcoords
vt 0.0917969 0.5
vt 0.849609 0.5
vt 0.853516 0.5

# verts
v 0.1 2 -0.2
v 0.1 2 -0.3
v 0.1 2 -0.4
v 0.1 2.1 -0.2
v 0.1 2.1 -0.3
v 0.1 2.1 -0.4
v 0.2 2 -0.1
v 0.2 2 -0.2
v 0.2 2 -0.4
v 0.2 2 -0.5
v 0.2 2.1 -0.1
v 0.2 2.1 -0.2
v 0.2 2.1 -0.4
v 0.2 2.1 -0.5
v 0.4 2 -0.2
v 0.4 2 -0.4
v 0.4 2.1 -0.2
v 0.4 2.1 -0.4
v 0.2 2 -0.2
v 0.2 2 -0.3
v 0.2 2 -0.4
v 0.2 2.1 -0.2
v 0.2 2.1 -0.3
v 0.2 2.1 -0.4
v 0.4 2 -0.1
v 0.4 2 -0.2
v 0.4 2 -0.4
v 0.4 2 -0.5
v 0.4 2.1 -0.1
v 0.4 2.1 -0.2
v 0.4 2.1 -0.4
v 0.4 2.1 -0.5
v 0.5 2 -0.2
v 0.5 2 -0.4
v 0.5 2.1 -0.2
v 0.5 2.1 -0.4
v 0.2 2 -0.1
v 0.2 2.1 -0.1
v 0.3 2 -0.1
v 0.3 2.1 -0.1
v 0.4 2 -0.1
v 0.4 2.1 -0.1
v 0.1 2 -0.2
v 0.1 2.1 -0.2
v 0.2 2 -0.2
v 0.2 2.1 -0.2
v 0.4 2 -0.2
v 0.4 2.1 -0.2
v 0.5 2 -0.2
v 0.5 2.1 -0.2
v 0.2 2 -0.4
v 0.2 2.1 -0.4
v 0.4 2 -0.4
v 0.4 2.1 -0.4
v 0.2 2 -0.2
v 0.2 2.1 -0.2
v 0.3 2 -0.2
v 0.3 2.1 -0.2
v 0.4 2 -0.2
v 0.4 2.1 -0.2
v 0.1 2 -0.4
v 0.1 2.1 -0.4
v 0.2 2 -0.4
v 0.2 2.1 -0.4
v 0.4 2 -0.4
v 0.4 2.1 -0.4
v 0.5 2 -0.4
v 0.5 2.1 -0.4
v 0.2 2 -0.5
v 0.2 2.1 -0.5
v 0.4 2 -0.5
v 0.4 2.1 -0.5
v 0.2 2 -0.1
v 0.3 2 -0.1
v 0.4 2 -0.1
v 0.1 2 -0.2
v 0.2 2 -0.2
v 0.3 2 -0.2
v 0.4 2 -0.2
v 0.5 2 -0.2
v 0.1 2 -0.3
v 0.2 2 -0.3
v 0.1 2 -0.4
v 0.2 2 -0.4
v 0.4 2 -0.4
v 0.5 2 -0.4
v 0.2 2 -0.5
v 0.4 2 -0.5
v 0.2 2.1 -0.1
v 0.3 2.1 -0.1
v 0.4 2.1 -0.1
v 0.1 2.1 -0.2
v 0.2 2.1 -0.2
v 0.3 2.1 -0.2
v 0.4 2.1 -0.2
v 0.5 2.1 -0.2
v 0.1 2.1 -0.3
v 0.2 2.1 -0.3
v 0.1 2.1 -0.4
v 0.2 2.1 -0.4
v 0.4 2.1 -0.4
v 0.5 2.1 -0.4
v 0.2 2.1 -0.5
v 0.4 2.1 -0.5

# faces
f 4/1/1 2/1/1 1/1/1
f 5/2/1 3/2/1 2/2/1
f 5/1/1 2/1/1 4/1/1
f 6/2/1 3/2/1 5/2/1
f 11/3/1 8/3/1 7/3/1
f 12/3/1 8/3/1 11/3/1
f 13/2/1 10/2/1 9/2/1
f 14/2/1 10/2/1 13/2/1
f 17/2/1 16/2/1 15/2/1
f 18/2/1 16/2/1 17/2/1
f 19/1/2 20/1/2 22/1/2
f 20/2/2 21/2/2 23/2/2
f 22/1/2 20/1/2 23/1/2
f 23/2/2 21/2/2 24/2/2
f 25/1/2 26/1/2 29/1/2
f 29/1/2 26/1/2 30/1/2
f 27/2/2 28/2/2 31/2/2
f 31/2/2 28/2/2 32/2/2
f 33/2/2 34/2/2 35/2/2
f 35/2/2 34/2/2 36/2/2
f 39/3/3 38/3/3 37/3/3
f 40/3/3 38/3/3 39/3/3
f 41/1/3 40/1/3 39/1/3
f 42/1/3 40/1/3 41/1/3
f 45/1/3 44/1/3 43/1/3
f 46/1/3 44/1/3 45/1/3
f 49/2/3 48/2/3 47/2/3
f 50/2/3 48/2/3 49/2/3
f 53/2/3 52/2/3 51/2/3
f 54/2/3 52/2/3 53/2/3
f 55/3/4 56/3/4 57/3/4
f 57/3/4 56/3/4 58/3/4
f 57/1/4 58/1/4 59/1/4
f 59/1/4 58/1/4 60/1/4
f 61/2/4 62/2/4 63/2/4
f 63/2/4 62/2/4 64/2/4
f 65/2/4 66/2/4 67/2/4
f 67/2/4 66/2/4 68/2/4
f 69/2/4 70/2/4 71/2/4
f 71/2/4 70/2/4 72/2/4
f 77/3/5 74/3/5 73/3/5
f 78/1/5 75/1/5 74/1/5
f 78/3/5 74/3/5 77/3/5
f 79/1/5 75/1/5 78/1/5
f 81/1/5 77/1/5 76/1/5
f 82/1/5 77/1/5 81/1/5
f 83/2/5 82/2/5 81/2/5
f 84/2/5 82/2/5 83/2/5
f 85/2/5 80/2/5 79/2/5
f 86/2/5 80/2/5 85/2/5
f 87/2/5 85/2/5 84/2/5
f 88/2/5 85/2/5 87/2/5
f 89/3/6 90/3/6 93/3/6
f 90/1/6 91/1/6 94/1/6
f 93/3/6 90/3/6 94/3/6
f 94/1/6 91/1/6 95/1/6
f 92/1/6 93/1/6 97/1/6
f 97/1/6 93/1/6 98/1/6
f 97/2/6 98/2/6 99/2/6
f 99/2/6 98/2/6 100/2/6
f 95/2/6 96/2/6 101/2/6
f 101/2/6 96/2/6 102/2/6
f 100/2/6 101/2/6 103/2/6
f 103/2/6 101/2/6 104/2/6
