# MagicaVoxel @ Ephtracy

# group
o 

# material
mtllib chest.mtl
usemtl palette

# normals
vn -1 0 0
vn 1 0 0
vn 0 0 1
vn 0 0 -1
vn 0 -1 0
vn 0 1 0

# texcoords
vt 0.982422 0.5
vt 0.986328 0.5
vt 0.990234 0.5

# verts
v 0.3 2.8 -0.8
v 0.3 2.8 -0.9
v 0.3 2.8 -1.7
v 0.3 2.8 -1.8
v 0.3 3.1 -0.8
v 0.3 3.1 -0.9
v 0.3 3.1 -1.7
v 0.3 3.1 -1.8
v 0.4 2.7 -0.8
v 0.4 2.7 -0.9
v 0.4 2.7 -1.7
v 0.4 2.7 -1.8
v 0.4 2.8 -0.8
v 0.4 2.8 -0.9
v 0.4 2.8 -1.7
v 0.4 2.8 -1.8
v 0.4 3.1 -0.8
v 0.4 3.1 -0.9
v 0.4 3.1 -1.7
v 0.4 3.1 -1.8
v 0.4 3.2 -0.8
v 0.4 3.2 -0.9
v 0.4 3.2 -1.7
v 0.4 3.2 -1.8
v 0.5 2.9 -0.4
v 0.5 2.9 -2.2
v 0.5 3 -0.4
v 0.5 3 -2.2
v 0.6 2.9 -0.3
v 0.6 2.9 -0.4
v 0.6 2.9 -2.2
v 0.6 2.9 -2.3
v 0.6 3 -0.3
v 0.6 3 -0.4
v 0.6 3 -2.2
v 0.6 3 -2.3
v 0.6 3.1 -0.4
v 0.6 3.1 -0.8
v 0.6 3.1 -0.9
v 0.6 3.1 -1.7
v 0.6 3.1 -1.8
v 0.6 3.1 -2.2
v 0.7 2 -0.4
v 0.7 2 -2.1
v 0.7 2.7 -0.8
v 0.7 2.7 -0.9
v 0.7 2.7 -1.7
v 0.7 2.7 -1.8
v 0.7 2.8 -0.8
v 0.7 2.8 -0.9
v 0.7 2.8 -1.7
v 0.7 2.8 -1.8
v 0.7 2.9 -0.4
v 0.7 2.9 -2.1
v 0.8 3.1 -1.2
v 0.8 3.1 -1.4
v 0.8 3.5 -1.2
v 0.8 3.5 -1.4
v 0.9 3.5 -1.2
v 0.9 3.5 -1.4
v 0.9 3.6 -1.2
v 0.9 3.6 -1.4
v 1 3.6 -1.2
v 1 3.6 -1.4
v 1 3.7 -1.2
v 1 3.7 -1.4
v 1.9 3.5 -1.2
v 1.9 3.5 -1.4
v 1.9 3.6 -1.2
v 1.9 3.6 -1.4
v 2.1 3.1 -1.2
v 2.1 3.1 -1.4
v 2.1 3.5 -1.2
v 2.1 3.5 -1.4
v 2.2 2.1 -0.5
v 2.2 2.1 -2
v 2.2 2.9 -0.5
v 2.2 2.9 -2
v 2.3 2.9 -0.4
v 2.3 2.9 -2.1
v 2.3 3 -0.4
v 2.3 3 -2.1
v 2.3 3.1 -0.8
v 2.3 3.1 -0.9
v 2.3 3.1 -1.7
v 2.3 3.1 -1.8
v 2.3 3.2 -0.8
v 2.3 3.2 -0.9
v 2.3 3.2 -1.7
v 2.3 3.2 -1.8
v 2.6 2.8 -0.8
v 2.6 2.8 -0.9
v 2.6 2.8 -1.7
v 2.6 2.8 -1.8
v 2.6 3.1 -0.8
v 2.6 3.1 -0.9
v 2.6 3.1 -1.7
v 2.6 3.1 -1.8
v 0.4 2.8 -0.8
v 0.4 2.8 -0.9
v 0.4 2.8 -1.7
v 0.4 2.8 -1.8
v 0.4 3.1 -0.8
v 0.4 3.1 -0.9
v 0.4 3.1 -1.7
v 0.4 3.1 -1.8
v 0.7 2.9 -0.4
v 0.7 2.9 -2.1
v 0.7 3 -0.4
v 0.7 3 -2.1
v 0.7 3.1 -0.8
v 0.7 3.1 -0.9
v 0.7 3.1 -1.7
v 0.7 3.1 -1.8
v 0.7 3.2 -0.8
v 0.7 3.2 -0.9
v 0.7 3.2 -1.7
v 0.7 3.2 -1.8
v 0.8 2.1 -0.5
v 0.8 2.1 -2
v 0.8 2.9 -0.5
v 0.8 2.9 -2
v 0.9 3.1 -1.2
v 0.9 3.1 -1.4
v 0.9 3.5 -1.2
v 0.9 3.5 -1.4
v 1.1 3.5 -1.2
v 1.1 3.5 -1.4
v 1.1 3.6 -1.2
v 1.1 3.6 -1.4
v 2 3.6 -1.2
v 2 3.6 -1.4
v 2 3.7 -1.2
v 2 3.7 -1.4
v 2.1 3.5 -1.2
v 2.1 3.5 -1.4
v 2.1 3.6 -1.2
v 2.1 3.6 -1.4
v 2.2 3.1 -1.2
v 2.2 3.1 -1.4
v 2.2 3.5 -1.2
v 2.2 3.5 -1.4
v 2.3 2 -0.4
v 2.3 2 -2.1
v 2.3 2.7 -0.8
v 2.3 2.7 -0.9
v 2.3 2.7 -1.7
v 2.3 2.7 -1.8
v 2.3 2.8 -0.8
v 2.3 2.8 -0.9
v 2.3 2.8 -1.7
v 2.3 2.8 -1.8
v 2.3 2.9 -0.4
v 2.3 2.9 -2.1
v 2.4 2.9 -0.3
v 2.4 2.9 -0.4
v 2.4 2.9 -2.2
v 2.4 2.9 -2.3
v 2.4 3 -0.3
v 2.4 3 -0.4
v 2.4 3 -2.2
v 2.4 3 -2.3
v 2.4 3.1 -0.4
v 2.4 3.1 -0.8
v 2.4 3.1 -0.9
v 2.4 3.1 -1.7
v 2.4 3.1 -1.8
v 2.4 3.1 -2.2
v 2.5 2.9 -0.4
v 2.5 2.9 -2.2
v 2.5 3 -0.4
v 2.5 3 -2.2
v 2.6 2.7 -0.8
v 2.6 2.7 -0.9
v 2.6 2.7 -1.7
v 2.6 2.7 -1.8
v 2.6 2.8 -0.8
v 2.6 2.8 -0.9
v 2.6 2.8 -1.7
v 2.6 2.8 -1.8
v 2.6 3.1 -0.8
v 2.6 3.1 -0.9
v 2.6 3.1 -1.7
v 2.6 3.1 -1.8
v 2.6 3.2 -0.8
v 2.6 3.2 -0.9
v 2.6 3.2 -1.7
v 2.6 3.2 -1.8
v 2.7 2.8 -0.8
v 2.7 2.8 -0.9
v 2.7 2.8 -1.7
v 2.7 2.8 -1.8
v 2.7 3.1 -0.8
v 2.7 3.1 -0.9
v 2.7 3.1 -1.7
v 2.7 3.1 -1.8
v 0.6 2.9 -0.3
v 0.6 3 -0.3
v 2.4 2.9 -0.3
v 2.4 3 -0.3
v 0.5 2.9 -0.4
v 0.5 3 -0.4
v 0.6 2.9 -0.4
v 0.6 3 -0.4
v 0.6 3.1 -0.4
v 0.7 2 -0.4
v 0.7 2.9 -0.4
v 2.3 2 -0.4
v 2.3 2.9 -0.4
v 2.4 2.9 -0.4
v 2.4 3 -0.4
v 2.4 3.1 -0.4
v 2.5 2.9 -0.4
v 2.5 3 -0.4
v 0.3 2.8 -0.8
v 0.3 3.1 -0.8
v 0.4 2.7 -0.8
v 0.4 2.8 -0.8
v 0.4 3.1 -0.8
v 0.4 3.2 -0.8
v 0.6 2.7 -0.8
v 0.6 2.8 -0.8
v 0.6 3.1 -0.8
v 0.6 3.2 -0.8
v 0.7 2.7 -0.8
v 0.7 2.8 -0.8
v 0.7 3.1 -0.8
v 0.7 3.2 -0.8
v 2.3 2.7 -0.8
v 2.3 2.8 -0.8
v 2.3 3.1 -0.8
v 2.3 3.2 -0.8
v 2.4 2.7 -0.8
v 2.4 2.8 -0.8
v 2.4 3.1 -0.8
v 2.4 3.2 -0.8
v 2.6 2.7 -0.8
v 2.6 2.8 -0.8
v 2.6 3.1 -0.8
v 2.6 3.2 -0.8
v 2.7 2.8 -0.8
v 2.7 3.1 -0.8
v 0.8 3.1 -1.2
v 0.8 3.5 -1.2
v 0.9 3.1 -1.2
v 0.9 3.5 -1.2
v 0.9 3.6 -1.2
v 1 3.6 -1.2
v 1 3.7 -1.2
v 1.1 3.5 -1.2
v 1.1 3.6 -1.2
v 1.9 3.5 -1.2
v 1.9 3.6 -1.2
v 2 3.6 -1.2
v 2 3.7 -1.2
v 2.1 3.1 -1.2
v 2.1 3.5 -1.2
v 2.1 3.6 -1.2
v 2.2 3.1 -1.2
v 2.2 3.5 -1.2
v 0.3 2.8 -1.7
v 0.3 3.1 -1.7
v 0.4 2.7 -1.7
v 0.4 2.8 -1.7
v 0.4 3.1 -1.7
v 0.4 3.2 -1.7
v 0.6 2.7 -1.7
v 0.6 2.8 -1.7
v 0.6 3.1 -1.7
v 0.6 3.2 -1.7
v 0.7 2.7 -1.7
v 0.7 2.8 -1.7
v 0.7 3.1 -1.7
v 0.7 3.2 -1.7
v 2.3 2.7 -1.7
v 2.3 2.8 -1.7
v 2.3 3.1 -1.7
v 2.3 3.2 -1.7
v 2.4 2.7 -1.7
v 2.4 2.8 -1.7
v 2.4 3.1 -1.7
v 2.4 3.2 -1.7
v 2.6 2.7 -1.7
v 2.6 2.8 -1.7
v 2.6 3.1 -1.7
v 2.6 3.2 -1.7
v 2.7 2.8 -1.7
v 2.7 3.1 -1.7
v 0.8 2.1 -2
v 0.8 2.9 -2
v 2.2 2.1 -2
v 2.2 2.9 -2
v 0.7 2.9 -2.1
v 0.7 3 -2.1
v 2.3 2.9 -2.1
v 2.3 3 -2.1
v 0.7 2.9 -0.4
v 0.7 3 -0.4
v 2.3 2.9 -0.4
v 2.3 3 -0.4
v 0.8 2.1 -0.5
v 0.8 2.9 -0.5
v 2.2 2.1 -0.5
v 2.2 2.9 -0.5
v 0.3 2.8 -0.9
v 0.3 3.1 -0.9
v 0.4 2.7 -0.9
v 0.4 2.8 -0.9
v 0.4 3.1 -0.9
v 0.4 3.2 -0.9
v 0.6 2.7 -0.9
v 0.6 2.8 -0.9
v 0.6 3.1 -0.9
v 0.6 3.2 -0.9
v 0.7 2.7 -0.9
v 0.7 2.8 -0.9
v 0.7 3.1 -0.9
v 0.7 3.2 -0.9
v 2.3 2.7 -0.9
v 2.3 2.8 -0.9
v 2.3 3.1 -0.9
v 2.3 3.2 -0.9
v 2.4 2.7 -0.9
v 2.4 2.8 -0.9
v 2.4 3.1 -0.9
v 2.4 3.2 -0.9
v 2.6 2.7 -0.9
v 2.6 2.8 -0.9
v 2.6 3.1 -0.9
v 2.6 3.2 -0.9
v 2.7 2.8 -0.9
v 2.7 3.1 -0.9
v 0.8 3.1 -1.4
v 0.8 3.5 -1.4
v 0.9 3.1 -1.4
v 0.9 3.5 -1.4
v 0.9 3.6 -1.4
v 1 3.6 -1.4
v 1 3.7 -1.4
v 1.1 3.5 -1.4
v 1.1 3.6 -1.4
v 1.9 3.5 -1.4
v 1.9 3.6 -1.4
v 2 3.6 -1.4
v 2 3.7 -1.4
v 2.1 3.1 -1.4
v 2.1 3.5 -1.4
v 2.1 3.6 -1.4
v 2.2 3.1 -1.4
v 2.2 3.5 -1.4
v 0.3 2.8 -1.8
v 0.3 3.1 -1.8
v 0.4 2.7 -1.8
v 0.4 2.8 -1.8
v 0.4 3.1 -1.8
v 0.4 3.2 -1.8
v 0.6 2.7 -1.8
v 0.6 2.8 -1.8
v 0.6 3.1 -1.8
v 0.6 3.2 -1.8
v 0.7 2.7 -1.8
v 0.7 2.8 -1.8
v 0.7 3.1 -1.8
v 0.7 3.2 -1.8
v 2.3 2.7 -1.8
v 2.3 2.8 -1.8
v 2.3 3.1 -1.8
v 2.3 3.2 -1.8
v 2.4 2.7 -1.8
v 2.4 2.8 -1.8
v 2.4 3.1 -1.8
v 2.4 3.2 -1.8
v 2.6 2.7 -1.8
v 2.6 2.8 -1.8
v 2.6 3.1 -1.8
v 2.6 3.2 -1.8
v 2.7 2.8 -1.8
v 2.7 3.1 -1.8
v 0.7 2 -2.1
v 0.7 2.9 -2.1
v 2.3 2 -2.1
v 2.3 2.9 -2.1
v 0.5 2.9 -2.2
v 0.5 3 -2.2
v 0.6 2.9 -2.2
v 0.6 3 -2.2
v 0.6 3.1 -2.2
v 2.4 2.9 -2.2
v 2.4 3 -2.2
v 2.4 3.1 -2.2
v 2.5 2.9 -2.2
v 2.5 3 -2.2
v 0.6 2.9 -2.3
v 0.6 3 -2.3
v 2.4 2.9 -2.3
v 2.4 3 -2.3
v 0.7 2 -0.4
v 2.3 2 -0.4
v 0.8 2 -0.5
v 2.2 2 -0.5
v 0.8 2 -2
v 2.2 2 -2
v 0.7 2 -2.1
v 2.3 2 -2.1
v 0.4 2.7 -0.8
v 0.6 2.7 -0.8
v 0.7 2.7 -0.8
v 2.3 2.7 -0.8
v 2.4 2.7 -0.8
v 2.6 2.7 -0.8
v 0.4 2.7 -0.9
v 0.6 2.7 -0.9
v 0.7 2.7 -0.9
v 2.3 2.7 -0.9
v 2.4 2.7 -0.9
v 2.6 2.7 -0.9
v 0.4 2.7 -1.7
v 0.6 2.7 -1.7
v 0.7 2.7 -1.7
v 2.3 2.7 -1.7
v 2.4 2.7 -1.7
v 2.6 2.7 -1.7
v 0.4 2.7 -1.8
v 0.6 2.7 -1.8
v 0.7 2.7 -1.8
v 2.3 2.7 -1.8
v 2.4 2.7 -1.8
v 2.6 2.7 -1.8
v 0.3 2.8 -0.8
v 0.4 2.8 -0.8
v 2.6 2.8 -0.8
v 2.7 2.8 -0.8
v 0.3 2.8 -0.9
v 0.4 2.8 -0.9
v 2.6 2.8 -0.9
v 2.7 2.8 -0.9
v 0.3 2.8 -1.7
v 0.4 2.8 -1.7
v 2.6 2.8 -1.7
v 2.7 2.8 -1.7
v 0.3 2.8 -1.8
v 0.4 2.8 -1.8
v 2.6 2.8 -1.8
v 2.7 2.8 -1.8
v 0.6 2.9 -0.3
v 2.4 2.9 -0.3
v 0.5 2.9 -0.4
v 0.6 2.9 -0.4
v 0.7 2.9 -0.4
v 2.3 2.9 -0.4
v 2.4 2.9 -0.4
v 2.5 2.9 -0.4
v 0.7 2.9 -2.1
v 2.3 2.9 -2.1
v 0.5 2.9 -2.2
v 0.6 2.9 -2.2
v 2.4 2.9 -2.2
v 2.5 2.9 -2.2
v 0.6 2.9 -2.3
v 2.4 2.9 -2.3
v 0.7 3 -0.4
v 2.3 3 -0.4
v 0.7 3 -2.1
v 2.3 3 -2.1
v 0.4 3.1 -0.8
v 0.6 3.1 -0.8
v 2.4 3.1 -0.8
v 2.6 3.1 -0.8
v 0.4 3.1 -0.9
v 0.6 3.1 -0.9
v 2.4 3.1 -0.9
v 2.6 3.1 -0.9
v 0.4 3.1 -1.7
v 0.6 3.1 -1.7
v 2.4 3.1 -1.7
v 2.6 3.1 -1.7
v 0.4 3.1 -1.8
v 0.6 3.1 -1.8
v 2.4 3.1 -1.8
v 2.6 3.1 -1.8
v 0.9 3.5 -1.2
v 1.1 3.5 -1.2
v 1.9 3.5 -1.2
v 2.1 3.5 -1.2
v 0.9 3.5 -1.4
v 1.1 3.5 -1.4
v 1.9 3.5 -1.4
v 2.1 3.5 -1.4
v 1.1 3.6 -1.2
v 1.9 3.6 -1.2
v 1.1 3.6 -1.4
v 1.9 3.6 -1.4
v 0.8 2.1 -0.5
v 2.2 2.1 -0.5
v 0.8 2.1 -2
v 2.2 2.1 -2
v 0.4 2.8 -0.8
v 0.6 2.8 -0.8
v 0.7 2.8 -0.8
v 2.3 2.8 -0.8
v 2.4 2.8 -0.8
v 2.6 2.8 -0.8
v 0.4 2.8 -0.9
v 0.6 2.8 -0.9
v 0.7 2.8 -0.9
v 2.3 2.8 -0.9
v 2.4 2.8 -0.9
v 2.6 2.8 -0.9
v 0.4 2.8 -1.7
v 0.6 2.8 -1.7
v 0.7 2.8 -1.7
v 2.3 2.8 -1.7
v 2.4 2.8 -1.7
v 2.6 2.8 -1.7
v 0.4 2.8 -1.8
v 0.6 2.8 -1.8
v 0.7 2.8 -1.8
v 2.3 2.8 -1.8
v 2.4 2.8 -1.8
v 2.6 2.8 -1.8
v 0.7 2.9 -0.4
v 2.3 2.9 -0.4
v 0.8 2.9 -0.5
v 2.2 2.9 -0.5
v 0.8 2.9 -2
v 2.2 2.9 -2
v 0.7 2.9 -2.1
v 2.3 2.9 -2.1
v 0.6 3 -0.3
v 2.4 3 -0.3
v 0.5 3 -0.4
v 0.6 3 -0.4
v 2.4 3 -0.4
v 2.5 3 -0.4
v 0.5 3 -2.2
v 0.6 3 -2.2
v 2.4 3 -2.2
v 2.5 3 -2.2
v 0.6 3 -2.3
v 2.4 3 -2.3
v 0.6 3.1 -0.4
v 2.4 3.1 -0.4
v 0.3 3.1 -0.8
v 0.4 3.1 -0.8
v 0.6 3.1 -0.8
v 0.7 3.1 -0.8
v 2.3 3.1 -0.8
v 2.4 3.1 -0.8
v 2.6 3.1 -0.8
v 2.7 3.1 -0.8
v 0.3 3.1 -0.9
v 0.4 3.1 -0.9
v 0.6 3.1 -0.9
v 0.7 3.1 -0.9
v 2.3 3.1 -0.9
v 2.4 3.1 -0.9
v 2.6 3.1 -0.9
v 2.7 3.1 -0.9
v 0.8 3.1 -1.2
v 0.9 3.1 -1.2
v 2.1 3.1 -1.2
v 2.2 3.1 -1.2
v 0.8 3.1 -1.4
v 0.9 3.1 -1.4
v 2.1 3.1 -1.4
v 2.2 3.1 -1.4
v 0.3 3.1 -1.7
v 0.4 3.1 -1.7
v 0.6 3.1 -1.7
v 0.7 3.1 -1.7
v 2.3 3.1 -1.7
v 2.4 3.1 -1.7
v 2.6 3.1 -1.7
v 2.7 3.1 -1.7
v 0.3 3.1 -1.8
v 0.4 3.1 -1.8
v 0.6 3.1 -1.8
v 0.7 3.1 -1.8
v 2.3 3.1 -1.8
v 2.4 3.1 -1.8
v 2.6 3.1 -1.8
v 2.7 3.1 -1.8
v 0.6 3.1 -2.2
v 2.4 3.1 -2.2
v 0.4 3.2 -0.8
v 0.6 3.2 -0.8
v 0.7 3.2 -0.8
v 2.3 3.2 -0.8
v 2.4 3.2 -0.8
v 2.6 3.2 -0.8
v 0.4 3.2 -0.9
v 0.6 3.2 -0.9
v 0.7 3.2 -0.9
v 2.3 3.2 -0.9
v 2.4 3.2 -0.9
v 2.6 3.2 -0.9
v 0.4 3.2 -1.7
v 0.6 3.2 -1.7
v 0.7 3.2 -1.7
v 2.3 3.2 -1.7
v 2.4 3.2 -1.7
v 2.6 3.2 -1.7
v 0.4 3.2 -1.8
v 0.6 3.2 -1.8
v 0.7 3.2 -1.8
v 2.3 3.2 -1.8
v 2.4 3.2 -1.8
v 2.6 3.2 -1.8
v 0.8 3.5 -1.2
v 0.9 3.5 -1.2
v 2.1 3.5 -1.2
v 2.2 3.5 -1.2
v 0.8 3.5 -1.4
v 0.9 3.5 -1.4
v 2.1 3.5 -1.4
v 2.2 3.5 -1.4
v 0.9 3.6 -1.2
v 1 3.6 -1.2
v 2 3.6 -1.2
v 2.1 3.6 -1.2
v 0.9 3.6 -1.4
v 1 3.6 -1.4
v 2 3.6 -1.4
v 2.1 3.6 -1.4
v 1 3.7 -1.2
v 2 3.7 -1.2
v 1 3.7 -1.4
v 2 3.7 -1.4

# faces
f 5/2/1 2/2/1 1/2/1
f 6/2/1 2/2/1 5/2/1
f 7/2/1 4/2/1 3/2/1
f 8/2/1 4/2/1 7/2/1
f 13/2/1 10/2/1 9/2/1
f 14/2/1 10/2/1 13/2/1
f 15/2/1 12/2/1 11/2/1
f 16/2/1 12/2/1 15/2/1
f 21/2/1 18/2/1 17/2/1
f 22/2/1 18/2/1 21/2/1
f 23/2/1 20/2/1 19/2/1
f 24/2/1 20/2/1 23/2/1
f 27/2/1 26/2/1 25/2/1
f 28/2/1 26/2/1 27/2/1
f 33/2/1 30/2/1 29/2/1
f 34/2/1 30/2/1 33/2/1
f 35/2/1 32/2/1 31/2/1
f 36/2/1 32/2/1 35/2/1
f 37/2/1 35/2/1 34/2/1
f 38/2/1 35/2/1 37/2/1
f 39/2/1 35/2/1 38/2/1
f 40/2/1 35/2/1 39/2/1
f 41/2/1 35/2/1 40/2/1
f 42/2/1 35/2/1 41/2/1
f 45/1/1 44/1/1 43/1/1
f 46/1/1 44/1/1 45/1/1
f 47/1/1 44/1/1 46/1/1
f 48/1/1 44/1/1 47/1/1
f 49/1/1 45/1/1 43/1/1
f 50/1/1 47/1/1 46/1/1
f 51/1/1 47/1/1 50/1/1
f 52/1/1 44/1/1 48/1/1
f 53/1/1 51/1/1 50/1/1
f 53/1/1 52/1/1 51/1/1
f 53/1/1 49/1/1 43/1/1
f 53/1/1 50/1/1 49/1/1
f 54/1/1 44/1/1 52/1/1
f 54/1/1 52/1/1 53/1/1
f 57/3/1 56/3/1 55/3/1
f 58/3/1 56/3/1 57/3/1
f 61/3/1 60/3/1 59/3/1
f 62/3/1 60/3/1 61/3/1
f 65/3/1 64/3/1 63/3/1
f 66/3/1 64/3/1 65/3/1
f 69/3/1 68/3/1 67/3/1
f 70/3/1 68/3/1 69/3/1
f 73/3/1 72/3/1 71/3/1
f 74/3/1 72/3/1 73/3/1
f 77/1/1 76/1/1 75/1/1
f 78/1/1 76/1/1 77/1/1
f 81/2/1 80/2/1 79/2/1
f 82/2/1 80/2/1 81/2/1
f 87/3/1 84/3/1 83/3/1
f 88/3/1 84/3/1 87/3/1
f 89/3/1 86/3/1 85/3/1
f 90/3/1 86/3/1 89/3/1
f 95/2/1 92/2/1 91/2/1
f 96/2/1 92/2/1 95/2/1
f 97/2/1 94/2/1 93/2/1
f 98/2/1 94/2/1 97/2/1
f 99/2/2 100/2/2 103/2/2
f 103/2/2 100/2/2 104/2/2
f 101/2/2 102/2/2 105/2/2
f 105/2/2 102/2/2 106/2/2
f 107/2/2 108/2/2 109/2/2
f 109/2/2 108/2/2 110/2/2
f 111/3/2 112/3/2 115/3/2
f 115/3/2 112/3/2 116/3/2
f 113/3/2 114/3/2 117/3/2
f 117/3/2 114/3/2 118/3/2
f 119/1/2 120/1/2 121/1/2
f 121/1/2 120/1/2 122/1/2
f 123/3/2 124/3/2 125/3/2
f 125/3/2 124/3/2 126/3/2
f 127/3/2 128/3/2 129/3/2
f 129/3/2 128/3/2 130/3/2
f 131/3/2 132/3/2 133/3/2
f 133/3/2 132/3/2 134/3/2
f 135/3/2 136/3/2 137/3/2
f 137/3/2 136/3/2 138/3/2
f 139/3/2 140/3/2 141/3/2
f 141/3/2 140/3/2 142/3/2
f 143/1/2 144/1/2 145/1/2
f 145/1/2 144/1/2 146/1/2
f 146/1/2 144/1/2 147/1/2
f 147/1/2 144/1/2 148/1/2
f 143/1/2 145/1/2 149/1/2
f 146/1/2 147/1/2 150/1/2
f 150/1/2 147/1/2 151/1/2
f 148/1/2 144/1/2 152/1/2
f 150/1/2 151/1/2 153/1/2
f 151/1/2 152/1/2 153/1/2
f 143/1/2 149/1/2 153/1/2
f 149/1/2 150/1/2 153/1/2
f 152/1/2 144/1/2 154/1/2
f 153/1/2 152/1/2 154/1/2
f 155/2/2 156/2/2 159/2/2
f 159/2/2 156/2/2 160/2/2
f 157/2/2 158/2/2 161/2/2
f 161/2/2 158/2/2 162/2/2
f 160/2/2 161/2/2 163/2/2
f 163/2/2 161/2/2 164/2/2
f 164/2/2 161/2/2 165/2/2
f 165/2/2 161/2/2 166/2/2
f 166/2/2 161/2/2 167/2/2
f 167/2/2 161/2/2 168/2/2
f 169/2/2 170/2/2 171/2/2
f 171/2/2 170/2/2 172/2/2
f 173/2/2 174/2/2 177/2/2
f 177/2/2 174/2/2 178/2/2
f 175/2/2 176/2/2 179/2/2
f 179/2/2 176/2/2 180/2/2
f 181/2/2 182/2/2 185/2/2
f 185/2/2 182/2/2 186/2/2
f 183/2/2 184/2/2 187/2/2
f 187/2/2 184/2/2 188/2/2
f 189/2/2 190/2/2 193/2/2
f 193/2/2 190/2/2 194/2/2
f 191/2/2 192/2/2 195/2/2
f 195/2/2 192/2/2 196/2/2
f 199/2/3 198/2/3 197/2/3
f 200/2/3 198/2/3 199/2/3
f 203/2/3 202/2/3 201/2/3
f 204/2/3 202/2/3 203/2/3
f 208/1/3 207/1/3 206/1/3
f 209/1/3 207/1/3 208/1/3
f 211/2/3 205/2/3 204/2/3
f 212/2/3 205/2/3 211/2/3
f 213/2/3 211/2/3 210/2/3
f 214/2/3 211/2/3 213/2/3
f 218/2/3 216/2/3 215/2/3
f 219/2/3 216/2/3 218/2/3
f 221/2/3 218/2/3 217/2/3
f 222/2/3 218/2/3 221/2/3
f 223/2/3 220/2/3 219/2/3
f 224/2/3 220/2/3 223/2/3
f 225/3/3 222/3/3 221/3/3
f 226/3/3 222/3/3 225/3/3
f 227/3/3 224/3/3 223/3/3
f 228/3/3 224/3/3 227/3/3
f 233/3/3 230/3/3 229/3/3
f 234/3/3 230/3/3 233/3/3
f 235/3/3 232/3/3 231/3/3
f 236/3/3 232/3/3 235/3/3
f 237/2/3 234/2/3 233/2/3
f 238/2/3 234/2/3 237/2/3
f 239/2/3 236/2/3 235/2/3
f 240/2/3 236/2/3 239/2/3
f 241/2/3 239/2/3 238/2/3
f 242/2/3 239/2/3 241/2/3
f 245/3/3 244/3/3 243/3/3
f 246/3/3 244/3/3 245/3/3
f 248/3/3 247/3/3 246/3/3
f 250/3/3 248/3/3 246/3/3
f 250/3/3 249/3/3 248/3/3
f 251/3/3 249/3/3 250/3/3
f 253/3/3 249/3/3 251/3/3
f 254/3/3 249/3/3 253/3/3
f 254/3/3 253/3/3 252/3/3
f 255/3/3 249/3/3 254/3/3
f 257/3/3 254/3/3 252/3/3
f 258/3/3 254/3/3 257/3/3
f 259/3/3 257/3/3 256/3/3
f 260/3/3 257/3/3 259/3/3
f 264/2/3 262/2/3 261/2/3
f 265/2/3 262/2/3 264/2/3
f 267/2/3 264/2/3 263/2/3
f 268/2/3 264/2/3 267/2/3
f 269/2/3 266/2/3 265/2/3
f 270/2/3 266/2/3 269/2/3
f 271/3/3 268/3/3 267/3/3
f 272/3/3 268/3/3 271/3/3
f 273/3/3 270/3/3 269/3/3
f 274/3/3 270/3/3 273/3/3
f 279/3/3 276/3/3 275/3/3
f 280/3/3 276/3/3 279/3/3
f 281/3/3 278/3/3 277/3/3
f 282/3/3 278/3/3 281/3/3
f 283/2/3 280/2/3 279/2/3
f 284/2/3 280/2/3 283/2/3
f 285/2/3 282/2/3 281/2/3
f 286/2/3 282/2/3 285/2/3
f 287/2/3 285/2/3 284/2/3
f 288/2/3 285/2/3 287/2/3
f 291/1/3 290/1/3 289/1/3
f 292/1/3 290/1/3 291/1/3
f 295/2/3 294/2/3 293/2/3
f 296/2/3 294/2/3 295/2/3
f 297/2/4 298/2/4 299/2/4
f 299/2/4 298/2/4 300/2/4
f 301/1/4 302/1/4 303/1/4
f 303/1/4 302/1/4 304/1/4
f 305/2/4 306/2/4 308/2/4
f 308/2/4 306/2/4 309/2/4
f 307/2/4 308/2/4 311/2/4
f 311/2/4 308/2/4 312/2/4
f 309/2/4 310/2/4 313/2/4
f 313/2/4 310/2/4 314/2/4
f 311/3/4 312/3/4 315/3/4
f 315/3/4 312/3/4 316/3/4
f 313/3/4 314/3/4 317/3/4
f 317/3/4 314/3/4 318/3/4
f 319/3/4 320/3/4 323/3/4
f 323/3/4 320/3/4 324/3/4
f 321/3/4 322/3/4 325/3/4
f 325/3/4 322/3/4 326/3/4
f 323/2/4 324/2/4 327/2/4
f 327/2/4 324/2/4 328/2/4
f 325/2/4 326/2/4 329/2/4
f 329/2/4 326/2/4 330/2/4
f 328/2/4 329/2/4 331/2/4
f 331/2/4 329/2/4 332/2/4
f 333/3/4 334/3/4 335/3/4
f 335/3/4 334/3/4 336/3/4
f 336/3/4 337/3/4 338/3/4
f 336/3/4 338/3/4 340/3/4
f 338/3/4 339/3/4 340/3/4
f 340/3/4 339/3/4 341/3/4
f 341/3/4 339/3/4 343/3/4
f 343/3/4 339/3/4 344/3/4
f 342/3/4 343/3/4 344/3/4
f 344/3/4 339/3/4 345/3/4
f 342/3/4 344/3/4 347/3/4
f 347/3/4 344/3/4 348/3/4
f 346/3/4 347/3/4 349/3/4
f 349/3/4 347/3/4 350/3/4
f 351/2/4 352/2/4 354/2/4
f 354/2/4 352/2/4 355/2/4
f 353/2/4 354/2/4 357/2/4
f 357/2/4 354/2/4 358/2/4
f 355/2/4 356/2/4 359/2/4
f 359/2/4 356/2/4 360/2/4
f 357/3/4 358/3/4 361/3/4
f 361/3/4 358/3/4 362/3/4
f 359/3/4 360/3/4 363/3/4
f 363/3/4 360/3/4 364/3/4
f 365/3/4 366/3/4 369/3/4
f 369/3/4 366/3/4 370/3/4
f 367/3/4 368/3/4 371/3/4
f 371/3/4 368/3/4 372/3/4
f 369/2/4 370/2/4 373/2/4
f 373/2/4 370/2/4 374/2/4
f 371/2/4 372/2/4 375/2/4
f 375/2/4 372/2/4 376/2/4
f 374/2/4 375/2/4 377/2/4
f 377/2/4 375/2/4 378/2/4
f 379/1/4 380/1/4 381/1/4
f 381/1/4 380/1/4 382/1/4
f 383/2/4 384/2/4 385/2/4
f 385/2/4 384/2/4 386/2/4
f 386/2/4 387/2/4 389/2/4
f 389/2/4 387/2/4 390/2/4
f 388/2/4 389/2/4 391/2/4
f 391/2/4 389/2/4 392/2/4
f 393/2/4 394/2/4 395/2/4
f 395/2/4 394/2/4 396/2/4
f 399/1/5 398/1/5 397/1/5
f 400/1/5 398/1/5 399/1/5
f 401/1/5 399/1/5 397/1/5
f 401/2/5 400/2/5 399/2/5
f 402/1/5 398/1/5 400/1/5
f 402/2/5 400/2/5 401/2/5
f 403/1/5 401/1/5 397/1/5
f 403/1/5 402/1/5 401/1/5
f 404/1/5 398/1/5 402/1/5
f 404/1/5 402/1/5 403/1/5
f 411/2/5 406/2/5 405/2/5
f 412/3/5 407/3/5 406/3/5
f 412/2/5 406/2/5 411/2/5
f 413/3/5 407/3/5 412/3/5
f 414/3/5 409/3/5 408/3/5
f 415/2/5 410/2/5 409/2/5
f 415/3/5 409/3/5 414/3/5
f 416/2/5 410/2/5 415/2/5
f 423/2/5 418/2/5 417/2/5
f 424/3/5 419/3/5 418/3/5
f 424/2/5 418/2/5 423/2/5
f 425/3/5 419/3/5 424/3/5
f 426/3/5 421/3/5 420/3/5
f 427/2/5 422/2/5 421/2/5
f 427/3/5 421/3/5 426/3/5
f 428/2/5 422/2/5 427/2/5
f 433/2/5 430/2/5 429/2/5
f 434/2/5 430/2/5 433/2/5
f 435/2/5 432/2/5 431/2/5
f 436/2/5 432/2/5 435/2/5
f 441/2/5 438/2/5 437/2/5
f 442/2/5 438/2/5 441/2/5
f 443/2/5 440/2/5 439/2/5
f 444/2/5 440/2/5 443/2/5
f 448/2/5 446/2/5 445/2/5
f 449/2/5 446/2/5 448/2/5
f 450/2/5 446/2/5 449/2/5
f 451/2/5 446/2/5 450/2/5
f 453/2/5 448/2/5 447/2/5
f 453/2/5 449/2/5 448/2/5
f 454/2/5 452/2/5 451/2/5
f 454/2/5 451/2/5 450/2/5
f 455/2/5 453/2/5 447/2/5
f 455/2/5 454/2/5 453/2/5
f 456/2/5 454/2/5 455/2/5
f 457/2/5 452/2/5 454/2/5
f 457/2/5 454/2/5 456/2/5
f 458/2/5 452/2/5 457/2/5
f 459/2/5 457/2/5 456/2/5
f 460/2/5 457/2/5 459/2/5
f 463/2/5 462/2/5 461/2/5
f 464/2/5 462/2/5 463/2/5
f 469/2/5 466/2/5 465/2/5
f 470/2/5 466/2/5 469/2/5
f 471/2/5 468/2/5 467/2/5
f 472/2/5 468/2/5 471/2/5
f 477/2/5 474/2/5 473/2/5
f 478/2/5 474/2/5 477/2/5
f 479/2/5 476/2/5 475/2/5
f 480/2/5 476/2/5 479/2/5
f 485/3/5 482/3/5 481/3/5
f 486/3/5 482/3/5 485/3/5
f 487/3/5 484/3/5 483/3/5
f 488/3/5 484/3/5 487/3/5
f 491/3/5 490/3/5 489/3/5
f 492/3/5 490/3/5 491/3/5
f 493/2/6 494/2/6 495/2/6
f 495/2/6 494/2/6 496/2/6
f 497/2/6 498/2/6 503/2/6
f 498/3/6 499/3/6 504/3/6
f 503/2/6 498/2/6 504/2/6
f 504/3/6 499/3/6 505/3/6
f 500/3/6 501/3/6 506/3/6
f 501/2/6 502/2/6 507/2/6
f 506/3/6 501/3/6 507/3/6
f 507/2/6 502/2/6 508/2/6
f 509/2/6 510/2/6 515/2/6
f 510/3/6 511/3/6 516/3/6
f 515/2/6 510/2/6 516/2/6
f 516/3/6 511/3/6 517/3/6
f 512/3/6 513/3/6 518/3/6
f 513/2/6 514/2/6 519/2/6
f 518/3/6 513/3/6 519/3/6
f 519/2/6 514/2/6 520/2/6
f 521/1/6 522/1/6 523/1/6
f 523/1/6 522/1/6 524/1/6
f 521/1/6 523/1/6 525/1/6
f 524/1/6 522/1/6 526/1/6
f 521/1/6 525/1/6 527/1/6
f 525/1/6 526/1/6 527/1/6
f 526/1/6 522/1/6 528/1/6
f 527/1/6 526/1/6 528/1/6
f 529/2/6 530/2/6 532/2/6
f 532/2/6 530/2/6 533/2/6
f 531/2/6 532/2/6 535/2/6
f 535/2/6 532/2/6 536/2/6
f 533/2/6 534/2/6 537/2/6
f 537/2/6 534/2/6 538/2/6
f 536/2/6 537/2/6 539/2/6
f 539/2/6 537/2/6 540/2/6
f 541/2/6 542/2/6 545/2/6
f 545/2/6 542/2/6 546/2/6
f 546/2/6 542/2/6 547/2/6
f 547/2/6 542/2/6 548/2/6
f 543/2/6 544/2/6 551/2/6
f 551/2/6 544/2/6 552/2/6
f 546/2/6 547/2/6 554/2/6
f 554/2/6 547/2/6 555/2/6
f 549/2/6 550/2/6 557/2/6
f 557/2/6 550/2/6 558/2/6
f 555/2/6 556/2/6 559/2/6
f 553/2/6 554/2/6 559/2/6
f 554/2/6 555/2/6 559/2/6
f 559/2/6 556/2/6 560/2/6
f 560/2/6 556/2/6 561/2/6
f 561/2/6 556/2/6 562/2/6
f 553/2/6 559/2/6 563/2/6
f 560/2/6 561/2/6 564/2/6
f 564/2/6 561/2/6 565/2/6
f 562/2/6 556/2/6 566/2/6
f 564/2/6 565/2/6 569/2/6
f 553/2/6 563/2/6 569/2/6
f 565/2/6 566/2/6 569/2/6
f 563/2/6 564/2/6 569/2/6
f 569/2/6 566/2/6 570/2/6
f 566/2/6 556/2/6 571/2/6
f 570/2/6 566/2/6 571/2/6
f 571/2/6 556/2/6 572/2/6
f 567/2/6 568/2/6 575/2/6
f 575/2/6 568/2/6 576/2/6
f 570/2/6 571/2/6 578/2/6
f 578/2/6 571/2/6 579/2/6
f 573/2/6 574/2/6 581/2/6
f 581/2/6 574/2/6 582/2/6
f 579/2/6 580/2/6 583/2/6
f 577/2/6 578/2/6 583/2/6
f 578/2/6 579/2/6 583/2/6
f 583/2/6 580/2/6 584/2/6
f 585/2/6 586/2/6 591/2/6
f 586/3/6 587/3/6 592/3/6
f 591/2/6 586/2/6 592/2/6
f 592/3/6 587/3/6 593/3/6
f 588/3/6 589/3/6 594/3/6
f 589/2/6 590/2/6 595/2/6
f 594/3/6 589/3/6 595/3/6
f 595/2/6 590/2/6 596/2/6
f 597/2/6 598/2/6 603/2/6
f 598/3/6 599/3/6 604/3/6
f 603/2/6 598/2/6 604/2/6
f 604/3/6 599/3/6 605/3/6
f 600/3/6 601/3/6 606/3/6
f 601/2/6 602/2/6 607/2/6
f 606/3/6 601/3/6 607/3/6
f 607/2/6 602/2/6 608/2/6
f 609/3/6 610/3/6 613/3/6
f 613/3/6 610/3/6 614/3/6
f 611/3/6 612/3/6 615/3/6
f 615/3/6 612/3/6 616/3/6
f 617/3/6 618/3/6 621/3/6
f 621/3/6 618/3/6 622/3/6
f 619/3/6 620/3/6 623/3/6
f 623/3/6 620/3/6 624/3/6
f 625/3/6 626/3/6 627/3/6
f 627/3/6 626/3/6 628/3/6
