# MagicaVoxel @ Ephtracy

# group
o printer

# material
mtllib Combiner-1-printer.mtl
usemtl palette

# normals
vn -1 0 0
vn 1 0 0
vn 0 0 1
vn 0 0 -1
vn 0 -1 0
vn 0 1 0

# texcoords
vt 0.794922 0.5
vt 0.978516 0.5
vt 0.990234 0.5

# verts
v -0.2 0.7 0.7
v -0.2 0.7 0.5
v -0.2 0.8 0.6
v -0.2 0.8 0.5
v -0.2 0.9 0.9
v -0.2 0.9 0.8
v -0.2 1 0.7
v -0.2 1 0.6
v -0.2 1.1 0.9
v -0.2 1.1 0.8
v -0.2 1.1 0.7
v -0.2 1.2 0.8
v -0.2 1.2 0.7
v -0.2 1.5 0.1
v -0.2 1.5 0
v -0.2 1.6 0.1
v -0.2 1.6 0
v -0.1 0.7 0.8
v -0.1 0.7 0.7
v -0.1 0.8 0.8
v -0.1 0.8 0.7
v -0.1 0.8 0.6
v -0.1 0.8 0.5
v -0.1 0.9 0.8
v -0.1 0.9 0.7
v -0.1 1 0.7
v -0.1 1 0.6
v -0.1 1.1 0.7
v -0.1 1.1 0.6
v -0.1 1.2 0.8
v -0.1 1.2 0.7
v -0.1 1.3 0.1
v -0.1 1.3 0
v -0.1 1.4 0.1
v -0.1 1.4 0
v -0.1 1.5 0.8
v -0.1 1.5 0.7
v -0.1 1.5 0.6
v -0.1 1.5 0.5
v -0.1 1.5 0.4
v -0.1 1.5 0.2
v -0.1 1.5 0.1
v -0.1 1.5 0
v -0.1 1.6 0.7
v -0.1 1.6 0.6
v -0.1 1.6 0.5
v -0.1 1.6 0.4
v -0.1 1.6 0.2
v -0.1 1.6 0.1
v -0.1 1.7 0.6
v -0.1 1.7 0.5
v -0.1 1.7 0.1
v -0.1 0.9 0.9
v -0.1 0.9 0.8
v -0.1 1.1 0.9
v -0.1 1.1 0.8
v 0 0.7 0.8
v 0 0.7 0.7
v 0 0.8 0.8
v 0 0.8 0.7
v 0 0.8 0.6
v 0 0.8 0.5
v 0 0.9 0.8
v 0 0.9 0.7
v 0 1 0.7
v 0 1 0.6
v 0 1.1 0.8
v 0 1.1 0.7
v 0 1.1 0.6
v 0 1.3 0.1
v 0 1.3 0
v 0 1.4 0.1
v 0 1.4 0
v 0 1.5 0.8
v 0 1.5 0.7
v 0 1.5 0.6
v 0 1.5 0.5
v 0 1.5 0.4
v 0 1.5 0.2
v 0 1.5 0.1
v 0 1.5 0
v 0 1.6 0.7
v 0 1.6 0.6
v 0 1.6 0.5
v 0 1.6 0.4
v 0 1.6 0.2
v 0 1.6 0.1
v 0 1.7 0.6
v 0 1.7 0.5
v 0 1.7 0.1
v 0.1 0.7 0.7
v 0.1 0.7 0.5
v 0.1 0.8 0.6
v 0.1 0.8 0.5
v 0.1 1 0.7
v 0.1 1 0.6
v 0.1 1.5 0.1
v 0.1 1.5 0
v 0.1 1.6 0.1
v 0.1 1.6 0
v -0.2 0.9 0.9
v -0.2 1.1 0.9
v -0.1 0.9 0.9
v -0.1 1.1 0.9
v -0.2 1.1 0.8
v -0.2 1.2 0.8
v -0.1 0.7 0.8
v -0.1 0.8 0.8
v -0.1 0.9 0.8
v -0.1 1.1 0.8
v -0.1 1.2 0.8
v -0.1 1.5 0.8
v 0 0.7 0.8
v 0 0.8 0.8
v 0 0.9 0.8
v 0 1.1 0.8
v 0 1.5 0.8
v -0.2 0.7 0.7
v -0.2 1 0.7
v -0.1 0.7 0.7
v -0.1 0.8 0.7
v -0.1 0.9 0.7
v -0.1 1 0.7
v -0.1 1.1 0.7
v -0.1 1.5 0.7
v -0.1 1.6 0.7
v 0 0.7 0.7
v 0 0.8 0.7
v 0 0.9 0.7
v 0 1 0.7
v 0 1.1 0.7
v 0 1.5 0.7
v 0 1.6 0.7
v 0.1 0.7 0.7
v 0.1 1 0.7
v -0.1 1.1 0.6
v -0.1 1.5 0.6
v -0.1 1.6 0.6
v -0.1 1.7 0.6
v 0 1.1 0.6
v 0 1.5 0.6
v 0 1.6 0.6
v 0 1.7 0.6
v -0.1 1.5 0.2
v -0.1 1.6 0.2
v 0 1.5 0.2
v 0 1.6 0.2
v -0.2 1.5 0.1
v -0.2 1.6 0.1
v -0.1 1.3 0.1
v -0.1 1.4 0.1
v -0.1 1.5 0.1
v -0.1 1.6 0.1
v 0 1.3 0.1
v 0 1.4 0.1
v 0 1.5 0.1
v 0 1.6 0.1
v 0.1 1.5 0.1
v 0.1 1.6 0.1
v -0.2 0.9 0.8
v -0.2 1.1 0.8
v -0.1 0.9 0.8
v -0.1 1.1 0.8
v -0.2 1.1 0.7
v -0.2 1.2 0.7
v -0.1 1.1 0.7
v -0.1 1.2 0.7
v -0.1 1.5 0.7
v 0 1.1 0.7
v 0 1.5 0.7
v -0.2 0.8 0.6
v -0.2 1 0.6
v -0.1 0.8 0.6
v -0.1 1 0.6
v 0 0.8 0.6
v 0 1 0.6
v 0.1 0.8 0.6
v 0.1 1 0.6
v -0.2 0.7 0.5
v -0.2 0.8 0.5
v -0.1 0.8 0.5
v -0.1 1.5 0.5
v 0 0.8 0.5
v 0 1.5 0.5
v 0.1 0.7 0.5
v 0.1 0.8 0.5
v -0.1 1.5 0.4
v -0.1 1.6 0.4
v 0 1.5 0.4
v 0 1.6 0.4
v -0.1 1.6 0.1
v -0.1 1.7 0.1
v 0 1.6 0.1
v 0 1.7 0.1
v -0.2 1.5 0
v -0.2 1.6 0
v -0.1 1.3 0
v -0.1 1.4 0
v -0.1 1.5 0
v 0 1.3 0
v 0 1.4 0
v 0 1.5 0
v 0.1 1.5 0
v 0.1 1.6 0
v -0.1 0.7 0.8
v 0 0.7 0.8
v -0.2 0.7 0.7
v -0.1 0.7 0.7
v 0 0.7 0.7
v 0.1 0.7 0.7
v -0.2 0.7 0.5
v 0.1 0.7 0.5
v -0.2 0.9 0.9
v -0.1 0.9 0.9
v -0.2 0.9 0.8
v -0.1 0.9 0.8
v -0.2 1.1 0.8
v -0.1 1.1 0.8
v 0 1.1 0.8
v -0.2 1.1 0.7
v -0.1 1.1 0.7
v 0 1.1 0.7
v -0.1 1.3 0.1
v 0 1.3 0.1
v -0.1 1.3 0
v 0 1.3 0
v -0.1 1.5 0.7
v 0 1.5 0.7
v -0.1 1.5 0.6
v 0 1.5 0.6
v -0.1 1.5 0.5
v 0 1.5 0.5
v -0.1 1.5 0.4
v 0 1.5 0.4
v -0.1 1.5 0.2
v 0 1.5 0.2
v -0.2 1.5 0.1
v -0.1 1.5 0.1
v 0 1.5 0.1
v 0.1 1.5 0.1
v -0.2 1.5 0
v -0.1 1.5 0
v 0 1.5 0
v 0.1 1.5 0
v -0.1 1.6 0.4
v 0 1.6 0.4
v -0.1 1.6 0.2
v 0 1.6 0.2
v -0.2 0.8 0.6
v -0.1 0.8 0.6
v 0 0.8 0.6
v 0.1 0.8 0.6
v -0.2 0.8 0.5
v -0.1 0.8 0.5
v 0 0.8 0.5
v 0.1 0.8 0.5
v -0.1 0.9 0.8
v 0 0.9 0.8
v -0.1 0.9 0.7
v 0 0.9 0.7
v -0.2 1 0.7
v -0.1 1 0.7
v 0 1 0.7
v 0.1 1 0.7
v -0.2 1 0.6
v -0.1 1 0.6
v 0 1 0.6
v 0.1 1 0.6
v -0.2 1.1 0.9
v -0.1 1.1 0.9
v -0.2 1.1 0.8
v -0.1 1.1 0.8
v -0.1 1.1 0.7
v 0 1.1 0.7
v -0.1 1.1 0.6
v 0 1.1 0.6
v -0.2 1.2 0.8
v -0.1 1.2 0.8
v -0.2 1.2 0.7
v -0.1 1.2 0.7
v -0.1 1.5 0.8
v 0 1.5 0.8
v -0.1 1.5 0.7
v 0 1.5 0.7
v -0.1 1.6 0.7
v 0 1.6 0.7
v -0.1 1.6 0.6
v 0 1.6 0.6
v -0.2 1.6 0.1
v -0.1 1.6 0.1
v 0 1.6 0.1
v 0.1 1.6 0.1
v -0.2 1.6 0
v 0.1 1.6 0
v -0.1 1.7 0.6
v 0 1.7 0.6
v -0.1 1.7 0.5
v 0 1.7 0.5
v -0.1 1.7 0.1
v 0 1.7 0.1

# faces
f 3/3/1 2/3/1 1/3/1
f 4/3/1 2/3/1 3/3/1
f 7/3/1 3/3/1 1/3/1
f 8/3/1 3/3/1 7/3/1
f 9/1/1 6/1/1 5/1/1
f 10/1/1 6/1/1 9/1/1
f 12/1/1 11/1/1 10/1/1
f 13/1/1 11/1/1 12/1/1
f 16/3/1 15/3/1 14/3/1
f 17/3/1 15/3/1 16/3/1
f 20/3/1 19/3/1 18/3/1
f 21/3/1 19/3/1 20/3/1
f 24/1/1 21/1/1 20/1/1
f 25/1/1 21/1/1 24/1/1
f 27/3/1 23/3/1 22/3/1
f 28/3/1 27/3/1 26/3/1
f 29/3/1 23/3/1 27/3/1
f 29/3/1 27/3/1 28/3/1
f 34/2/1 33/2/1 32/2/1
f 35/2/1 33/2/1 34/2/1
f 36/1/1 31/1/1 30/1/1
f 37/1/1 31/1/1 36/1/1
f 38/3/1 23/3/1 29/3/1
f 39/3/1 23/3/1 38/3/1
f 42/3/1 35/3/1 34/3/1
f 43/3/1 35/3/1 42/3/1
f 44/1/1 38/1/1 37/1/1
f 45/3/1 40/3/1 39/3/1
f 45/1/1 38/1/1 44/1/1
f 45/3/1 39/3/1 38/3/1
f 46/3/1 40/3/1 45/3/1
f 47/3/1 40/3/1 46/3/1
f 48/3/1 42/3/1 41/3/1
f 49/3/1 42/3/1 48/3/1
f 50/1/1 46/1/1 45/1/1
f 51/3/1 47/3/1 46/3/1
f 51/1/1 46/1/1 50/1/1
f 51/3/1 49/3/1 48/3/1
f 51/3/1 48/3/1 47/3/1
f 52/3/1 49/3/1 51/3/1
f 53/1/2 54/1/2 55/1/2
f 55/1/2 54/1/2 56/1/2
f 57/3/2 58/3/2 59/3/2
f 59/3/2 58/3/2 60/3/2
f 59/1/2 60/1/2 63/1/2
f 63/1/2 60/1/2 64/1/2
f 61/3/2 62/3/2 66/3/2
f 65/3/2 66/3/2 68/3/2
f 66/3/2 62/3/2 69/3/2
f 68/3/2 66/3/2 69/3/2
f 70/2/2 71/2/2 72/2/2
f 72/2/2 71/2/2 73/2/2
f 67/1/2 68/1/2 74/1/2
f 74/1/2 68/1/2 75/1/2
f 69/3/2 62/3/2 76/3/2
f 76/3/2 62/3/2 77/3/2
f 72/3/2 73/3/2 80/3/2
f 80/3/2 73/3/2 81/3/2
f 75/1/2 76/1/2 82/1/2
f 77/3/2 78/3/2 83/3/2
f 82/1/2 76/1/2 83/1/2
f 76/3/2 77/3/2 83/3/2
f 83/3/2 78/3/2 84/3/2
f 84/3/2 78/3/2 85/3/2
f 79/3/2 80/3/2 86/3/2
f 86/3/2 80/3/2 87/3/2
f 83/1/2 84/1/2 88/1/2
f 84/3/2 85/3/2 89/3/2
f 88/1/2 84/1/2 89/1/2
f 86/3/2 87/3/2 89/3/2
f 85/3/2 86/3/2 89/3/2
f 89/3/2 87/3/2 90/3/2
f 91/3/2 92/3/2 93/3/2
f 93/3/2 92/3/2 94/3/2
f 91/3/2 93/3/2 95/3/2
f 95/3/2 93/3/2 96/3/2
f 97/3/2 98/3/2 99/3/2
f 99/3/2 98/3/2 100/3/2
f 103/1/3 102/1/3 101/1/3
f 104/1/3 102/1/3 103/1/3
f 110/1/3 106/1/3 105/1/3
f 111/1/3 106/1/3 110/1/3
f 113/3/3 108/3/3 107/3/3
f 114/1/3 109/1/3 108/1/3
f 114/3/3 108/3/3 113/3/3
f 115/1/3 109/1/3 114/1/3
f 116/1/3 112/1/3 111/1/3
f 116/1/3 111/1/3 110/1/3
f 117/1/3 112/1/3 116/1/3
f 120/3/3 119/3/3 118/3/3
f 121/3/3 119/3/3 120/3/3
f 122/3/3 119/3/3 121/3/3
f 123/3/3 119/3/3 122/3/3
f 129/2/3 123/2/3 122/2/3
f 130/3/3 124/3/3 123/3/3
f 130/2/3 123/2/3 129/2/3
f 131/3/3 124/3/3 130/3/3
f 132/1/3 126/1/3 125/1/3
f 133/1/3 126/1/3 132/1/3
f 134/3/3 129/3/3 128/3/3
f 134/3/3 128/3/3 127/3/3
f 134/3/3 130/3/3 129/3/3
f 135/3/3 130/3/3 134/3/3
f 140/3/3 137/3/3 136/3/3
f 141/3/3 137/3/3 140/3/3
f 142/1/3 139/1/3 138/1/3
f 143/1/3 139/1/3 142/1/3
f 146/3/3 145/3/3 144/3/3
f 147/3/3 145/3/3 146/3/3
f 152/3/3 149/3/3 148/3/3
f 153/3/3 149/3/3 152/3/3
f 154/2/3 151/2/3 150/2/3
f 155/3/3 152/3/3 151/3/3
f 155/2/3 151/2/3 154/2/3
f 156/3/3 152/3/3 155/3/3
f 158/3/3 157/3/3 156/3/3
f 159/3/3 157/3/3 158/3/3
f 160/1/4 161/1/4 162/1/4
f 162/1/4 161/1/4 163/1/4
f 164/1/4 165/1/4 166/1/4
f 166/1/4 165/1/4 167/1/4
f 166/1/4 167/1/4 169/1/4
f 167/1/4 168/1/4 169/1/4
f 169/1/4 168/1/4 170/1/4
f 171/3/4 172/3/4 173/3/4
f 173/3/4 172/3/4 174/3/4
f 175/3/4 176/3/4 177/3/4
f 177/3/4 176/3/4 178/3/4
f 179/3/4 180/3/4 181/3/4
f 179/3/4 181/3/4 183/3/4
f 181/3/4 182/3/4 183/3/4
f 183/3/4 182/3/4 184/3/4
f 179/3/4 183/3/4 185/3/4
f 185/3/4 183/3/4 186/3/4
f 187/3/4 188/3/4 189/3/4
f 189/3/4 188/3/4 190/3/4
f 191/3/4 192/3/4 193/3/4
f 193/3/4 192/3/4 194/3/4
f 195/3/4 196/3/4 199/3/4
f 197/2/4 198/2/4 200/2/4
f 198/3/4 199/3/4 201/3/4
f 200/2/4 198/2/4 201/2/4
f 199/3/4 196/3/4 202/3/4
f 201/3/4 199/3/4 202/3/4
f 202/3/4 196/3/4 203/3/4
f 203/3/4 196/3/4 204/3/4
f 208/3/5 206/3/5 205/3/5
f 209/3/5 206/3/5 208/3/5
f 211/3/5 208/3/5 207/3/5
f 211/3/5 210/3/5 209/3/5
f 211/3/5 209/3/5 208/3/5
f 212/3/5 210/3/5 211/3/5
f 215/1/5 214/1/5 213/1/5
f 216/1/5 214/1/5 215/1/5
f 220/1/5 218/1/5 217/1/5
f 220/1/5 219/1/5 218/1/5
f 221/1/5 219/1/5 220/1/5
f 222/1/5 219/1/5 221/1/5
f 225/2/5 224/2/5 223/2/5
f 226/2/5 224/2/5 225/2/5
f 229/1/5 228/1/5 227/1/5
f 230/1/5 228/1/5 229/1/5
f 233/3/5 232/3/5 231/3/5
f 234/3/5 232/3/5 233/3/5
f 238/3/5 236/3/5 235/3/5
f 239/3/5 236/3/5 238/3/5
f 241/3/5 238/3/5 237/3/5
f 242/3/5 238/3/5 241/3/5
f 243/3/5 240/3/5 239/3/5
f 244/3/5 240/3/5 243/3/5
f 247/3/5 246/3/5 245/3/5
f 248/3/5 246/3/5 247/3/5
f 249/3/6 250/3/6 253/3/6
f 253/3/6 250/3/6 254/3/6
f 251/3/6 252/3/6 255/3/6
f 255/3/6 252/3/6 256/3/6
f 257/1/6 258/1/6 259/1/6
f 259/1/6 258/1/6 260/1/6
f 261/3/6 262/3/6 265/3/6
f 265/3/6 262/3/6 266/3/6
f 263/3/6 264/3/6 267/3/6
f 267/3/6 264/3/6 268/3/6
f 269/1/6 270/1/6 271/1/6
f 271/1/6 270/1/6 272/1/6
f 273/3/6 274/3/6 275/3/6
f 275/3/6 274/3/6 276/3/6
f 277/1/6 278/1/6 279/1/6
f 279/1/6 278/1/6 280/1/6
f 281/1/6 282/1/6 283/1/6
f 283/1/6 282/1/6 284/1/6
f 285/1/6 286/1/6 287/1/6
f 287/1/6 286/1/6 288/1/6
f 290/3/6 291/3/6 293/3/6
f 291/3/6 292/3/6 293/3/6
f 289/3/6 290/3/6 293/3/6
f 293/3/6 292/3/6 294/3/6
f 295/1/6 296/1/6 297/1/6
f 297/1/6 296/1/6 298/1/6
f 297/3/6 298/3/6 299/3/6
f 299/3/6 298/3/6 300/3/6
