# MagicaVoxel @ Ephtracy

# group
o printer

# material
mtllib Combiner-1-printer.mtl
usemtl palette

# normals
vn -1 0 0
vn 1 0 0
vn 0 0 1
vn 0 0 -1
vn 0 -1 0
vn 0 1 0

# texcoords
vt 0.794922 0.5
vt 0.978516 0.5
vt 0.990234 0.5

# verts
v -0.2 0.7 0.7
v -0.2 0.7 0.5
v -0.2 0.8 0.6
v -0.2 0.8 0.5
v -0.2 0.9 0.9
v -0.2 0.9 0.8
v -0.2 1 0.7
v -0.2 1 0.6
v -0.2 1.1 0.9
v -0.2 1.1 0.8
v -0.2 1.1 0.7
v -0.2 1.2 0.8
v -0.2 1.2 0.7
v -0.2 1.5 0.1
v -0.2 1.5 0
v -0.2 1.6 0.1
v -0.2 1.6 0
v -0.1 0.7 0.8
v -0.1 0.7 0.7
v -0.1 0.8 0.8
v -0.1 0.8 0.7
v -0.1 0.8 0.6
v -0.1 0.8 0.5
v -0.1 0.9 0.8
v -0.1 0.9 0.7
v -0.1 1 0.7
v -0.1 1 0.6
v -0.1 1.1 0.7
v -0.1 1.1 0.6
v -0.1 1.2 0.8
v -0.1 1.2 0.7
v -0.1 1.3 0.1
v -0.1 1.3 0
v -0.1 1.4 0.1
v -0.1 1.4 0
v -0.1 1.5 0.8
v -0.1 1.5 0.7
v -0.1 1.5 0.6
v -0.1 1.5 0.5
v -0.1 1.5 0.4
v -0.1 1.5 0.2
v -0.1 1.5 0.1
v -0.1 1.5 0
v -0.1 1.6 0.7
v -0.1 1.6 0.6
v -0.1 1.6 0.5
v -0.1 1.6 0.4
v -0.1 1.6 0.2
v -0.1 1.6 0.1
v -0.1 1.7 0.6
v -0.1 1.7 0.5
v -0.1 1.7 0.1
v -0.1 1 0.9
v -0.1 1 0.8
v -0.1 1.1 0.9
v -0.1 1.1 0.8
v 0 0.7 0.8
v 0 0.7 0.7
v 0 0.8 0.8
v 0 0.8 0.7
v 0 0.8 0.6
v 0 0.8 0.5
v 0 0.9 0.9
v 0 0.9 0.8
v 0 0.9 0.7
v 0 1 0.9
v 0 1 0.8
v 0 1 0.7
v 0 1 0.6
v 0 1.1 0.8
v 0 1.1 0.7
v 0 1.1 0.6
v 0 1.3 0.1
v 0 1.3 0
v 0 1.4 0.1
v 0 1.4 0
v 0 1.5 0.8
v 0 1.5 0.7
v 0 1.5 0.6
v 0 1.5 0.5
v 0 1.5 0.4
v 0 1.5 0.2
v 0 1.5 0.1
v 0 1.5 0
v 0 1.6 0.7
v 0 1.6 0.6
v 0 1.6 0.5
v 0 1.6 0.4
v 0 1.6 0.2
v 0 1.6 0.1
v 0 1.7 0.6
v 0 1.7 0.5
v 0 1.7 0.1
v 0.1 0.7 0.7
v 0.1 0.7 0.5
v 0.1 0.8 0.6
v 0.1 0.8 0.5
v 0.1 1 0.7
v 0.1 1 0.6
v 0.1 1.5 0.1
v 0.1 1.5 0
v 0.1 1.6 0.1
v 0.1 1.6 0
v -0.2 0.9 0.9
v -0.2 1.1 0.9
v -0.1 1 0.9
v -0.1 1.1 0.9
v 0 0.9 0.9
v 0 1 0.9
v -0.2 1.1 0.8
v -0.2 1.2 0.8
v -0.1 0.7 0.8
v -0.1 0.8 0.8
v -0.1 0.9 0.8
v -0.1 1.1 0.8
v -0.1 1.2 0.8
v -0.1 1.5 0.8
v 0 0.7 0.8
v 0 0.8 0.8
v 0 0.9 0.8
v 0 1.1 0.8
v 0 1.5 0.8
v -0.2 0.7 0.7
v -0.2 1 0.7
v -0.1 0.7 0.7
v -0.1 0.8 0.7
v -0.1 0.9 0.7
v -0.1 1 0.7
v -0.1 1.1 0.7
v -0.1 1.5 0.7
v -0.1 1.6 0.7
v 0 0.7 0.7
v 0 0.8 0.7
v 0 0.9 0.7
v 0 1 0.7
v 0 1.1 0.7
v 0 1.5 0.7
v 0 1.6 0.7
v 0.1 0.7 0.7
v 0.1 1 0.7
v -0.1 1.1 0.6
v -0.1 1.5 0.6
v -0.1 1.6 0.6
v -0.1 1.7 0.6
v 0 1.1 0.6
v 0 1.5 0.6
v 0 1.6 0.6
v 0 1.7 0.6
v -0.1 1.5 0.2
v -0.1 1.6 0.2
v 0 1.5 0.2
v 0 1.6 0.2
v -0.2 1.5 0.1
v -0.2 1.6 0.1
v -0.1 1.3 0.1
v -0.1 1.4 0.1
v -0.1 1.5 0.1
v -0.1 1.6 0.1
v 0 1.3 0.1
v 0 1.4 0.1
v 0 1.5 0.1
v 0 1.6 0.1
v 0.1 1.5 0.1
v 0.1 1.6 0.1
v -0.2 0.9 0.8
v -0.2 1.1 0.8
v -0.1 0.9 0.8
v -0.1 1 0.8
v -0.1 1.1 0.8
v 0 0.9 0.8
v 0 1 0.8
v -0.2 1.1 0.7
v -0.2 1.2 0.7
v -0.1 1.1 0.7
v -0.1 1.2 0.7
v -0.1 1.5 0.7
v 0 1.1 0.7
v 0 1.5 0.7
v -0.2 0.8 0.6
v -0.2 1 0.6
v -0.1 0.8 0.6
v -0.1 1 0.6
v 0 0.8 0.6
v 0 1 0.6
v 0.1 0.8 0.6
v 0.1 1 0.6
v -0.2 0.7 0.5
v -0.2 0.8 0.5
v -0.1 0.8 0.5
v -0.1 1.5 0.5
v 0 0.8 0.5
v 0 1.5 0.5
v 0.1 0.7 0.5
v 0.1 0.8 0.5
v -0.1 1.5 0.4
v -0.1 1.6 0.4
v 0 1.5 0.4
v 0 1.6 0.4
v -0.1 1.6 0.1
v -0.1 1.7 0.1
v 0 1.6 0.1
v 0 1.7 0.1
v -0.2 1.5 0
v -0.2 1.6 0
v -0.1 1.3 0
v -0.1 1.4 0
v -0.1 1.5 0
v 0 1.3 0
v 0 1.4 0
v 0 1.5 0
v 0.1 1.5 0
v 0.1 1.6 0
v -0.1 0.7 0.8
v 0 0.7 0.8
v -0.2 0.7 0.7
v -0.1 0.7 0.7
v 0 0.7 0.7
v 0.1 0.7 0.7
v -0.2 0.7 0.5
v 0.1 0.7 0.5
v -0.2 0.9 0.9
v 0 0.9 0.9
v -0.2 0.9 0.8
v -0.1 0.9 0.8
v 0 0.9 0.8
v -0.2 1.1 0.8
v -0.1 1.1 0.8
v 0 1.1 0.8
v -0.2 1.1 0.7
v -0.1 1.1 0.7
v 0 1.1 0.7
v -0.1 1.3 0.1
v 0 1.3 0.1
v -0.1 1.3 0
v 0 1.3 0
v -0.1 1.5 0.7
v 0 1.5 0.7
v -0.1 1.5 0.6
v 0 1.5 0.6
v -0.1 1.5 0.5
v 0 1.5 0.5
v -0.1 1.5 0.4
v 0 1.5 0.4
v -0.1 1.5 0.2
v 0 1.5 0.2
v -0.2 1.5 0.1
v -0.1 1.5 0.1
v 0 1.5 0.1
v 0.1 1.5 0.1
v -0.2 1.5 0
v -0.1 1.5 0
v 0 1.5 0
v 0.1 1.5 0
v -0.1 1.6 0.4
v 0 1.6 0.4
v -0.1 1.6 0.2
v 0 1.6 0.2
v -0.2 0.8 0.6
v -0.1 0.8 0.6
v 0 0.8 0.6
v 0.1 0.8 0.6
v -0.2 0.8 0.5
v -0.1 0.8 0.5
v 0 0.8 0.5
v 0.1 0.8 0.5
v -0.1 0.9 0.8
v 0 0.9 0.8
v -0.1 0.9 0.7
v 0 0.9 0.7
v -0.1 1 0.9
v 0 1 0.9
v -0.1 1 0.8
v 0 1 0.8
v -0.2 1 0.7
v -0.1 1 0.7
v 0 1 0.7
v 0.1 1 0.7
v -0.2 1 0.6
v -0.1 1 0.6
v 0 1 0.6
v 0.1 1 0.6
v -0.2 1.1 0.9
v -0.1 1.1 0.9
v -0.2 1.1 0.8
v -0.1 1.1 0.8
v -0.1 1.1 0.7
v 0 1.1 0.7
v -0.1 1.1 0.6
v 0 1.1 0.6
v -0.2 1.2 0.8
v -0.1 1.2 0.8
v -0.2 1.2 0.7
v -0.1 1.2 0.7
v -0.1 1.5 0.8
v 0 1.5 0.8
v -0.1 1.5 0.7
v 0 1.5 0.7
v -0.1 1.6 0.7
v 0 1.6 0.7
v -0.1 1.6 0.6
v 0 1.6 0.6
v -0.2 1.6 0.1
v -0.1 1.6 0.1
v 0 1.6 0.1
v 0.1 1.6 0.1
v -0.2 1.6 0
v 0.1 1.6 0
v -0.1 1.7 0.6
v 0 1.7 0.6
v -0.1 1.7 0.5
v 0 1.7 0.5
v -0.1 1.7 0.1
v 0 1.7 0.1

# faces
f 3/3/1 2/3/1 1/3/1
f 4/3/1 2/3/1 3/3/1
f 7/3/1 3/3/1 1/3/1
f 8/3/1 3/3/1 7/3/1
f 9/1/1 6/1/1 5/1/1
f 10/1/1 6/1/1 9/1/1
f 12/1/1 11/1/1 10/1/1
f 13/1/1 11/1/1 12/1/1
f 16/3/1 15/3/1 14/3/1
f 17/3/1 15/3/1 16/3/1
f 20/3/1 19/3/1 18/3/1
f 21/3/1 19/3/1 20/3/1
f 24/1/1 21/1/1 20/1/1
f 25/1/1 21/1/1 24/1/1
f 27/3/1 23/3/1 22/3/1
f 28/3/1 27/3/1 26/3/1
f 29/3/1 23/3/1 27/3/1
f 29/3/1 27/3/1 28/3/1
f 34/2/1 33/2/1 32/2/1
f 35/2/1 33/2/1 34/2/1
f 36/1/1 31/1/1 30/1/1
f 37/1/1 31/1/1 36/1/1
f 38/3/1 23/3/1 29/3/1
f 39/3/1 23/3/1 38/3/1
f 42/3/1 35/3/1 34/3/1
f 43/3/1 35/3/1 42/3/1
f 44/1/1 38/1/1 37/1/1
f 45/3/1 40/3/1 39/3/1
f 45/1/1 38/1/1 44/1/1
f 45/3/1 39/3/1 38/3/1
f 46/3/1 40/3/1 45/3/1
f 47/3/1 40/3/1 46/3/1
f 48/3/1 42/3/1 41/3/1
f 49/3/1 42/3/1 48/3/1
f 50/1/1 46/1/1 45/1/1
f 51/3/1 47/3/1 46/3/1
f 51/1/1 46/1/1 50/1/1
f 51/3/1 49/3/1 48/3/1
f 51/3/1 48/3/1 47/3/1
f 52/3/1 49/3/1 51/3/1
f 53/1/2 54/1/2 55/1/2
f 55/1/2 54/1/2 56/1/2
f 57/3/2 58/3/2 59/3/2
f 59/3/2 58/3/2 60/3/2
f 59/1/2 60/1/2 64/1/2
f 64/1/2 60/1/2 65/1/2
f 63/1/2 64/1/2 66/1/2
f 66/1/2 64/1/2 67/1/2
f 61/3/2 62/3/2 69/3/2
f 68/3/2 69/3/2 71/3/2
f 69/3/2 62/3/2 72/3/2
f 71/3/2 69/3/2 72/3/2
f 73/2/2 74/2/2 75/2/2
f 75/2/2 74/2/2 76/2/2
f 70/1/2 71/1/2 77/1/2
f 77/1/2 71/1/2 78/1/2
f 72/3/2 62/3/2 79/3/2
f 79/3/2 62/3/2 80/3/2
f 75/3/2 76/3/2 83/3/2
f 83/3/2 76/3/2 84/3/2
f 78/1/2 79/1/2 85/1/2
f 80/3/2 81/3/2 86/3/2
f 85/1/2 79/1/2 86/1/2
f 79/3/2 80/3/2 86/3/2
f 86/3/2 81/3/2 87/3/2
f 87/3/2 81/3/2 88/3/2
f 82/3/2 83/3/2 89/3/2
f 89/3/2 83/3/2 90/3/2
f 86/1/2 87/1/2 91/1/2
f 87/3/2 88/3/2 92/3/2
f 91/1/2 87/1/2 92/1/2
f 89/3/2 90/3/2 92/3/2
f 88/3/2 89/3/2 92/3/2
f 92/3/2 90/3/2 93/3/2
f 94/3/2 95/3/2 96/3/2
f 96/3/2 95/3/2 97/3/2
f 94/3/2 96/3/2 98/3/2
f 98/3/2 96/3/2 99/3/2
f 100/3/2 101/3/2 102/3/2
f 102/3/2 101/3/2 103/3/2
f 106/1/3 105/1/3 104/1/3
f 107/1/3 105/1/3 106/1/3
f 108/1/3 106/1/3 104/1/3
f 109/1/3 106/1/3 108/1/3
f 115/1/3 111/1/3 110/1/3
f 116/1/3 111/1/3 115/1/3
f 118/3/3 113/3/3 112/3/3
f 119/1/3 114/1/3 113/1/3
f 119/3/3 113/3/3 118/3/3
f 120/1/3 114/1/3 119/1/3
f 121/1/3 117/1/3 116/1/3
f 121/1/3 116/1/3 115/1/3
f 122/1/3 117/1/3 121/1/3
f 125/3/3 124/3/3 123/3/3
f 126/3/3 124/3/3 125/3/3
f 127/3/3 124/3/3 126/3/3
f 128/3/3 124/3/3 127/3/3
f 134/2/3 128/2/3 127/2/3
f 135/3/3 129/3/3 128/3/3
f 135/2/3 128/2/3 134/2/3
f 136/3/3 129/3/3 135/3/3
f 137/1/3 131/1/3 130/1/3
f 138/1/3 131/1/3 137/1/3
f 139/3/3 134/3/3 133/3/3
f 139/3/3 133/3/3 132/3/3
f 139/3/3 135/3/3 134/3/3
f 140/3/3 135/3/3 139/3/3
f 145/3/3 142/3/3 141/3/3
f 146/3/3 142/3/3 145/3/3
f 147/1/3 144/1/3 143/1/3
f 148/1/3 144/1/3 147/1/3
f 151/3/3 150/3/3 149/3/3
f 152/3/3 150/3/3 151/3/3
f 157/3/3 154/3/3 153/3/3
f 158/3/3 154/3/3 157/3/3
f 159/2/3 156/2/3 155/2/3
f 160/3/3 157/3/3 156/3/3
f 160/2/3 156/2/3 159/2/3
f 161/3/3 157/3/3 160/3/3
f 163/3/3 162/3/3 161/3/3
f 164/3/3 162/3/3 163/3/3
f 165/1/4 166/1/4 167/1/4
f 167/1/4 166/1/4 168/1/4
f 168/1/4 166/1/4 169/1/4
f 167/1/4 168/1/4 170/1/4
f 170/1/4 168/1/4 171/1/4
f 172/1/4 173/1/4 174/1/4
f 174/1/4 173/1/4 175/1/4
f 174/1/4 175/1/4 177/1/4
f 175/1/4 176/1/4 177/1/4
f 177/1/4 176/1/4 178/1/4
f 179/3/4 180/3/4 181/3/4
f 181/3/4 180/3/4 182/3/4
f 183/3/4 184/3/4 185/3/4
f 185/3/4 184/3/4 186/3/4
f 187/3/4 188/3/4 189/3/4
f 187/3/4 189/3/4 191/3/4
f 189/3/4 190/3/4 191/3/4
f 191/3/4 190/3/4 192/3/4
f 187/3/4 191/3/4 193/3/4
f 193/3/4 191/3/4 194/3/4
f 195/3/4 196/3/4 197/3/4
f 197/3/4 196/3/4 198/3/4
f 199/3/4 200/3/4 201/3/4
f 201/3/4 200/3/4 202/3/4
f 203/3/4 204/3/4 207/3/4
f 205/2/4 206/2/4 208/2/4
f 206/3/4 207/3/4 209/3/4
f 208/2/4 206/2/4 209/2/4
f 207/3/4 204/3/4 210/3/4
f 209/3/4 207/3/4 210/3/4
f 210/3/4 204/3/4 211/3/4
f 211/3/4 204/3/4 212/3/4
f 216/3/5 214/3/5 213/3/5
f 217/3/5 214/3/5 216/3/5
f 219/3/5 216/3/5 215/3/5
f 219/3/5 218/3/5 217/3/5
f 219/3/5 217/3/5 216/3/5
f 220/3/5 218/3/5 219/3/5
f 223/1/5 222/1/5 221/1/5
f 224/1/5 222/1/5 223/1/5
f 225/1/5 222/1/5 224/1/5
f 229/1/5 227/1/5 226/1/5
f 229/1/5 228/1/5 227/1/5
f 230/1/5 228/1/5 229/1/5
f 231/1/5 228/1/5 230/1/5
f 234/2/5 233/2/5 232/2/5
f 235/2/5 233/2/5 234/2/5
f 238/1/5 237/1/5 236/1/5
f 239/1/5 237/1/5 238/1/5
f 242/3/5 241/3/5 240/3/5
f 243/3/5 241/3/5 242/3/5
f 247/3/5 245/3/5 244/3/5
f 248/3/5 245/3/5 247/3/5
f 250/3/5 247/3/5 246/3/5
f 251/3/5 247/3/5 250/3/5
f 252/3/5 249/3/5 248/3/5
f 253/3/5 249/3/5 252/3/5
f 256/3/5 255/3/5 254/3/5
f 257/3/5 255/3/5 256/3/5
f 258/3/6 259/3/6 262/3/6
f 262/3/6 259/3/6 263/3/6
f 260/3/6 261/3/6 264/3/6
f 264/3/6 261/3/6 265/3/6
f 266/1/6 267/1/6 268/1/6
f 268/1/6 267/1/6 269/1/6
f 270/1/6 271/1/6 272/1/6
f 272/1/6 271/1/6 273/1/6
f 274/3/6 275/3/6 278/3/6
f 278/3/6 275/3/6 279/3/6
f 276/3/6 277/3/6 280/3/6
f 280/3/6 277/3/6 281/3/6
f 282/1/6 283/1/6 284/1/6
f 284/1/6 283/1/6 285/1/6
f 286/3/6 287/3/6 288/3/6
f 288/3/6 287/3/6 289/3/6
f 290/1/6 291/1/6 292/1/6
f 292/1/6 291/1/6 293/1/6
f 294/1/6 295/1/6 296/1/6
f 296/1/6 295/1/6 297/1/6
f 298/1/6 299/1/6 300/1/6
f 300/1/6 299/1/6 301/1/6
f 303/3/6 304/3/6 306/3/6
f 304/3/6 305/3/6 306/3/6
f 302/3/6 303/3/6 306/3/6
f 306/3/6 305/3/6 307/3/6
f 308/1/6 309/1/6 310/1/6
f 310/1/6 309/1/6 311/1/6
f 310/3/6 311/3/6 312/3/6
f 312/3/6 311/3/6 313/3/6
