# MagicaVoxel @ Ephtracy

# group
o base

# material
mtllib Press-2-base.mtl
usemtl palette

# normals
vn -1 0 0
vn 1 0 0
vn 0 0 1
vn 0 0 -1
vn 0 -1 0
vn 0 1 0

# texcoords
vt 0.896484 0.5
vt 0.970703 0.5
vt 0.974609 0.5
vt 0.978516 0.5
vt 0.982422 0.5
vt 0.986328 0.5
vt 0.990234 0.5

# verts
v -1.1 0 1.1
v -1.1 0 1
v -1.1 0 -1
v -1.1 0 -1.1
v -1.1 0.9 1
v -1.1 0.9 -1
v -1.1 1 1.1
v -1.1 1 -1.1
v -1 0.1 1
v -1 0.1 -1
v -1 0.2 1
v -1 0.2 -1
v -1 0.3 -0.5
v -1 0.3 -0.9
v -1 0.4 -0.6
v -1 0.4 -0.8
v -1 0.5 -0.6
v -1 0.5 -0.8
v -1 0.6 -0.6
v -1 0.6 -0.8
v -1 0.7 -0.6
v -1 0.7 -0.8
v -1 0.8 -0.5
v -1 0.8 -0.9
v -1 0.9 1
v -1 0.9 -1
v -0.3 1 1
v -0.3 1 0.8
v -0.3 3.6 1
v -0.3 3.6 0.8
v 1 0 1.1
v 1 0 1
v 1 0 -1
v 1 0 -1.1
v 1 0.1 1
v 1 0.1 -1
v 1 0.2 1
v 1 0.2 -1
v 1 0.9 1.1
v 1 0.9 1
v 1 0.9 -1
v 1 0.9 -1.1
v -1 0 1.1
v -1 0 1
v -1 0 -1
v -1 0 -1.1
v -1 0.1 1
v -1 0.1 -1
v -1 0.2 1
v -1 0.2 -1
v -1 0.9 1.1
v -1 0.9 1
v -1 0.9 -1
v -1 0.9 -1.1
v 0.3 1 1
v 0.3 1 0.8
v 0.3 3.6 1
v 0.3 3.6 0.8
v 1 0.1 1
v 1 0.1 -1
v 1 0.2 1
v 1 0.2 -1
v 1 0.3 0.9
v 1 0.3 0.5
v 1 0.4 0.8
v 1 0.4 0.6
v 1 0.5 0.8
v 1 0.5 0.6
v 1 0.6 0.8
v 1 0.6 0.6
v 1 0.7 0.8
v 1 0.7 0.6
v 1 0.8 0.9
v 1 0.8 0.5
v 1 0.9 1
v 1 0.9 -1
v 1.1 0 1.1
v 1.1 0 1
v 1.1 0 -1
v 1.1 0 -1.1
v 1.1 0.9 1
v 1.1 0.9 -1
v 1.1 1 1.1
v 1.1 1 -1.1
v -1.1 0 1.1
v -1.1 1 1.1
v -1 0 1.1
v -1 0.9 1.1
v 1 0 1.1
v 1 0.9 1.1
v 1.1 0 1.1
v 1.1 1 1.1
v -1 0.1 1
v -1 0.2 1
v -1 0.9 1
v -0.3 1 1
v -0.3 3.6 1
v -0.2 0.3 1
v -0.2 0.4 1
v 0.2 0.3 1
v 0.2 0.4 1
v 0.3 1 1
v 0.3 3.6 1
v 1 0.1 1
v 1 0.2 1
v 1 0.9 1
v -1.1 0 -1
v -1.1 0.9 -1
v -1 0 -1
v -1 0.1 -1
v -1 0.2 -1
v -1 0.9 -1
v 1 0 -1
v 1 0.1 -1
v 1 0.2 -1
v 1 0.9 -1
v 1.1 0 -1
v 1.1 0.9 -1
v -1.1 0 1
v -1.1 0.9 1
v -1 0 1
v -1 0.1 1
v -1 0.2 1
v -1 0.9 1
v 1 0 1
v 1 0.1 1
v 1 0.2 1
v 1 0.9 1
v 1.1 0 1
v 1.1 0.9 1
v -0.3 1 0.8
v -0.3 3.6 0.8
v -0.2 1 0.8
v -0.2 3.5 0.8
v 0.2 1 0.8
v 0.2 3.5 0.8
v 0.3 1 0.8
v 0.3 3.6 0.8
v -1 0.1 -1
v -1 0.2 -1
v -1 0.9 -1
v 0.2 0.7 -1
v 0.2 0.8 -1
v 0.6 0.7 -1
v 0.6 0.8 -1
v 0.7 0.6 -1
v 0.7 0.8 -1
v 0.9 0.6 -1
v 0.9 0.8 -1
v 1 0.1 -1
v 1 0.2 -1
v 1 0.9 -1
v -1.1 0 -1.1
v -1.1 1 -1.1
v -1 0 -1.1
v -1 0.9 -1.1
v 1 0 -1.1
v 1 0.9 -1.1
v 1.1 0 -1.1
v 1.1 1 -1.1
v -1.1 0 1.1
v -1 0 1.1
v 1 0 1.1
v 1.1 0 1.1
v -1.1 0 1
v -1 0 1
v 1 0 1
v 1.1 0 1
v -1.1 0 -1
v -1 0 -1
v 1 0 -1
v 1.1 0 -1
v -1.1 0 -1.1
v -1 0 -1.1
v 1 0 -1.1
v 1.1 0 -1.1
v -1 0.1 1
v 1 0.1 1
v -1 0.1 -1
v 1 0.1 -1
v -1 0.9 1.1
v 1 0.9 1.1
v -1.1 0.9 1
v -1 0.9 1
v 1 0.9 1
v 1.1 0.9 1
v -1.1 0.9 -1
v -1 0.9 -1
v 1 0.9 -1
v 1.1 0.9 -1
v -1 0.9 -1.1
v 1 0.9 -1.1
v -1.1 1 1.1
v 1.1 1 1.1
v -0.3 1 1
v 0.3 1 1
v -0.3 1 0.8
v -0.2 1 0.8
v 0.2 1 0.8
v 0.3 1 0.8
v -0.7 1 0.5
v 0.6 1 0.5
v -0.6 1 0.4
v 0.5 1 0.4
v -0.6 1 -0.8
v 0.5 1 -0.8
v -0.7 1 -0.9
v 0.6 1 -0.9
v -1.1 1 -1.1
v 1.1 1 -1.1
v -0.3 3.6 1
v 0.3 3.6 1
v -0.3 3.6 0.8
v 0.3 3.6 0.8

# faces
f 5/7/1 2/7/1 1/7/1
f 6/7/1 4/7/1 3/7/1
f 7/7/1 5/7/1 1/7/1
f 7/7/1 6/7/1 5/7/1
f 8/7/1 4/7/1 6/7/1
f 8/7/1 6/7/1 7/7/1
f 11/7/1 10/7/1 9/7/1
f 12/7/1 10/7/1 11/7/1
f 13/2/1 12/2/1 11/2/1
f 14/2/1 12/2/1 13/2/1
f 15/3/1 14/3/1 13/3/1
f 16/3/1 14/3/1 15/3/1
f 17/3/1 15/3/1 13/3/1
f 17/4/1 16/4/1 15/4/1
f 18/3/1 14/3/1 16/3/1
f 18/4/1 16/4/1 17/4/1
f 19/3/1 17/3/1 13/3/1
f 19/3/1 18/3/1 17/3/1
f 20/3/1 14/3/1 18/3/1
f 20/3/1 18/3/1 19/3/1
f 21/3/1 19/3/1 13/3/1
f 21/4/1 20/4/1 19/4/1
f 22/3/1 14/3/1 20/3/1
f 22/4/1 20/4/1 21/4/1
f 23/2/1 13/2/1 11/2/1
f 23/3/1 21/3/1 13/3/1
f 23/3/1 22/3/1 21/3/1
f 24/3/1 14/3/1 22/3/1
f 24/3/1 22/3/1 23/3/1
f 24/2/1 12/2/1 14/2/1
f 25/2/1 23/2/1 11/2/1
f 25/2/1 24/2/1 23/2/1
f 26/2/1 12/2/1 24/2/1
f 26/2/1 24/2/1 25/2/1
f 29/7/1 28/7/1 27/7/1
f 30/7/1 28/7/1 29/7/1
f 35/7/1 32/7/1 31/7/1
f 36/7/1 34/7/1 33/7/1
f 37/7/1 35/7/1 31/7/1
f 38/7/1 34/7/1 36/7/1
f 39/7/1 37/7/1 31/7/1
f 40/7/1 37/7/1 39/7/1
f 41/7/1 34/7/1 38/7/1
f 42/7/1 34/7/1 41/7/1
f 43/7/2 44/7/2 47/7/2
f 45/7/2 46/7/2 48/7/2
f 43/7/2 47/7/2 49/7/2
f 48/7/2 46/7/2 50/7/2
f 43/7/2 49/7/2 51/7/2
f 51/7/2 49/7/2 52/7/2
f 50/7/2 46/7/2 53/7/2
f 53/7/2 46/7/2 54/7/2
f 55/7/2 56/7/2 57/7/2
f 57/7/2 56/7/2 58/7/2
f 59/7/2 60/7/2 61/7/2
f 61/7/2 60/7/2 62/7/2
f 61/2/2 62/2/2 63/2/2
f 63/2/2 62/2/2 64/2/2
f 63/4/2 64/4/2 65/4/2
f 65/4/2 64/4/2 66/4/2
f 63/4/2 65/4/2 67/4/2
f 65/5/2 66/5/2 67/5/2
f 66/4/2 64/4/2 68/4/2
f 67/5/2 66/5/2 68/5/2
f 63/4/2 67/4/2 69/4/2
f 67/4/2 68/4/2 69/4/2
f 68/4/2 64/4/2 70/4/2
f 69/4/2 68/4/2 70/4/2
f 63/4/2 69/4/2 71/4/2
f 69/5/2 70/5/2 71/5/2
f 70/4/2 64/4/2 72/4/2
f 71/5/2 70/5/2 72/5/2
f 61/2/2 63/2/2 73/2/2
f 63/4/2 71/4/2 73/4/2
f 71/4/2 72/4/2 73/4/2
f 72/4/2 64/4/2 74/4/2
f 73/4/2 72/4/2 74/4/2
f 64/2/2 62/2/2 74/2/2
f 61/2/2 73/2/2 75/2/2
f 73/2/2 74/2/2 75/2/2
f 74/2/2 62/2/2 76/2/2
f 75/2/2 74/2/2 76/2/2
f 77/7/2 78/7/2 81/7/2
f 79/7/2 80/7/2 82/7/2
f 77/7/2 81/7/2 83/7/2
f 81/7/2 82/7/2 83/7/2
f 82/7/2 80/7/2 84/7/2
f 83/7/2 82/7/2 84/7/2
f 87/7/3 86/7/3 85/7/3
f 88/7/3 86/7/3 87/7/3
f 90/7/3 86/7/3 88/7/3
f 91/7/3 90/7/3 89/7/3
f 92/7/3 86/7/3 90/7/3
f 92/7/3 90/7/3 91/7/3
f 98/2/3 95/2/3 94/2/3
f 99/2/3 95/2/3 98/2/3
f 100/2/3 98/2/3 94/2/3
f 100/3/3 99/3/3 98/3/3
f 101/2/3 95/2/3 99/2/3
f 101/3/3 99/3/3 100/3/3
f 102/7/3 97/7/3 96/7/3
f 103/7/3 97/7/3 102/7/3
f 104/7/3 94/7/3 93/7/3
f 105/2/3 100/2/3 94/2/3
f 105/7/3 94/7/3 104/7/3
f 105/2/3 101/2/3 100/2/3
f 106/2/3 95/2/3 101/2/3
f 106/2/3 101/2/3 105/2/3
f 109/7/3 108/7/3 107/7/3
f 110/7/3 108/7/3 109/7/3
f 111/7/3 108/7/3 110/7/3
f 112/7/3 108/7/3 111/7/3
f 117/7/3 114/7/3 113/7/3
f 117/7/3 116/7/3 115/7/3
f 117/7/3 115/7/3 114/7/3
f 118/7/3 116/7/3 117/7/3
f 119/7/4 120/7/4 121/7/4
f 121/7/4 120/7/4 122/7/4
f 122/7/4 120/7/4 123/7/4
f 123/7/4 120/7/4 124/7/4
f 125/7/4 126/7/4 129/7/4
f 127/7/4 128/7/4 129/7/4
f 126/7/4 127/7/4 129/7/4
f 129/7/4 128/7/4 130/7/4
f 131/7/4 132/7/4 133/7/4
f 133/7/4 132/7/4 134/7/4
f 133/2/4 134/2/4 135/2/4
f 134/7/4 132/7/4 136/7/4
f 135/2/4 134/2/4 136/2/4
f 135/7/4 136/7/4 137/7/4
f 136/7/4 132/7/4 138/7/4
f 137/7/4 136/7/4 138/7/4
f 140/2/4 141/2/4 142/2/4
f 142/2/4 141/2/4 143/2/4
f 140/2/4 142/2/4 144/2/4
f 142/3/4 143/3/4 144/3/4
f 143/2/4 141/2/4 145/2/4
f 144/3/4 143/3/4 145/3/4
f 140/2/4 144/2/4 146/2/4
f 144/2/4 145/2/4 146/2/4
f 145/2/4 141/2/4 147/2/4
f 146/2/4 145/2/4 147/2/4
f 140/2/4 146/2/4 148/2/4
f 146/1/4 147/1/4 148/1/4
f 147/2/4 141/2/4 149/2/4
f 148/1/4 147/1/4 149/1/4
f 139/7/4 140/7/4 150/7/4
f 140/2/4 148/2/4 151/2/4
f 150/7/4 140/7/4 151/7/4
f 148/2/4 149/2/4 151/2/4
f 149/2/4 141/2/4 152/2/4
f 151/2/4 149/2/4 152/2/4
f 153/7/4 154/7/4 155/7/4
f 155/7/4 154/7/4 156/7/4
f 156/7/4 154/7/4 158/7/4
f 157/7/4 158/7/4 159/7/4
f 158/7/4 154/7/4 160/7/4
f 159/7/4 158/7/4 160/7/4
f 165/7/5 162/7/5 161/7/5
f 166/7/5 162/7/5 165/7/5
f 167/7/5 164/7/5 163/7/5
f 168/7/5 164/7/5 167/7/5
f 173/7/5 170/7/5 169/7/5
f 174/7/5 170/7/5 173/7/5
f 175/7/5 172/7/5 171/7/5
f 176/7/5 172/7/5 175/7/5
f 179/7/5 178/7/5 177/7/5
f 180/7/5 178/7/5 179/7/5
f 184/7/5 182/7/5 181/7/5
f 185/7/5 182/7/5 184/7/5
f 187/7/5 184/7/5 183/7/5
f 188/7/5 184/7/5 187/7/5
f 189/7/5 186/7/5 185/7/5
f 190/7/5 186/7/5 189/7/5
f 191/7/5 189/7/5 188/7/5
f 192/7/5 189/7/5 191/7/5
f 193/7/6 194/7/6 195/7/6
f 195/7/6 194/7/6 196/7/6
f 193/7/6 195/7/6 197/7/6
f 196/7/6 194/7/6 200/7/6
f 198/7/6 199/7/6 201/7/6
f 199/7/6 200/7/6 201/7/6
f 193/7/6 197/7/6 201/7/6
f 197/7/6 198/7/6 201/7/6
f 200/7/6 194/7/6 202/7/6
f 201/7/6 200/7/6 202/7/6
f 201/6/6 202/6/6 203/6/6
f 203/6/6 202/6/6 204/6/6
f 201/6/6 203/6/6 205/6/6
f 203/5/6 204/5/6 205/5/6
f 204/6/6 202/6/6 206/6/6
f 205/5/6 204/5/6 206/5/6
f 193/7/6 201/7/6 207/7/6
f 201/6/6 205/6/6 207/6/6
f 205/6/6 206/6/6 207/6/6
f 206/6/6 202/6/6 208/6/6
f 207/6/6 206/6/6 208/6/6
f 202/7/6 194/7/6 208/7/6
f 193/7/6 207/7/6 209/7/6
f 207/7/6 208/7/6 209/7/6
f 208/7/6 194/7/6 210/7/6
f 209/7/6 208/7/6 210/7/6
f 211/7/6 212/7/6 213/7/6
f 213/7/6 212/7/6 214/7/6
