# MagicaVoxel @ Ephtracy

# group
o press

# material
mtllib Press-1-press.mtl
usemtl palette

# normals
vn -1 0 0
vn 1 0 0
vn 0 0 1
vn 0 0 -1
vn 0 -1 0
vn 0 1 0

# texcoords
vt 0.970703 0.5
vt 0.990234 0.5

# verts
v -0.6 2.7 0.4
v -0.6 2.7 -0.8
v -0.6 2.8 0.4
v -0.6 2.8 -0.8
v -0.6 2.9 0.4
v -0.6 2.9 -0.8
v -0.6 3 0.4
v -0.6 3 -0.8
v -0.6 3.1 0.4
v -0.6 3.1 -0.8
v -0.6 3.2 0.4
v -0.6 3.2 -0.8
v -0.5 2.8 0.3
v -0.5 2.8 -0.7
v -0.5 2.9 0.5
v -0.5 2.9 0.4
v -0.5 2.9 0.3
v -0.5 2.9 -0.7
v -0.5 3 0.5
v -0.5 3 0.4
v -0.5 3 0.3
v -0.5 3 -0.7
v -0.5 3.1 0.3
v -0.5 3.1 -0.7
v -0.4 2.9 1.1
v -0.4 2.9 0.5
v -0.4 3 1.1
v -0.4 3 0.5
v -0.1 3 0.8
v -0.1 3 0.5
v -0.1 3.1 0.6
v -0.1 3.1 0.5
v -0.1 3.2 0.7
v -0.1 3.2 0.6
v -0.1 3.3 0.8
v -0.1 3.3 0.7
v 0.3 2.9 1
v 0.3 2.9 0.8
v 0.3 3 1
v 0.3 3 0.8
v -0.3 2.9 1
v -0.3 2.9 0.8
v -0.3 3 1
v -0.3 3 0.8
v 0.1 3 0.8
v 0.1 3 0.5
v 0.1 3.1 0.6
v 0.1 3.1 0.5
v 0.1 3.2 0.7
v 0.1 3.2 0.6
v 0.1 3.3 0.8
v 0.1 3.3 0.7
v 0.4 2.9 1.1
v 0.4 2.9 0.5
v 0.4 3 1.1
v 0.4 3 0.5
v 0.5 2.8 0.3
v 0.5 2.8 -0.7
v 0.5 2.9 0.5
v 0.5 2.9 0.4
v 0.5 2.9 0.3
v 0.5 2.9 -0.7
v 0.5 3 0.5
v 0.5 3 0.4
v 0.5 3 0.3
v 0.5 3 -0.7
v 0.5 3.1 0.3
v 0.5 3.1 -0.7
v 0.6 2.7 0.4
v 0.6 2.7 -0.8
v 0.6 2.8 0.4
v 0.6 2.8 -0.8
v 0.6 2.9 0.4
v 0.6 2.9 -0.8
v 0.6 3 0.4
v 0.6 3 -0.8
v 0.6 3.1 0.4
v 0.6 3.1 -0.8
v 0.6 3.2 0.4
v 0.6 3.2 -0.8
v -0.4 2.9 1.1
v -0.4 3 1.1
v 0.4 2.9 1.1
v 0.4 3 1.1
v -0.3 2.9 0.8
v -0.3 3 0.8
v -0.1 3 0.8
v -0.1 3.3 0.8
v 0.1 3 0.8
v 0.1 3.3 0.8
v 0.3 2.9 0.8
v 0.3 3 0.8
v -0.5 2.9 0.5
v -0.5 3 0.5
v -0.4 2.9 0.5
v -0.4 3 0.5
v 0.4 2.9 0.5
v 0.4 3 0.5
v 0.5 2.9 0.5
v 0.5 3 0.5
v -0.6 2.7 0.4
v -0.6 2.8 0.4
v -0.6 2.9 0.4
v -0.6 3 0.4
v -0.6 3.1 0.4
v -0.6 3.2 0.4
v -0.5 2.9 0.4
v -0.5 3 0.4
v 0.5 2.9 0.4
v 0.5 3 0.4
v 0.6 2.7 0.4
v 0.6 2.8 0.4
v 0.6 2.9 0.4
v 0.6 3 0.4
v 0.6 3.1 0.4
v 0.6 3.2 0.4
v -0.5 2.8 0.3
v -0.5 2.9 0.3
v -0.5 3 0.3
v -0.5 3.1 0.3
v 0.5 2.8 0.3
v 0.5 2.9 0.3
v 0.5 3 0.3
v 0.5 3.1 0.3
v -0.3 2.9 1
v -0.3 3 1
v 0.3 2.9 1
v 0.3 3 1
v -0.1 3.2 0.7
v -0.1 3.3 0.7
v 0.1 3.2 0.7
v 0.1 3.3 0.7
v -0.1 3.1 0.6
v -0.1 3.2 0.6
v 0.1 3.1 0.6
v 0.1 3.2 0.6
v -0.1 3 0.5
v -0.1 3.1 0.5
v 0.1 3 0.5
v 0.1 3.1 0.5
v -0.5 2.8 -0.7
v -0.5 2.9 -0.7
v -0.5 3 -0.7
v -0.5 3.1 -0.7
v 0.5 2.8 -0.7
v 0.5 2.9 -0.7
v 0.5 3 -0.7
v 0.5 3.1 -0.7
v -0.6 2.7 -0.8
v -0.6 2.8 -0.8
v -0.6 2.9 -0.8
v -0.6 3 -0.8
v -0.6 3.1 -0.8
v -0.6 3.2 -0.8
v 0.6 2.7 -0.8
v 0.6 2.8 -0.8
v 0.6 2.9 -0.8
v 0.6 3 -0.8
v 0.6 3.1 -0.8
v 0.6 3.2 -0.8
v -0.6 2.7 0.4
v 0.6 2.7 0.4
v -0.6 2.7 -0.8
v 0.6 2.7 -0.8
v -0.4 2.9 1.1
v 0.4 2.9 1.1
v -0.3 2.9 1
v 0.3 2.9 1
v -0.3 2.9 0.8
v 0.3 2.9 0.8
v -0.5 2.9 0.5
v -0.4 2.9 0.5
v 0.4 2.9 0.5
v 0.5 2.9 0.5
v -0.6 2.9 0.4
v -0.5 2.9 0.4
v 0.5 2.9 0.4
v 0.6 2.9 0.4
v -0.5 2.9 0.3
v 0.5 2.9 0.3
v -0.5 2.9 -0.7
v 0.5 2.9 -0.7
v -0.6 2.9 -0.8
v 0.6 2.9 -0.8
v -0.6 3.1 0.4
v 0.6 3.1 0.4
v -0.5 3.1 0.3
v 0.5 3.1 0.3
v -0.5 3.1 -0.7
v 0.5 3.1 -0.7
v -0.6 3.1 -0.8
v 0.6 3.1 -0.8
v -0.6 2.8 0.4
v 0.6 2.8 0.4
v -0.5 2.8 0.3
v 0.5 2.8 0.3
v -0.5 2.8 -0.7
v 0.5 2.8 -0.7
v -0.6 2.8 -0.8
v 0.6 2.8 -0.8
v -0.4 3 1.1
v 0.4 3 1.1
v -0.3 3 1
v 0.3 3 1
v -0.3 3 0.8
v -0.1 3 0.8
v 0.1 3 0.8
v 0.3 3 0.8
v -0.5 3 0.5
v -0.4 3 0.5
v -0.1 3 0.5
v 0.1 3 0.5
v 0.4 3 0.5
v 0.5 3 0.5
v -0.6 3 0.4
v -0.5 3 0.4
v 0.5 3 0.4
v 0.6 3 0.4
v -0.5 3 0.3
v 0.5 3 0.3
v -0.5 3 -0.7
v 0.5 3 -0.7
v -0.6 3 -0.8
v 0.6 3 -0.8
v -0.1 3.1 0.6
v 0.1 3.1 0.6
v -0.1 3.1 0.5
v 0.1 3.1 0.5
v -0.1 3.2 0.7
v 0.1 3.2 0.7
v -0.1 3.2 0.6
v 0.1 3.2 0.6
v -0.6 3.2 0.4
v 0.6 3.2 0.4
v -0.6 3.2 -0.8
v 0.6 3.2 -0.8
v -0.1 3.3 0.8
v 0.1 3.3 0.8
v -0.1 3.3 0.7
v 0.1 3.3 0.7

# faces
f 3/2/1 2/2/1 1/2/1
f 4/2/1 2/2/1 3/2/1
f 7/2/1 6/2/1 5/2/1
f 8/2/1 6/2/1 7/2/1
f 11/2/1 10/2/1 9/2/1
f 12/2/1 10/2/1 11/2/1
f 17/1/1 14/1/1 13/1/1
f 18/1/1 14/1/1 17/1/1
f 19/2/1 16/2/1 15/2/1
f 20/2/1 16/2/1 19/2/1
f 23/1/1 22/1/1 21/1/1
f 24/1/1 22/1/1 23/1/1
f 27/2/1 26/2/1 25/2/1
f 28/2/1 26/2/1 27/2/1
f 31/2/1 30/2/1 29/2/1
f 32/2/1 30/2/1 31/2/1
f 33/2/1 31/2/1 29/2/1
f 34/2/1 31/2/1 33/2/1
f 35/2/1 33/2/1 29/2/1
f 36/2/1 33/2/1 35/2/1
f 39/2/1 38/2/1 37/2/1
f 40/2/1 38/2/1 39/2/1
f 41/2/2 42/2/2 43/2/2
f 43/2/2 42/2/2 44/2/2
f 45/2/2 46/2/2 47/2/2
f 47/2/2 46/2/2 48/2/2
f 45/2/2 47/2/2 49/2/2
f 49/2/2 47/2/2 50/2/2
f 45/2/2 49/2/2 51/2/2
f 51/2/2 49/2/2 52/2/2
f 53/2/2 54/2/2 55/2/2
f 55/2/2 54/2/2 56/2/2
f 57/1/2 58/1/2 61/1/2
f 61/1/2 58/1/2 62/1/2
f 59/2/2 60/2/2 63/2/2
f 63/2/2 60/2/2 64/2/2
f 65/1/2 66/1/2 67/1/2
f 67/1/2 66/1/2 68/1/2
f 69/2/2 70/2/2 71/2/2
f 71/2/2 70/2/2 72/2/2
f 73/2/2 74/2/2 75/2/2
f 75/2/2 74/2/2 76/2/2
f 77/2/2 78/2/2 79/2/2
f 79/2/2 78/2/2 80/2/2
f 83/2/3 82/2/3 81/2/3
f 84/2/3 82/2/3 83/2/3
f 87/2/3 86/2/3 85/2/3
f 89/2/3 87/2/3 85/2/3
f 89/2/3 88/2/3 87/2/3
f 90/2/3 88/2/3 89/2/3
f 91/2/3 89/2/3 85/2/3
f 92/2/3 89/2/3 91/2/3
f 95/2/3 94/2/3 93/2/3
f 96/2/3 94/2/3 95/2/3
f 99/2/3 98/2/3 97/2/3
f 100/2/3 98/2/3 99/2/3
f 107/2/3 104/2/3 103/2/3
f 108/2/3 104/2/3 107/2/3
f 111/2/3 102/2/3 101/2/3
f 112/2/3 102/2/3 111/2/3
f 113/2/3 110/2/3 109/2/3
f 114/2/3 110/2/3 113/2/3
f 115/2/3 106/2/3 105/2/3
f 116/2/3 106/2/3 115/2/3
f 121/1/3 118/1/3 117/1/3
f 122/1/3 118/1/3 121/1/3
f 123/1/3 120/1/3 119/1/3
f 124/1/3 120/1/3 123/1/3
f 125/2/4 126/2/4 127/2/4
f 127/2/4 126/2/4 128/2/4
f 129/2/4 130/2/4 131/2/4
f 131/2/4 130/2/4 132/2/4
f 133/2/4 134/2/4 135/2/4
f 135/2/4 134/2/4 136/2/4
f 137/2/4 138/2/4 139/2/4
f 139/2/4 138/2/4 140/2/4
f 141/1/4 142/1/4 145/1/4
f 145/1/4 142/1/4 146/1/4
f 143/1/4 144/1/4 147/1/4
f 147/1/4 144/1/4 148/1/4
f 149/2/4 150/2/4 155/2/4
f 155/2/4 150/2/4 156/2/4
f 151/2/4 152/2/4 157/2/4
f 157/2/4 152/2/4 158/2/4
f 153/2/4 154/2/4 159/2/4
f 159/2/4 154/2/4 160/2/4
f 163/2/5 162/2/5 161/2/5
f 164/2/5 162/2/5 163/2/5
f 167/2/5 166/2/5 165/2/5
f 168/2/5 166/2/5 167/2/5
f 169/2/5 167/2/5 165/2/5
f 170/2/5 166/2/5 168/2/5
f 172/2/5 169/2/5 165/2/5
f 172/2/5 170/2/5 169/2/5
f 173/2/5 166/2/5 170/2/5
f 173/2/5 170/2/5 172/2/5
f 176/2/5 172/2/5 171/2/5
f 176/2/5 174/2/5 173/2/5
f 176/2/5 173/2/5 172/2/5
f 177/2/5 174/2/5 176/2/5
f 179/2/5 176/2/5 175/2/5
f 179/2/5 178/2/5 177/2/5
f 179/2/5 177/2/5 176/2/5
f 180/2/5 178/2/5 179/2/5
f 181/2/5 179/2/5 175/2/5
f 182/2/5 178/2/5 180/2/5
f 183/2/5 181/2/5 175/2/5
f 183/2/5 182/2/5 181/2/5
f 184/2/5 178/2/5 182/2/5
f 184/2/5 182/2/5 183/2/5
f 187/2/5 186/2/5 185/2/5
f 188/2/5 186/2/5 187/2/5
f 189/2/5 187/2/5 185/2/5
f 190/2/5 186/2/5 188/2/5
f 191/2/5 189/2/5 185/2/5
f 191/2/5 190/2/5 189/2/5
f 192/2/5 186/2/5 190/2/5
f 192/2/5 190/2/5 191/2/5
f 193/2/6 194/2/6 195/2/6
f 195/2/6 194/2/6 196/2/6
f 193/2/6 195/2/6 197/2/6
f 196/2/6 194/2/6 198/2/6
f 193/2/6 197/2/6 199/2/6
f 197/2/6 198/2/6 199/2/6
f 198/2/6 194/2/6 200/2/6
f 199/2/6 198/2/6 200/2/6
f 201/2/6 202/2/6 203/2/6
f 203/2/6 202/2/6 204/2/6
f 201/2/6 203/2/6 205/2/6
f 204/2/6 202/2/6 208/2/6
f 205/2/6 206/2/6 210/2/6
f 201/2/6 205/2/6 210/2/6
f 210/2/6 206/2/6 211/2/6
f 207/2/6 208/2/6 212/2/6
f 208/2/6 202/2/6 213/2/6
f 212/2/6 208/2/6 213/2/6
f 210/2/6 211/2/6 216/2/6
f 213/2/6 214/2/6 216/2/6
f 212/2/6 213/2/6 216/2/6
f 211/2/6 212/2/6 216/2/6
f 209/2/6 210/2/6 216/2/6
f 216/2/6 214/2/6 217/2/6
f 215/2/6 216/2/6 219/2/6
f 217/2/6 218/2/6 219/2/6
f 216/2/6 217/2/6 219/2/6
f 219/2/6 218/2/6 220/2/6
f 215/2/6 219/2/6 221/2/6
f 220/2/6 218/2/6 222/2/6
f 215/2/6 221/2/6 223/2/6
f 221/2/6 222/2/6 223/2/6
f 222/2/6 218/2/6 224/2/6
f 223/2/6 222/2/6 224/2/6
f 225/2/6 226/2/6 227/2/6
f 227/2/6 226/2/6 228/2/6
f 229/2/6 230/2/6 231/2/6
f 231/2/6 230/2/6 232/2/6
f 233/2/6 234/2/6 235/2/6
f 235/2/6 234/2/6 236/2/6
f 237/2/6 238/2/6 239/2/6
f 239/2/6 238/2/6 240/2/6
