# MagicaVoxel @ Ephtracy

# group
o plane

# material
mtllib Projector-0-plane.mtl
usemtl palette

# normals
vn -1 0 0
vn 1 0 0
vn 0 0 1
vn 0 0 -1
vn 0 -1 0
vn 0 1 0

# texcoords
vt 0.896484 0.5
vt 0.900391 0.5

# verts
v -0.2 0 1.4
v -0.2 0 -1.4
v -0.2 0.1 1.4
v -0.2 0.1 1.3
v -0.2 0.1 -1.3
v -0.2 0.1 -1.4
v -0.2 0.2 1.3
v -0.2 0.2 -1.3
v -0.1 0.2 1.3
v -0.1 0.2 -1.3
v -0.1 2.3 0.1
v -0.1 2.3 -0.0999999
v -0.1 2.5 0.3
v -0.1 2.5 0.1
v -0.1 2.5 -0.0999999
v -0.1 2.5 -0.3
v -0.1 2.7 0.3
v -0.1 2.7 0.1
v -0.1 2.7 -0.0999999
v -0.1 2.7 -0.3
v -0.1 2.9 0.1
v -0.1 2.9 -0.0999999
v -0.1 4.2 1.3
v -0.1 4.2 -1.3
v 0 0 1.4
v 0 0 1.3
v 0 0 -1.3
v 0 0 -1.4
v 0 0.1 1.4
v 0 0.1 1.3
v 0 0.1 -1.3
v 0 0.1 -1.4
v -0.1 0 1.4
v -0.1 0 1.3
v -0.1 0 -1.3
v -0.1 0 -1.4
v -0.1 0.1 1.4
v -0.1 0.1 1.3
v -0.1 0.1 -1.3
v -0.1 0.1 -1.4
v 0 0.2 1.3
v 0 0.2 -1.3
v 0 2.3 0.1
v 0 2.3 -0.0999999
v 0 2.5 0.3
v 0 2.5 0.1
v 0 2.5 -0.0999999
v 0 2.5 -0.3
v 0 2.7 0.3
v 0 2.7 0.1
v 0 2.7 -0.0999999
v 0 2.7 -0.3
v 0 2.9 0.1
v 0 2.9 -0.0999999
v 0 4.2 1.3
v 0 4.2 -1.3
v 0.1 0 1.4
v 0.1 0 -1.4
v 0.1 0.1 1.4
v 0.1 0.1 1.3
v 0.1 0.1 -1.3
v 0.1 0.1 -1.4
v 0.1 0.2 1.3
v 0.1 0.2 -1.3
v -0.2 0 1.4
v -0.2 0.1 1.4
v -0.1 0 1.4
v -0.1 0.1 1.4
v 0 0 1.4
v 0 0.1 1.4
v 0.1 0 1.4
v 0.1 0.1 1.4
v -0.2 0.1 1.3
v -0.2 0.2 1.3
v -0.1 0 1.3
v -0.1 0.1 1.3
v -0.1 0.2 1.3
v -0.1 4.2 1.3
v 0 0 1.3
v 0 0.1 1.3
v 0 0.2 1.3
v 0 4.2 1.3
v 0.1 0.1 1.3
v 0.1 0.2 1.3
v -0.2 0.1 -1.3
v -0.2 0.2 -1.3
v -0.1 0 -1.3
v -0.1 0.1 -1.3
v -0.1 0.2 -1.3
v -0.1 4.2 -1.3
v 0 0 -1.3
v 0 0.1 -1.3
v 0 0.2 -1.3
v 0 4.2 -1.3
v 0.1 0.1 -1.3
v 0.1 0.2 -1.3
v -0.2 0 -1.4
v -0.2 0.1 -1.4
v -0.1 0 -1.4
v -0.1 0.1 -1.4
v 0 0 -1.4
v 0 0.1 -1.4
v 0.1 0 -1.4
v 0.1 0.1 -1.4
v -0.2 0 1.4
v -0.1 0 1.4
v 0 0 1.4
v 0.1 0 1.4
v -0.1 0 1.3
v 0 0 1.3
v -0.1 0 -1.3
v 0 0 -1.3
v -0.2 0 -1.4
v -0.1 0 -1.4
v 0 0 -1.4
v 0.1 0 -1.4
v -0.2 0.1 1.4
v -0.1 0.1 1.4
v 0 0.1 1.4
v 0.1 0.1 1.4
v -0.2 0.1 1.3
v -0.1 0.1 1.3
v 0 0.1 1.3
v 0.1 0.1 1.3
v -0.2 0.1 -1.3
v -0.1 0.1 -1.3
v 0 0.1 -1.3
v 0.1 0.1 -1.3
v -0.2 0.1 -1.4
v -0.1 0.1 -1.4
v 0 0.1 -1.4
v 0.1 0.1 -1.4
v -0.2 0.2 1.3
v -0.1 0.2 1.3
v 0 0.2 1.3
v 0.1 0.2 1.3
v -0.2 0.2 -1.3
v -0.1 0.2 -1.3
v 0 0.2 -1.3
v 0.1 0.2 -1.3
v -0.1 4.2 1.3
v 0 4.2 1.3
v -0.1 4.2 -1.3
v 0 4.2 -1.3

# faces
f 3/1/1 2/1/1 1/1/1
f 4/1/1 2/1/1 3/1/1
f 5/1/1 2/1/1 4/1/1
f 6/1/1 2/1/1 5/1/1
f 7/1/1 5/1/1 4/1/1
f 8/1/1 5/1/1 7/1/1
f 11/1/1 10/1/1 9/1/1
f 12/1/1 10/1/1 11/1/1
f 13/1/1 11/1/1 9/1/1
f 14/2/1 12/2/1 11/2/1
f 14/1/1 11/1/1 13/1/1
f 15/1/1 10/1/1 12/1/1
f 15/2/1 12/2/1 14/2/1
f 16/1/1 10/1/1 15/1/1
f 17/2/1 14/2/1 13/2/1
f 17/1/1 13/1/1 9/1/1
f 17/2/1 16/2/1 15/2/1
f 17/2/1 15/2/1 14/2/1
f 18/2/1 16/2/1 17/2/1
f 19/2/1 16/2/1 18/2/1
f 20/1/1 10/1/1 16/1/1
f 20/2/1 16/2/1 19/2/1
f 21/2/1 19/2/1 18/2/1
f 21/1/1 18/1/1 17/1/1
f 22/1/1 20/1/1 19/1/1
f 22/2/1 19/2/1 21/2/1
f 23/1/1 17/1/1 9/1/1
f 23/1/1 21/1/1 17/1/1
f 23/1/1 22/1/1 21/1/1
f 24/1/1 10/1/1 20/1/1
f 24/1/1 22/1/1 23/1/1
f 24/1/1 20/1/1 22/1/1
f 29/1/1 26/1/1 25/1/1
f 30/1/1 26/1/1 29/1/1
f 31/1/1 28/1/1 27/1/1
f 32/1/1 28/1/1 31/1/1
f 33/1/2 34/1/2 37/1/2
f 37/1/2 34/1/2 38/1/2
f 35/1/2 36/1/2 39/1/2
f 39/1/2 36/1/2 40/1/2
f 41/1/2 42/1/2 43/1/2
f 43/1/2 42/1/2 44/1/2
f 41/1/2 43/1/2 45/1/2
f 43/2/2 44/2/2 46/2/2
f 45/1/2 43/1/2 46/1/2
f 44/1/2 42/1/2 47/1/2
f 46/2/2 44/2/2 47/2/2
f 47/1/2 42/1/2 48/1/2
f 45/2/2 46/2/2 49/2/2
f 41/1/2 45/1/2 49/1/2
f 47/2/2 48/2/2 49/2/2
f 46/2/2 47/2/2 49/2/2
f 49/2/2 48/2/2 50/2/2
f 50/2/2 48/2/2 51/2/2
f 48/1/2 42/1/2 52/1/2
f 51/2/2 48/2/2 52/2/2
f 50/2/2 51/2/2 53/2/2
f 49/1/2 50/1/2 53/1/2
f 51/1/2 52/1/2 54/1/2
f 53/2/2 51/2/2 54/2/2
f 41/1/2 49/1/2 55/1/2
f 49/1/2 53/1/2 55/1/2
f 53/1/2 54/1/2 55/1/2
f 52/1/2 42/1/2 56/1/2
f 55/1/2 54/1/2 56/1/2
f 54/1/2 52/1/2 56/1/2
f 57/1/2 58/1/2 59/1/2
f 59/1/2 58/1/2 60/1/2
f 60/1/2 58/1/2 61/1/2
f 61/1/2 58/1/2 62/1/2
f 60/1/2 61/1/2 63/1/2
f 63/1/2 61/1/2 64/1/2
f 67/1/3 66/1/3 65/1/3
f 68/1/3 66/1/3 67/1/3
f 71/1/3 70/1/3 69/1/3
f 72/1/3 70/1/3 71/1/3
f 76/1/3 74/1/3 73/1/3
f 77/1/3 74/1/3 76/1/3
f 79/1/3 76/1/3 75/1/3
f 79/1/3 78/1/3 77/1/3
f 79/1/3 77/1/3 76/1/3
f 80/1/3 78/1/3 79/1/3
f 81/1/3 78/1/3 80/1/3
f 82/1/3 78/1/3 81/1/3
f 83/1/3 81/1/3 80/1/3
f 84/1/3 81/1/3 83/1/3
f 85/1/4 86/1/4 88/1/4
f 88/1/4 86/1/4 89/1/4
f 87/1/4 88/1/4 91/1/4
f 89/1/4 90/1/4 91/1/4
f 88/1/4 89/1/4 91/1/4
f 91/1/4 90/1/4 92/1/4
f 92/1/4 90/1/4 93/1/4
f 93/1/4 90/1/4 94/1/4
f 92/1/4 93/1/4 95/1/4
f 95/1/4 93/1/4 96/1/4
f 97/1/4 98/1/4 99/1/4
f 99/1/4 98/1/4 100/1/4
f 101/1/4 102/1/4 103/1/4
f 103/1/4 102/1/4 104/1/4
f 109/1/5 106/1/5 105/1/5
f 110/1/5 108/1/5 107/1/5
f 111/1/5 109/1/5 105/1/5
f 111/1/5 110/1/5 109/1/5
f 112/1/5 108/1/5 110/1/5
f 112/1/5 110/1/5 111/1/5
f 113/1/5 111/1/5 105/1/5
f 114/1/5 111/1/5 113/1/5
f 115/1/5 108/1/5 112/1/5
f 116/1/5 108/1/5 115/1/5
f 117/1/6 118/1/6 121/1/6
f 121/1/6 118/1/6 122/1/6
f 119/1/6 120/1/6 123/1/6
f 123/1/6 120/1/6 124/1/6
f 125/1/6 126/1/6 129/1/6
f 129/1/6 126/1/6 130/1/6
f 127/1/6 128/1/6 131/1/6
f 131/1/6 128/1/6 132/1/6
f 133/1/6 134/1/6 137/1/6
f 137/1/6 134/1/6 138/1/6
f 135/1/6 136/1/6 139/1/6
f 139/1/6 136/1/6 140/1/6
f 141/1/6 142/1/6 143/1/6
f 143/1/6 142/1/6 144/1/6
