# MagicaVoxel @ Ephtracy

# group
o 

# material
mtllib risingbubble.mtl
usemtl palette

# normals
vn -1 0 0
vn 1 0 0
vn 0 0 1
vn 0 0 -1
vn 0 -1 0
vn 0 1 0

# texcoords
vt 0.0917969 0.5
vt 0.845703 0.5
vt 0.849609 0.5
vt 0.853516 0.5

# verts
v 0.1 2 -0.2
v 0.1 2 -0.3
v 0.1 2 -0.4
v 0.1 2.1 -0.3
v 0.1 2.1 -0.4
v 0.1 2.2 -0.2
v 0.1 2.2 -0.3
v 0.1 2.2 -0.4
v 0.2 2 -0.1
v 0.2 2 -0.2
v 0.2 2 -0.4
v 0.2 2 -0.5
v 0.2 2.1 -0.1
v 0.2 2.1 -0.2
v 0.2 2.1 -0.4
v 0.2 2.2 -0.4
v 0.2 2.2 -0.5
v 0.3 2.1 -0.1
v 0.3 2.1 -0.2
v 0.3 2.2 -0.1
v 0.3 2.2 -0.2
v 0.3 2.2 -0.3
v 0.3 2.2 -0.4
v 0.3 2.3 -0.3
v 0.3 2.3 -0.4
v 0.4 2 -0.2
v 0.4 2 -0.4
v 0.4 2.1 -0.2
v 0.4 2.1 -0.3
v 0.4 2.2 -0.3
v 0.4 2.2 -0.4
v 0.2 2 -0.2
v 0.2 2 -0.3
v 0.2 2 -0.4
v 0.2 2.1 -0.2
v 0.2 2.1 -0.3
v 0.2 2.1 -0.4
v 0.2 2.2 -0.2
v 0.2 2.2 -0.3
v 0.2 2.2 -0.4
v 0.4 2 -0.1
v 0.4 2 -0.2
v 0.4 2 -0.4
v 0.4 2 -0.5
v 0.4 2.1 -0.2
v 0.4 2.2 -0.1
v 0.4 2.2 -0.2
v 0.4 2.2 -0.3
v 0.4 2.2 -0.4
v 0.4 2.2 -0.5
v 0.4 2.3 -0.3
v 0.4 2.3 -0.4
v 0.5 2 -0.2
v 0.5 2 -0.4
v 0.5 2.1 -0.2
v 0.5 2.1 -0.3
v 0.5 2.2 -0.3
v 0.5 2.2 -0.4
v 0.2 2 -0.1
v 0.2 2.1 -0.1
v 0.3 2 -0.1
v 0.3 2.1 -0.1
v 0.3 2.2 -0.1
v 0.4 2 -0.1
v 0.4 2.2 -0.1
v 0.1 2 -0.2
v 0.1 2.2 -0.2
v 0.2 2 -0.2
v 0.2 2.1 -0.2
v 0.2 2.2 -0.2
v 0.4 2 -0.2
v 0.4 2.1 -0.2
v 0.5 2 -0.2
v 0.5 2.1 -0.2
v 0.3 2.2 -0.3
v 0.3 2.3 -0.3
v 0.4 2.1 -0.3
v 0.4 2.2 -0.3
v 0.4 2.3 -0.3
v 0.5 2.1 -0.3
v 0.5 2.2 -0.3
v 0.2 2 -0.4
v 0.2 2.1 -0.4
v 0.2 2.2 -0.4
v 0.3 2.2 -0.4
v 0.4 2 -0.4
v 0.4 2.2 -0.4
v 0.2 2 -0.2
v 0.2 2.1 -0.2
v 0.3 2 -0.2
v 0.3 2.1 -0.2
v 0.3 2.2 -0.2
v 0.4 2 -0.2
v 0.4 2.1 -0.2
v 0.4 2.2 -0.2
v 0.1 2 -0.4
v 0.1 2.1 -0.4
v 0.1 2.2 -0.4
v 0.2 2 -0.4
v 0.2 2.1 -0.4
v 0.2 2.2 -0.4
v 0.3 2.2 -0.4
v 0.3 2.3 -0.4
v 0.4 2 -0.4
v 0.4 2.2 -0.4
v 0.4 2.3 -0.4
v 0.5 2 -0.4
v 0.5 2.2 -0.4
v 0.2 2 -0.5
v 0.2 2.2 -0.5
v 0.4 2 -0.5
v 0.4 2.2 -0.5
v 0.2 2 -0.1
v 0.3 2 -0.1
v 0.4 2 -0.1
v 0.1 2 -0.2
v 0.2 2 -0.2
v 0.3 2 -0.2
v 0.4 2 -0.2
v 0.5 2 -0.2
v 0.1 2 -0.3
v 0.2 2 -0.3
v 0.1 2 -0.4
v 0.2 2 -0.4
v 0.4 2 -0.4
v 0.5 2 -0.4
v 0.2 2 -0.5
v 0.4 2 -0.5
v 0.3 2.2 -0.3
v 0.4 2.2 -0.3
v 0.3 2.2 -0.4
v 0.4 2.2 -0.4
v 0.2 2.1 -0.1
v 0.3 2.1 -0.1
v 0.2 2.1 -0.2
v 0.3 2.1 -0.2
v 0.4 2.1 -0.2
v 0.5 2.1 -0.2
v 0.4 2.1 -0.3
v 0.5 2.1 -0.3
v 0.3 2.2 -0.1
v 0.4 2.2 -0.1
v 0.1 2.2 -0.2
v 0.2 2.2 -0.2
v 0.3 2.2 -0.2
v 0.4 2.2 -0.2
v 0.1 2.2 -0.3
v 0.2 2.2 -0.3
v 0.4 2.2 -0.3
v 0.5 2.2 -0.3
v 0.1 2.2 -0.4
v 0.2 2.2 -0.4
v 0.3 2.2 -0.4
v 0.4 2.2 -0.4
v 0.5 2.2 -0.4
v 0.2 2.2 -0.5
v 0.4 2.2 -0.5
v 0.3 2.3 -0.3
v 0.4 2.3 -0.3
v 0.3 2.3 -0.4
v 0.4 2.3 -0.4

# faces
f 4/1/1 2/1/1 1/1/1
f 4/3/1 3/3/1 2/3/1
f 5/3/1 3/3/1 4/3/1
f 6/1/1 4/1/1 1/1/1
f 7/2/1 5/2/1 4/2/1
f 7/1/1 4/1/1 6/1/1
f 8/2/1 5/2/1 7/2/1
f 13/4/1 10/4/1 9/4/1
f 14/4/1 10/4/1 13/4/1
f 15/3/1 12/3/1 11/3/1
f 16/3/1 12/3/1 15/3/1
f 17/3/1 12/3/1 16/3/1
f 20/1/1 19/1/1 18/1/1
f 21/1/1 19/1/1 20/1/1
f 24/3/1 23/3/1 22/3/1
f 25/3/1 23/3/1 24/3/1
f 28/3/1 27/3/1 26/3/1
f 29/3/1 27/3/1 28/3/1
f 30/3/1 27/3/1 29/3/1
f 31/3/1 27/3/1 30/3/1
f 32/1/2 33/1/2 35/1/2
f 33/3/2 34/3/2 36/3/2
f 35/1/2 33/1/2 36/1/2
f 36/3/2 34/3/2 37/3/2
f 35/1/2 36/1/2 38/1/2
f 36/2/2 37/2/2 39/2/2
f 38/1/2 36/1/2 39/1/2
f 39/2/2 37/2/2 40/2/2
f 41/1/2 42/1/2 45/1/2
f 41/1/2 45/1/2 46/1/2
f 46/1/2 45/1/2 47/1/2
f 43/3/2 44/3/2 49/3/2
f 49/3/2 44/3/2 50/3/2
f 48/3/2 49/3/2 51/3/2
f 51/3/2 49/3/2 52/3/2
f 53/3/2 54/3/2 55/3/2
f 55/3/2 54/3/2 56/3/2
f 56/3/2 54/3/2 57/3/2
f 57/3/2 54/3/2 58/3/2
f 61/4/3 60/4/3 59/4/3
f 62/4/3 60/4/3 61/4/3
f 64/1/3 62/1/3 61/1/3
f 64/1/3 63/1/3 62/1/3
f 65/1/3 63/1/3 64/1/3
f 68/1/3 67/1/3 66/1/3
f 69/1/3 67/1/3 68/1/3
f 70/1/3 67/1/3 69/1/3
f 73/3/3 72/3/3 71/3/3
f 74/3/3 72/3/3 73/3/3
f 78/3/3 76/3/3 75/3/3
f 79/3/3 76/3/3 78/3/3
f 80/3/3 78/3/3 77/3/3
f 81/3/3 78/3/3 80/3/3
f 85/3/3 83/3/3 82/3/3
f 85/3/3 84/3/3 83/3/3
f 86/3/3 85/3/3 82/3/3
f 87/3/3 85/3/3 86/3/3
f 88/4/4 89/4/4 90/4/4
f 90/4/4 89/4/4 91/4/4
f 90/1/4 91/1/4 93/1/4
f 91/1/4 92/1/4 93/1/4
f 93/1/4 92/1/4 94/1/4
f 94/1/4 92/1/4 95/1/4
f 96/3/4 97/3/4 99/3/4
f 97/2/4 98/2/4 100/2/4
f 99/3/4 97/3/4 100/3/4
f 100/2/4 98/2/4 101/2/4
f 102/3/4 103/3/4 105/3/4
f 105/3/4 103/3/4 106/3/4
f 104/3/4 105/3/4 107/3/4
f 107/3/4 105/3/4 108/3/4
f 109/3/4 110/3/4 111/3/4
f 111/3/4 110/3/4 112/3/4
f 117/4/5 114/4/5 113/4/5
f 118/1/5 115/1/5 114/1/5
f 118/4/5 114/4/5 117/4/5
f 119/1/5 115/1/5 118/1/5
f 121/1/5 117/1/5 116/1/5
f 122/1/5 117/1/5 121/1/5
f 123/3/5 122/3/5 121/3/5
f 124/3/5 122/3/5 123/3/5
f 125/3/5 120/3/5 119/3/5
f 126/3/5 120/3/5 125/3/5
f 127/3/5 125/3/5 124/3/5
f 128/3/5 125/3/5 127/3/5
f 131/3/5 130/3/5 129/3/5
f 132/3/5 130/3/5 131/3/5
f 133/4/6 134/4/6 135/4/6
f 135/4/6 134/4/6 136/4/6
f 137/3/6 138/3/6 139/3/6
f 139/3/6 138/3/6 140/3/6
f 141/1/6 142/1/6 145/1/6
f 145/1/6 142/1/6 146/1/6
f 143/1/6 144/1/6 147/1/6
f 147/1/6 144/1/6 148/1/6
f 147/2/6 148/2/6 151/2/6
f 151/2/6 148/2/6 152/2/6
f 149/3/6 150/3/6 154/3/6
f 154/3/6 150/3/6 155/3/6
f 152/3/6 153/3/6 156/3/6
f 153/3/6 154/3/6 156/3/6
f 156/3/6 154/3/6 157/3/6
f 158/3/6 159/3/6 160/3/6
f 160/3/6 159/3/6 161/3/6
