# MagicaVoxel @ Ephtracy

# group
o flame1

# material
mtllib Robot-0-flame1.mtl
usemtl palette

# normals
vn -1 0 0
vn 1 0 0
vn 0 0 1
vn 0 0 -1
vn 0 -1 0
vn 0 1 0

# texcoords
vt 0.779297 0.5

# verts
v -0.3 2.1 -1
v -0.3 2.1 -1.3
v -0.3 2.4 -1
v -0.3 2.4 -1.3
v -0.2 2 -1
v -0.2 2 -1.3
v -0.2 2.1 -1
v -0.2 2.1 -1.3
v -0.2 2.2 -1.3
v -0.2 2.2 -1.5
v -0.2 2.3 -1.4
v -0.2 2.3 -1.5
v -0.2 2.4 -1
v -0.2 2.4 -1.3
v -0.2 2.4 -1.4
v -0.2 2.5 -1
v -0.2 2.5 -1.3
v -0.1 2.1 -1.3
v -0.1 2.1 -1.6
v -0.1 2.2 -1.3
v -0.1 2.2 -1.5
v -0.1 2.2 -1.6
v -0.1 2.2 -1.9
v -0.1 2.3 -1.4
v -0.1 2.3 -1.5
v -0.1 2.3 -1.7
v -0.1 2.3 -1.9
v -0.1 2.4 -1.3
v -0.1 2.4 -1.4
v -0.1 2.4 -1.5
v -0.1 2.4 -1.7
v -0.1 2.5 -1.3
v -0.1 2.5 -1.5
v 0 2.1 -1.6
v 0 2.1 -1.7
v 0 2.2 -1.6
v 0 2.2 -1.7
v 0 2.2 -1.7
v 0 2.2 -1.9
v 0 2.3 -1.5
v 0 2.3 -1.7
v 0 2.3 -1.9
v 0 2.4 -1.3
v 0 2.4 -1.5
v 0 2.4 -1.7
v 0 2.5 -1.3
v 0 2.5 -1.5
v 0.1 2.1 -1.5
v 0.1 2.1 -1.7
v 0.1 2.2 -1.4
v 0.1 2.2 -1.5
v 0.1 2.3 -1.3
v 0.1 2.3 -1.4
v 0.1 2.3 -1.5
v 0.1 2.3 -1.7
v 0.1 2.4 -1.3
v 0.1 2.4 -1.5
v 0.2 2 -1
v 0.2 2 -1.3
v 0.2 2.1 -1
v 0.2 2.1 -1.3
v 0.2 2.1 -1.5
v 0.2 2.2 -1.4
v 0.2 2.2 -1.5
v 0.2 2.3 -1.3
v 0.2 2.3 -1.4
v 0.2 2.4 -1
v 0.2 2.4 -1.3
v 0.2 2.5 -1
v 0.2 2.5 -1.3
v 0.3 2.1 -1
v 0.3 2.1 -1.3
v 0.3 2.4 -1
v 0.3 2.4 -1.3
v -0.3 2.1 -1
v -0.3 2.4 -1
v -0.2 2 -1
v -0.2 2.1 -1
v -0.2 2.4 -1
v -0.2 2.5 -1
v 0.2 2 -1
v 0.2 2.1 -1
v 0.2 2.4 -1
v 0.2 2.5 -1
v 0.3 2.1 -1
v 0.3 2.4 -1
v -0.3 2.1 -1.3
v -0.3 2.4 -1.3
v -0.2 2 -1.3
v -0.2 2.1 -1.3
v -0.2 2.2 -1.3
v -0.2 2.4 -1.3
v -0.2 2.5 -1.3
v -0.1 2.1 -1.3
v -0.1 2.2 -1.3
v -0.1 2.4 -1.3
v -0.1 2.5 -1.3
v 0 2.4 -1.3
v 0 2.5 -1.3
v 0.1 2.3 -1.3
v 0.1 2.4 -1.3
v 0.2 2 -1.3
v 0.2 2.1 -1.3
v 0.2 2.3 -1.3
v 0.2 2.4 -1.3
v 0.2 2.5 -1.3
v 0.3 2.1 -1.3
v 0.3 2.4 -1.3
v -0.2 2.3 -1.4
v -0.2 2.4 -1.4
v -0.1 2.3 -1.4
v -0.1 2.4 -1.4
v 0.1 2.2 -1.4
v 0.1 2.3 -1.4
v 0.2 2.2 -1.4
v 0.2 2.3 -1.4
v -0.2 2.2 -1.5
v -0.2 2.3 -1.5
v -0.1 2.2 -1.5
v -0.1 2.3 -1.5
v -0.1 2.4 -1.5
v -0.1 2.5 -1.5
v 0 2.3 -1.5
v 0 2.4 -1.5
v 0 2.5 -1.5
v 0.1 2.1 -1.5
v 0.1 2.2 -1.5
v 0.1 2.3 -1.5
v 0.1 2.4 -1.5
v 0.2 2.1 -1.5
v 0.2 2.2 -1.5
v -0.1 2.1 -1.6
v -0.1 2.2 -1.6
v 0 2.1 -1.6
v 0 2.2 -1.6
v -0.1 2.3 -1.7
v -0.1 2.4 -1.7
v 0 2.1 -1.7
v 0 2.2 -1.7
v 0 2.3 -1.7
v 0 2.4 -1.7
v 0.1 2.1 -1.7
v 0.1 2.3 -1.7
v -0.1 2.2 -1.9
v -0.1 2.3 -1.9
v 0 2.2 -1.9
v 0 2.3 -1.9
v -0.2 2 -1
v 0.2 2 -1
v -0.2 2 -1.3
v 0.2 2 -1.3
v -0.3 2.1 -1
v -0.2 2.1 -1
v 0.2 2.1 -1
v 0.3 2.1 -1
v -0.3 2.1 -1.3
v -0.2 2.1 -1.3
v -0.1 2.1 -1.3
v 0.2 2.1 -1.3
v 0.3 2.1 -1.3
v 0.1 2.1 -1.5
v 0.2 2.1 -1.5
v -0.1 2.1 -1.6
v 0 2.1 -1.6
v 0 2.1 -1.7
v 0.1 2.1 -1.7
v -0.2 2.2 -1.3
v -0.1 2.2 -1.3
v -0.2 2.2 -1.5
v -0.1 2.2 -1.5
v -0.1 2.2 -1.6
v 0 2.2 -1.6
v 0 2.2 -1.7
v -0.1 2.2 -1.9
v 0 2.2 -1.9
v 0.1 2.2 -1.4
v 0.2 2.2 -1.4
v 0.1 2.2 -1.5
v 0.2 2.2 -1.5
v 0.1 2.3 -1.3
v 0.2 2.3 -1.3
v -0.2 2.3 -1.4
v -0.1 2.3 -1.4
v 0.1 2.3 -1.4
v 0.2 2.3 -1.4
v -0.2 2.3 -1.5
v -0.1 2.3 -1.5
v 0 2.3 -1.5
v 0.1 2.3 -1.5
v -0.1 2.3 -1.7
v 0 2.3 -1.7
v 0.1 2.3 -1.7
v -0.1 2.3 -1.9
v 0 2.3 -1.9
v -0.3 2.4 -1
v -0.2 2.4 -1
v 0.2 2.4 -1
v 0.3 2.4 -1
v -0.3 2.4 -1.3
v -0.2 2.4 -1.3
v -0.1 2.4 -1.3
v 0 2.4 -1.3
v 0.1 2.4 -1.3
v 0.2 2.4 -1.3
v 0.3 2.4 -1.3
v -0.2 2.4 -1.4
v -0.1 2.4 -1.4
v -0.1 2.4 -1.5
v 0 2.4 -1.5
v 0.1 2.4 -1.5
v -0.1 2.4 -1.7
v 0 2.4 -1.7
v -0.2 2.5 -1
v 0.2 2.5 -1
v -0.2 2.5 -1.3
v -0.1 2.5 -1.3
v 0 2.5 -1.3
v 0.2 2.5 -1.3
v -0.1 2.5 -1.5
v 0 2.5 -1.5

# faces
f 3/1/1 2/1/1 1/1/1
f 4/1/1 2/1/1 3/1/1
f 7/1/1 6/1/1 5/1/1
f 8/1/1 6/1/1 7/1/1
f 11/1/1 10/1/1 9/1/1
f 12/1/1 10/1/1 11/1/1
f 14/1/1 11/1/1 9/1/1
f 15/1/1 11/1/1 14/1/1
f 16/1/1 14/1/1 13/1/1
f 17/1/1 14/1/1 16/1/1
f 20/1/1 19/1/1 18/1/1
f 21/1/1 19/1/1 20/1/1
f 22/1/1 19/1/1 21/1/1
f 25/1/1 23/1/1 22/1/1
f 25/1/1 22/1/1 21/1/1
f 26/1/1 23/1/1 25/1/1
f 27/1/1 23/1/1 26/1/1
f 29/1/1 25/1/1 24/1/1
f 29/1/1 26/1/1 25/1/1
f 30/1/1 26/1/1 29/1/1
f 31/1/1 26/1/1 30/1/1
f 32/1/1 29/1/1 28/1/1
f 32/1/1 30/1/1 29/1/1
f 33/1/1 30/1/1 32/1/1
f 36/1/1 35/1/1 34/1/1
f 37/1/1 35/1/1 36/1/1
f 38/1/2 39/1/2 41/1/2
f 41/1/2 39/1/2 42/1/2
f 40/1/2 41/1/2 44/1/2
f 44/1/2 41/1/2 45/1/2
f 43/1/2 44/1/2 46/1/2
f 46/1/2 44/1/2 47/1/2
f 48/1/2 49/1/2 51/1/2
f 50/1/2 51/1/2 53/1/2
f 51/1/2 49/1/2 54/1/2
f 53/1/2 51/1/2 54/1/2
f 54/1/2 49/1/2 55/1/2
f 52/1/2 53/1/2 56/1/2
f 53/1/2 54/1/2 56/1/2
f 56/1/2 54/1/2 57/1/2
f 58/1/2 59/1/2 60/1/2
f 60/1/2 59/1/2 61/1/2
f 61/1/2 62/1/2 63/1/2
f 63/1/2 62/1/2 64/1/2
f 61/1/2 63/1/2 65/1/2
f 65/1/2 63/1/2 66/1/2
f 67/1/2 68/1/2 69/1/2
f 69/1/2 68/1/2 70/1/2
f 71/1/2 72/1/2 73/1/2
f 73/1/2 72/1/2 74/1/2
f 78/1/3 76/1/3 75/1/3
f 79/1/3 76/1/3 78/1/3
f 81/1/3 78/1/3 77/1/3
f 81/1/3 80/1/3 79/1/3
f 81/1/3 79/1/3 78/1/3
f 82/1/3 80/1/3 81/1/3
f 83/1/3 80/1/3 82/1/3
f 84/1/3 80/1/3 83/1/3
f 85/1/3 83/1/3 82/1/3
f 86/1/3 83/1/3 85/1/3
f 87/1/4 88/1/4 90/1/4
f 90/1/4 88/1/4 91/1/4
f 91/1/4 88/1/4 92/1/4
f 89/1/4 90/1/4 94/1/4
f 90/1/4 91/1/4 94/1/4
f 94/1/4 91/1/4 95/1/4
f 92/1/4 93/1/4 96/1/4
f 96/1/4 93/1/4 97/1/4
f 98/1/4 99/1/4 101/1/4
f 89/1/4 94/1/4 102/1/4
f 102/1/4 94/1/4 103/1/4
f 100/1/4 101/1/4 104/1/4
f 101/1/4 99/1/4 105/1/4
f 104/1/4 101/1/4 105/1/4
f 105/1/4 99/1/4 106/1/4
f 103/1/4 104/1/4 107/1/4
f 104/1/4 105/1/4 107/1/4
f 107/1/4 105/1/4 108/1/4
f 109/1/4 110/1/4 111/1/4
f 111/1/4 110/1/4 112/1/4
f 113/1/4 114/1/4 115/1/4
f 115/1/4 114/1/4 116/1/4
f 117/1/4 118/1/4 119/1/4
f 119/1/4 118/1/4 120/1/4
f 121/1/4 122/1/4 124/1/4
f 124/1/4 122/1/4 125/1/4
f 123/1/4 124/1/4 128/1/4
f 128/1/4 124/1/4 129/1/4
f 126/1/4 127/1/4 130/1/4
f 130/1/4 127/1/4 131/1/4
f 132/1/4 133/1/4 134/1/4
f 134/1/4 133/1/4 135/1/4
f 136/1/4 137/1/4 140/1/4
f 140/1/4 137/1/4 141/1/4
f 138/1/4 139/1/4 142/1/4
f 139/1/4 140/1/4 142/1/4
f 142/1/4 140/1/4 143/1/4
f 144/1/4 145/1/4 146/1/4
f 146/1/4 145/1/4 147/1/4
f 150/1/5 149/1/5 148/1/5
f 151/1/5 149/1/5 150/1/5
f 156/1/5 153/1/5 152/1/5
f 157/1/5 153/1/5 156/1/5
f 159/1/5 155/1/5 154/1/5
f 160/1/5 155/1/5 159/1/5
f 161/1/5 159/1/5 158/1/5
f 162/1/5 159/1/5 161/1/5
f 163/1/5 161/1/5 158/1/5
f 164/1/5 161/1/5 163/1/5
f 165/1/5 161/1/5 164/1/5
f 166/1/5 161/1/5 165/1/5
f 169/1/5 168/1/5 167/1/5
f 170/1/5 168/1/5 169/1/5
f 173/1/5 172/1/5 171/1/5
f 174/1/5 173/1/5 171/1/5
f 175/1/5 173/1/5 174/1/5
f 176/1/6 177/1/6 178/1/6
f 178/1/6 177/1/6 179/1/6
f 180/1/6 181/1/6 184/1/6
f 184/1/6 181/1/6 185/1/6
f 182/1/6 183/1/6 186/1/6
f 186/1/6 183/1/6 187/1/6
f 188/1/6 189/1/6 191/1/6
f 191/1/6 189/1/6 192/1/6
f 190/1/6 191/1/6 193/1/6
f 193/1/6 191/1/6 194/1/6
f 195/1/6 196/1/6 199/1/6
f 199/1/6 196/1/6 200/1/6
f 197/1/6 198/1/6 204/1/6
f 204/1/6 198/1/6 205/1/6
f 200/1/6 201/1/6 206/1/6
f 206/1/6 201/1/6 207/1/6
f 202/1/6 203/1/6 209/1/6
f 209/1/6 203/1/6 210/1/6
f 208/1/6 209/1/6 211/1/6
f 211/1/6 209/1/6 212/1/6
f 213/1/6 214/1/6 215/1/6
f 215/1/6 214/1/6 216/1/6
f 216/1/6 214/1/6 217/1/6
f 217/1/6 214/1/6 218/1/6
f 216/1/6 217/1/6 219/1/6
f 219/1/6 217/1/6 220/1/6
