# MagicaVoxel @ Ephtracy

# group
o 

# material
mtllib schmeddalueng.mtl
usemtl palette

# normals
vn -1 0 0
vn 1 0 0
vn 0 0 1
vn 0 0 -1
vn 0 -1 0
vn 0 1 0

# texcoords
vt 0.279297 0.5
vt 0.341797 0.5
vt 0.369141 0.5
vt 0.396484 0.5
vt 0.419922 0.5
vt 0.537109 0.5
vt 0.681641 0.5
vt 0.990234 0.5
vt 0.994141 0.5

# verts
v -0.1 0.1 0.4
v -0.1 0.1 0.3
v -0.1 0.1 0.1
v -0.1 0.1 0
v -0.1 0.1 -0.2
v -0.1 0.1 -0.3
v -0.1 0.2 0.5
v -0.1 0.2 0.4
v -0.1 0.2 0.3
v -0.1 0.2 0.2
v -0.1 0.2 -0.1
v -0.1 0.2 -0.2
v -0.1 0.2 -0.3
v -0.1 0.2 -0.4
v -0.1 0.3 0.4
v -0.1 0.3 0.3
v -0.1 0.3 0.2
v -0.1 0.3 0.1
v -0.1 0.3 0
v -0.1 0.3 -0.1
v -0.1 0.3 -0.2
v -0.1 0.3 -0.3
v -0.1 0.3 -0.4
v -0.1 0.4 0.5
v -0.1 0.4 0.4
v -0.1 0.4 0.3
v -0.1 0.4 0.2
v -0.1 0.4 0
v -0.1 0.4 -0.1
v -0.1 0.4 -0.2
v -0.1 0.4 -0.3
v -0.1 0.5 0.4
v -0.1 0.5 0.3
v -0.1 0.5 0.2
v -0.1 0.5 0.1
v -0.1 0.5 -0.2
v -0.1 0.5 -0.3
v -0.1 0.5 -0.4
v -0.1 0.6 0.4
v -0.1 0.6 0.3
v -0.1 0.6 0.2
v -0.1 0.6 -0.1
v -0.1 0.6 -0.2
v -0.1 0.6 -0.3
v -0.1 0.7 0.5
v -0.1 0.7 0.4
v -0.1 0.7 0.3
v -0.1 0.7 0.2
v -0.1 0.7 0.1
v -0.1 0.7 0
v -0.1 0.7 -0.1
v -0.1 0.7 -0.2
v -0.1 0.7 -0.3
v -0.1 0.7 -0.4
v -0.1 0.8 0.5
v -0.1 0.8 0.4
v -0.1 0.8 0.3
v -0.1 0.8 0.2
v -0.1 0.8 0.1
v -0.1 0.8 0
v -0.1 0.8 -0.1
v -0.1 0.8 -0.3
v -0.1 0.8 -0.4
v -0.1 0.9 0.4
v -0.1 0.9 0.3
v -0.1 0.9 0.2
v -0.1 0.9 -0.1
v -0.1 0.9 -0.3
v -0.1 1 0.1
v -0.1 1 0
v 0 0.1 0.4
v 0 0.1 0.3
v 0 0.1 0.1
v 0 0.1 0
v 0 0.1 -0.2
v 0 0.1 -0.3
v 0 0.2 0.5
v 0 0.2 0.4
v 0 0.2 0.3
v 0 0.2 0.2
v 0 0.2 -0.1
v 0 0.2 -0.2
v 0 0.2 -0.3
v 0 0.2 -0.4
v 0 0.3 0.4
v 0 0.3 0.3
v 0 0.3 0.2
v 0 0.3 0.1
v 0 0.3 0
v 0 0.3 -0.1
v 0 0.3 -0.2
v 0 0.3 -0.3
v 0 0.3 -0.4
v 0 0.4 0.5
v 0 0.4 0.4
v 0 0.4 0.3
v 0 0.4 0.2
v 0 0.4 0
v 0 0.4 -0.1
v 0 0.4 -0.2
v 0 0.4 -0.3
v 0 0.5 0.4
v 0 0.5 0.3
v 0 0.5 0.2
v 0 0.5 0.1
v 0 0.5 -0.2
v 0 0.5 -0.3
v 0 0.5 -0.4
v 0 0.6 0.4
v 0 0.6 0.3
v 0 0.6 0.2
v 0 0.6 -0.1
v 0 0.6 -0.2
v 0 0.6 -0.3
v 0 0.7 0.5
v 0 0.7 0.4
v 0 0.7 0.3
v 0 0.7 0.2
v 0 0.7 0.1
v 0 0.7 0
v 0 0.7 -0.1
v 0 0.7 -0.2
v 0 0.7 -0.3
v 0 0.7 -0.4
v 0 0.8 0.5
v 0 0.8 0.4
v 0 0.8 0.3
v 0 0.8 0.2
v 0 0.8 0.1
v 0 0.8 0
v 0 0.8 -0.1
v 0 0.8 -0.3
v 0 0.8 -0.4
v 0 0.9 0.4
v 0 0.9 0.3
v 0 0.9 0.2
v 0 0.9 -0.1
v 0 0.9 -0.3
v 0 1 0.1
v 0 1 0
v -0.1 0.2 0.5
v -0.1 0.4 0.5
v -0.1 0.7 0.5
v -0.1 0.8 0.5
v 0 0.2 0.5
v 0 0.4 0.5
v 0 0.7 0.5
v 0 0.8 0.5
v -0.1 0.1 0.4
v -0.1 0.2 0.4
v -0.1 0.8 0.4
v -0.1 0.9 0.4
v 0 0.1 0.4
v 0 0.2 0.4
v 0 0.8 0.4
v 0 0.9 0.4
v -0.1 0.1 0.1
v -0.1 0.3 0.1
v -0.1 0.8 0.1
v -0.1 1 0.1
v 0 0.1 0.1
v 0 0.3 0.1
v 0 0.8 0.1
v 0 1 0.1
v -0.1 0.2 -0.1
v -0.1 0.3 -0.1
v -0.1 0.8 -0.1
v -0.1 0.9 -0.1
v 0 0.2 -0.1
v 0 0.3 -0.1
v 0 0.8 -0.1
v 0 0.9 -0.1
v -0.1 0.1 -0.2
v -0.1 0.2 -0.2
v 0 0.1 -0.2
v 0 0.2 -0.2
v -0.1 0.1 0.3
v -0.1 0.2 0.3
v 0 0.1 0.3
v 0 0.2 0.3
v -0.1 0.2 0.2
v -0.1 0.3 0.2
v -0.1 0.8 0.2
v -0.1 0.9 0.2
v 0 0.2 0.2
v 0 0.3 0.2
v 0 0.8 0.2
v 0 0.9 0.2
v -0.1 0.1 0
v -0.1 0.3 0
v -0.1 0.8 0
v -0.1 1 0
v 0 0.1 0
v 0 0.3 0
v 0 0.8 0
v 0 1 0
v -0.1 0.1 -0.3
v -0.1 0.2 -0.3
v -0.1 0.8 -0.3
v -0.1 0.9 -0.3
v 0 0.1 -0.3
v 0 0.2 -0.3
v 0 0.8 -0.3
v 0 0.9 -0.3
v -0.1 0.2 -0.4
v -0.1 0.3 -0.4
v -0.1 0.5 -0.4
v -0.1 0.7 -0.4
v -0.1 0.8 -0.4
v 0 0.2 -0.4
v 0 0.3 -0.4
v 0 0.5 -0.4
v 0 0.7 -0.4
v 0 0.8 -0.4
v -0.1 0.1 0.4
v 0 0.1 0.4
v -0.1 0.1 0.3
v 0 0.1 0.3
v -0.1 0.1 0.1
v 0 0.1 0.1
v -0.1 0.1 0
v 0 0.1 0
v -0.1 0.1 -0.2
v 0 0.1 -0.2
v -0.1 0.1 -0.3
v 0 0.1 -0.3
v -0.1 0.2 0.5
v 0 0.2 0.5
v -0.1 0.2 0.4
v 0 0.2 0.4
v -0.1 0.2 0.3
v 0 0.2 0.3
v -0.1 0.2 0.2
v 0 0.2 0.2
v -0.1 0.2 -0.1
v 0 0.2 -0.1
v -0.1 0.2 -0.2
v 0 0.2 -0.2
v -0.1 0.2 -0.3
v 0 0.2 -0.3
v -0.1 0.2 -0.4
v 0 0.2 -0.4
v -0.1 0.3 0.2
v 0 0.3 0.2
v -0.1 0.3 0.1
v 0 0.3 0.1
v -0.1 0.3 0
v 0 0.3 0
v -0.1 0.3 -0.1
v 0 0.3 -0.1
v -0.1 0.8 0.5
v 0 0.8 0.5
v -0.1 0.8 0.4
v 0 0.8 0.4
v -0.1 0.8 0.2
v 0 0.8 0.2
v -0.1 0.8 0.1
v 0 0.8 0.1
v -0.1 0.8 0
v 0 0.8 0
v -0.1 0.8 -0.1
v 0 0.8 -0.1
v -0.1 0.8 -0.3
v 0 0.8 -0.3
v -0.1 0.8 -0.4
v 0 0.8 -0.4
v -0.1 0.9 0.4
v 0 0.9 0.4
v -0.1 0.9 0.3
v 0 0.9 0.3
v -0.1 0.9 0.2
v 0 0.9 0.2
v -0.1 0.9 -0.1
v 0 0.9 -0.1
v -0.1 0.9 -0.3
v 0 0.9 -0.3
v -0.1 1 0.1
v 0 1 0.1
v -0.1 1 0
v 0 1 0

# faces
f 8/2/1 2/2/1 1/2/1
f 9/2/1 2/2/1 8/2/1
f 12/2/1 6/2/1 5/2/1
f 13/2/1 6/2/1 12/2/1
f 15/2/1 8/2/1 7/2/1
f 15/7/1 9/7/1 8/7/1
f 16/2/1 10/2/1 9/2/1
f 16/7/1 9/7/1 15/7/1
f 17/2/1 10/2/1 16/2/1
f 18/6/1 4/6/1 3/6/1
f 19/6/1 4/6/1 18/6/1
f 20/2/1 12/2/1 11/2/1
f 21/7/1 13/7/1 12/7/1
f 21/2/1 12/2/1 20/2/1
f 22/2/1 14/2/1 13/2/1
f 22/7/1 13/7/1 21/7/1
f 23/2/1 14/2/1 22/2/1
f 24/2/1 15/2/1 7/2/1
f 24/2/1 16/2/1 15/2/1
f 25/2/1 16/2/1 24/2/1
f 26/7/1 17/7/1 16/7/1
f 26/2/1 16/2/1 25/2/1
f 27/9/1 18/9/1 17/9/1
f 27/7/1 17/7/1 26/7/1
f 28/8/1 20/8/1 19/8/1
f 28/6/1 19/6/1 18/6/1
f 29/7/1 21/7/1 20/7/1
f 29/8/1 20/8/1 28/8/1
f 30/2/1 22/2/1 21/2/1
f 30/7/1 21/7/1 29/7/1
f 31/3/1 23/3/1 22/3/1
f 31/2/1 22/2/1 30/2/1
f 32/3/1 25/3/1 24/3/1
f 32/4/1 27/4/1 26/4/1
f 32/4/1 26/4/1 25/4/1
f 33/4/1 27/4/1 32/4/1
f 34/9/1 18/9/1 27/9/1
f 34/4/1 27/4/1 33/4/1
f 35/6/1 28/6/1 18/6/1
f 35/9/1 18/9/1 34/9/1
f 36/4/1 31/4/1 30/4/1
f 36/4/1 30/4/1 29/4/1
f 37/3/1 23/3/1 31/3/1
f 37/4/1 31/4/1 36/4/1
f 38/3/1 23/3/1 37/3/1
f 39/5/1 33/5/1 32/5/1
f 39/3/1 32/3/1 24/3/1
f 40/4/1 34/4/1 33/4/1
f 40/5/1 33/5/1 39/5/1
f 41/8/1 35/8/1 34/8/1
f 41/4/1 34/4/1 40/4/1
f 42/4/1 36/4/1 29/4/1
f 42/9/1 29/9/1 28/9/1
f 43/1/1 37/1/1 36/1/1
f 43/4/1 36/4/1 42/4/1
f 44/2/1 38/2/1 37/2/1
f 44/1/1 37/1/1 43/1/1
f 45/3/1 39/3/1 24/3/1
f 46/1/1 40/1/1 39/1/1
f 46/3/1 39/3/1 45/3/1
f 46/1/1 41/1/1 40/1/1
f 47/1/1 41/1/1 46/1/1
f 48/8/1 35/8/1 41/8/1
f 48/1/1 41/1/1 47/1/1
f 49/6/1 28/6/1 35/6/1
f 49/8/1 35/8/1 48/8/1
f 50/9/1 42/9/1 28/9/1
f 50/6/1 28/6/1 49/6/1
f 51/1/1 43/1/1 42/1/1
f 51/9/1 42/9/1 50/9/1
f 52/5/1 44/5/1 43/5/1
f 52/1/1 43/1/1 51/1/1
f 53/2/1 38/2/1 44/2/1
f 53/5/1 44/5/1 52/5/1
f 54/2/1 38/2/1 53/2/1
f 55/2/1 46/2/1 45/2/1
f 56/3/1 47/3/1 46/3/1
f 56/2/1 46/2/1 55/2/1
f 57/2/1 48/2/1 47/2/1
f 57/3/1 47/3/1 56/3/1
f 58/9/1 49/9/1 48/9/1
f 58/2/1 48/2/1 57/2/1
f 59/6/1 50/6/1 49/6/1
f 59/9/1 49/9/1 58/9/1
f 60/8/1 51/8/1 50/8/1
f 60/6/1 50/6/1 59/6/1
f 61/2/1 52/2/1 51/2/1
f 61/8/1 51/8/1 60/8/1
f 61/2/1 53/2/1 52/2/1
f 62/3/1 54/3/1 53/3/1
f 62/2/1 53/2/1 61/2/1
f 63/3/1 54/3/1 62/3/1
f 64/8/1 57/8/1 56/8/1
f 65/9/1 58/9/1 57/9/1
f 65/8/1 57/8/1 64/8/1
f 66/9/1 58/9/1 65/9/1
f 67/9/1 62/9/1 61/9/1
f 68/9/1 62/9/1 67/9/1
f 69/6/1 60/6/1 59/6/1
f 70/6/1 60/6/1 69/6/1
f 71/2/2 72/2/2 78/2/2
f 78/2/2 72/2/2 79/2/2
f 75/2/2 76/2/2 82/2/2
f 82/2/2 76/2/2 83/2/2
f 77/2/2 78/2/2 85/2/2
f 78/7/2 79/7/2 85/7/2
f 79/2/2 80/2/2 86/2/2
f 85/7/2 79/7/2 86/7/2
f 86/2/2 80/2/2 87/2/2
f 73/6/2 74/6/2 88/6/2
f 88/6/2 74/6/2 89/6/2
f 81/2/2 82/2/2 90/2/2
f 82/7/2 83/7/2 91/7/2
f 90/2/2 82/2/2 91/2/2
f 83/2/2 84/2/2 92/2/2
f 91/7/2 83/7/2 92/7/2
f 92/2/2 84/2/2 93/2/2
f 77/2/2 85/2/2 94/2/2
f 85/2/2 86/2/2 94/2/2
f 94/2/2 86/2/2 95/2/2
f 86/7/2 87/7/2 96/7/2
f 95/2/2 86/2/2 96/2/2
f 87/9/2 88/9/2 97/9/2
f 96/7/2 87/7/2 97/7/2
f 89/8/2 90/8/2 98/8/2
f 88/6/2 89/6/2 98/6/2
f 90/7/2 91/7/2 99/7/2
f 98/8/2 90/8/2 99/8/2
f 91/2/2 92/2/2 100/2/2
f 99/7/2 91/7/2 100/7/2
f 92/3/2 93/3/2 101/3/2
f 100/2/2 92/2/2 101/2/2
f 94/3/2 95/3/2 102/3/2
f 96/4/2 97/4/2 102/4/2
f 95/4/2 96/4/2 102/4/2
f 102/4/2 97/4/2 103/4/2
f 97/9/2 88/9/2 104/9/2
f 103/4/2 97/4/2 104/4/2
f 88/6/2 98/6/2 105/6/2
f 104/9/2 88/9/2 105/9/2
f 100/4/2 101/4/2 106/4/2
f 99/4/2 100/4/2 106/4/2
f 101/3/2 93/3/2 107/3/2
f 106/4/2 101/4/2 107/4/2
f 107/3/2 93/3/2 108/3/2
f 102/5/2 103/5/2 109/5/2
f 94/3/2 102/3/2 109/3/2
f 103/4/2 104/4/2 110/4/2
f 109/5/2 103/5/2 110/5/2
f 104/8/2 105/8/2 111/8/2
f 110/4/2 104/4/2 111/4/2
f 99/4/2 106/4/2 112/4/2
f 98/9/2 99/9/2 112/9/2
f 106/1/2 107/1/2 113/1/2
f 112/4/2 106/4/2 113/4/2
f 107/2/2 108/2/2 114/2/2
f 113/1/2 107/1/2 114/1/2
f 94/3/2 109/3/2 115/3/2
f 109/1/2 110/1/2 116/1/2
f 115/3/2 109/3/2 116/3/2
f 110/1/2 111/1/2 116/1/2
f 116/1/2 111/1/2 117/1/2
f 111/8/2 105/8/2 118/8/2
f 117/1/2 111/1/2 118/1/2
f 105/6/2 98/6/2 119/6/2
f 118/8/2 105/8/2 119/8/2
f 98/9/2 112/9/2 120/9/2
f 119/6/2 98/6/2 120/6/2
f 112/1/2 113/1/2 121/1/2
f 120/9/2 112/9/2 121/9/2
f 113/5/2 114/5/2 122/5/2
f 121/1/2 113/1/2 122/1/2
f 114/2/2 108/2/2 123/2/2
f 122/5/2 114/5/2 123/5/2
f 123/2/2 108/2/2 124/2/2
f 115/2/2 116/2/2 125/2/2
f 116/3/2 117/3/2 126/3/2
f 125/2/2 116/2/2 126/2/2
f 117/2/2 118/2/2 127/2/2
f 126/3/2 117/3/2 127/3/2
f 118/9/2 119/9/2 128/9/2
f 127/2/2 118/2/2 128/2/2
f 119/6/2 120/6/2 129/6/2
f 128/9/2 119/9/2 129/9/2
f 120/8/2 121/8/2 130/8/2
f 129/6/2 120/6/2 130/6/2
f 121/2/2 122/2/2 131/2/2
f 130/8/2 121/8/2 131/8/2
f 122/2/2 123/2/2 131/2/2
f 123/3/2 124/3/2 132/3/2
f 131/2/2 123/2/2 132/2/2
f 132/3/2 124/3/2 133/3/2
f 126/8/2 127/8/2 134/8/2
f 127/9/2 128/9/2 135/9/2
f 134/8/2 127/8/2 135/8/2
f 135/9/2 128/9/2 136/9/2
f 131/9/2 132/9/2 137/9/2
f 137/9/2 132/9/2 138/9/2
f 129/6/2 130/6/2 139/6/2
f 139/6/2 130/6/2 140/6/2
f 145/2/3 142/2/3 141/2/3
f 146/3/3 143/3/3 142/3/3
f 146/2/3 142/2/3 145/2/3
f 147/2/3 144/2/3 143/2/3
f 147/3/3 143/3/3 146/3/3
f 148/2/3 144/2/3 147/2/3
f 153/2/3 150/2/3 149/2/3
f 154/2/3 150/2/3 153/2/3
f 155/8/3 152/8/3 151/8/3
f 156/8/3 152/8/3 155/8/3
f 161/6/3 158/6/3 157/6/3
f 162/6/3 158/6/3 161/6/3
f 163/6/3 160/6/3 159/6/3
f 164/6/3 160/6/3 163/6/3
f 169/2/3 166/2/3 165/2/3
f 170/2/3 166/2/3 169/2/3
f 171/9/3 168/9/3 167/9/3
f 172/9/3 168/9/3 171/9/3
f 175/2/3 174/2/3 173/2/3
f 176/2/3 174/2/3 175/2/3
f 177/2/4 178/2/4 179/2/4
f 179/2/4 178/2/4 180/2/4
f 181/2/4 182/2/4 185/2/4
f 185/2/4 182/2/4 186/2/4
f 183/9/4 184/9/4 187/9/4
f 187/9/4 184/9/4 188/9/4
f 189/6/4 190/6/4 193/6/4
f 193/6/4 190/6/4 194/6/4
f 191/6/4 192/6/4 195/6/4
f 195/6/4 192/6/4 196/6/4
f 197/2/4 198/2/4 201/2/4
f 201/2/4 198/2/4 202/2/4
f 199/9/4 200/9/4 203/9/4
f 203/9/4 200/9/4 204/9/4
f 205/2/4 206/2/4 210/2/4
f 206/3/4 207/3/4 211/3/4
f 210/2/4 206/2/4 211/2/4
f 207/2/4 208/2/4 212/2/4
f 211/3/4 207/3/4 212/3/4
f 208/3/4 209/3/4 213/3/4
f 212/2/4 208/2/4 213/2/4
f 213/3/4 209/3/4 214/3/4
f 217/2/5 216/2/5 215/2/5
f 218/2/5 216/2/5 217/2/5
f 221/6/5 220/6/5 219/6/5
f 222/6/5 220/6/5 221/6/5
f 225/2/5 224/2/5 223/2/5
f 226/2/5 224/2/5 225/2/5
f 229/2/5 228/2/5 227/2/5
f 230/2/5 228/2/5 229/2/5
f 233/2/5 232/2/5 231/2/5
f 234/2/5 232/2/5 233/2/5
f 237/2/5 236/2/5 235/2/5
f 238/2/5 236/2/5 237/2/5
f 241/2/5 240/2/5 239/2/5
f 242/2/5 240/2/5 241/2/5
f 245/9/5 244/9/5 243/9/5
f 246/9/5 244/9/5 245/9/5
f 249/8/5 248/8/5 247/8/5
f 250/8/5 248/8/5 249/8/5
f 251/2/6 252/2/6 253/2/6
f 253/2/6 252/2/6 254/2/6
f 255/9/6 256/9/6 257/9/6
f 257/9/6 256/9/6 258/9/6
f 259/8/6 260/8/6 261/8/6
f 261/8/6 260/8/6 262/8/6
f 263/3/6 264/3/6 265/3/6
f 265/3/6 264/3/6 266/3/6
f 267/8/6 268/8/6 269/8/6
f 269/8/6 268/8/6 270/8/6
f 269/9/6 270/9/6 271/9/6
f 271/9/6 270/9/6 272/9/6
f 273/9/6 274/9/6 275/9/6
f 275/9/6 274/9/6 276/9/6
f 277/6/6 278/6/6 279/6/6
f 279/6/6 278/6/6 280/6/6
