# MagicaVoxel @ Ephtracy

# group
o 

# material
mtllib schnegge.mtl
usemtl palette

# normals
vn -1 0 0
vn 1 0 0
vn 0 0 1
vn 0 0 -1
vn 0 -1 0
vn 0 1 0

# texcoords
vt 0.341797 0.5
vt 0.369141 0.5
vt 0.396484 0.5
vt 0.994141 0.5

# verts
v -0.1 0 0.5
v -0.1 0 -0.4
v -0.1 0.1 0.5
v -0.1 0.1 0.4
v -0.1 0.1 0.3
v -0.1 0.1 0.2
v -0.1 0.1 0
v -0.1 0.1 -0.3
v -0.1 0.1 -0.4
v -0.1 0.2 0.4
v -0.1 0.2 0.3
v -0.1 0.2 0.2
v -0.1 0.2 0.1
v -0.1 0.2 0
v -0.1 0.2 -0.1
v -0.1 0.2 -0.3
v -0.1 0.2 -0.4
v -0.1 0.3 0.4
v -0.1 0.3 0.3
v -0.1 0.3 0.2
v -0.1 0.4 0.4
v -0.1 0.4 0.3
v -0.1 0.4 0.2
v -0.1 0.4 0.1
v -0.1 0.4 0
v -0.1 0.4 -0.1
v -0.1 0.5 0.3
v -0.1 0.5 0.2
v -0.1 0.5 0.1
v -0.1 0.5 0
v 0 0 0.5
v 0 0 -0.4
v 0 0.1 0.5
v 0 0.1 0.4
v 0 0.1 0.3
v 0 0.1 0.2
v 0 0.1 0
v 0 0.1 -0.3
v 0 0.1 -0.4
v 0 0.2 0.4
v 0 0.2 0.3
v 0 0.2 0.2
v 0 0.2 0.1
v 0 0.2 0
v 0 0.2 -0.1
v 0 0.2 -0.3
v 0 0.2 -0.4
v 0 0.3 0.4
v 0 0.3 0.3
v 0 0.3 0.2
v 0 0.4 0.4
v 0 0.4 0.3
v 0 0.4 0.2
v 0 0.4 0.1
v 0 0.4 0
v 0 0.4 -0.1
v 0 0.5 0.3
v 0 0.5 0.2
v 0 0.5 0.1
v 0 0.5 0
v -0.1 0 0.5
v -0.1 0.1 0.5
v 0 0 0.5
v 0 0.1 0.5
v -0.1 0.1 0.4
v -0.1 0.2 0.4
v -0.1 0.3 0.4
v -0.1 0.4 0.4
v 0 0.1 0.4
v 0 0.2 0.4
v 0 0.3 0.4
v 0 0.4 0.4
v -0.1 0.4 0.3
v -0.1 0.5 0.3
v 0 0.4 0.3
v 0 0.5 0.3
v -0.1 0.1 -0.3
v -0.1 0.2 -0.3
v 0 0.1 -0.3
v 0 0.2 -0.3
v -0.1 0.1 0
v -0.1 0.2 0
v -0.1 0.4 0
v -0.1 0.5 0
v 0 0.1 0
v 0 0.2 0
v 0 0.4 0
v 0 0.5 0
v -0.1 0.2 -0.1
v -0.1 0.4 -0.1
v 0 0.2 -0.1
v 0 0.4 -0.1
v -0.1 0 -0.4
v -0.1 0.1 -0.4
v -0.1 0.2 -0.4
v 0 0 -0.4
v 0 0.1 -0.4
v 0 0.2 -0.4
v -0.1 0 0.5
v 0 0 0.5
v -0.1 0 -0.4
v 0 0 -0.4
v -0.1 0.2 0
v 0 0.2 0
v -0.1 0.2 -0.1
v 0 0.2 -0.1
v -0.1 0.1 0.5
v 0 0.1 0.5
v -0.1 0.1 0.4
v 0 0.1 0.4
v -0.1 0.1 0
v 0 0.1 0
v -0.1 0.1 -0.3
v 0 0.1 -0.3
v -0.1 0.2 -0.3
v 0 0.2 -0.3
v -0.1 0.2 -0.4
v 0 0.2 -0.4
v -0.1 0.4 0.4
v 0 0.4 0.4
v -0.1 0.4 0.3
v 0 0.4 0.3
v -0.1 0.4 0
v 0 0.4 0
v -0.1 0.4 -0.1
v 0 0.4 -0.1
v -0.1 0.5 0.3
v 0 0.5 0.3
v -0.1 0.5 0.2
v 0 0.5 0.2
v -0.1 0.5 0.1
v 0 0.5 0.1
v -0.1 0.5 0
v 0 0.5 0

# faces
f 3/1/1 2/1/1 1/1/1
f 4/1/1 2/1/1 3/1/1
f 5/1/1 2/1/1 4/1/1
f 6/1/1 2/1/1 5/1/1
f 7/1/1 2/1/1 6/1/1
f 8/1/1 2/1/1 7/1/1
f 9/1/1 2/1/1 8/1/1
f 10/2/1 5/2/1 4/2/1
f 11/3/1 6/3/1 5/3/1
f 11/2/1 5/2/1 10/2/1
f 12/2/1 7/2/1 6/2/1
f 12/3/1 6/3/1 11/3/1
f 13/2/1 7/2/1 12/2/1
f 14/2/1 7/2/1 13/2/1
f 16/4/1 9/4/1 8/4/1
f 17/4/1 9/4/1 16/4/1
f 18/3/1 11/3/1 10/3/1
f 19/2/1 12/2/1 11/2/1
f 19/3/1 11/3/1 18/3/1
f 19/2/1 13/2/1 12/2/1
f 20/2/1 13/2/1 19/2/1
f 21/2/1 19/2/1 18/2/1
f 22/3/1 20/3/1 19/3/1
f 22/2/1 19/2/1 21/2/1
f 23/2/1 13/2/1 20/2/1
f 23/3/1 20/3/1 22/3/1
f 24/3/1 14/3/1 13/3/1
f 24/2/1 13/2/1 23/2/1
f 25/2/1 15/2/1 14/2/1
f 25/3/1 14/3/1 24/3/1
f 26/2/1 15/2/1 25/2/1
f 27/2/1 23/2/1 22/2/1
f 28/3/1 24/3/1 23/3/1
f 28/2/1 23/2/1 27/2/1
f 29/2/1 25/2/1 24/2/1
f 29/3/1 24/3/1 28/3/1
f 30/2/1 25/2/1 29/2/1
f 31/1/2 32/1/2 33/1/2
f 33/1/2 32/1/2 34/1/2
f 34/1/2 32/1/2 35/1/2
f 35/1/2 32/1/2 36/1/2
f 36/1/2 32/1/2 37/1/2
f 37/1/2 32/1/2 38/1/2
f 38/1/2 32/1/2 39/1/2
f 34/2/2 35/2/2 40/2/2
f 35/3/2 36/3/2 41/3/2
f 40/2/2 35/2/2 41/2/2
f 36/2/2 37/2/2 42/2/2
f 41/3/2 36/3/2 42/3/2
f 42/2/2 37/2/2 43/2/2
f 43/2/2 37/2/2 44/2/2
f 38/4/2 39/4/2 46/4/2
f 46/4/2 39/4/2 47/4/2
f 40/3/2 41/3/2 48/3/2
f 41/2/2 42/2/2 49/2/2
f 48/3/2 41/3/2 49/3/2
f 42/2/2 43/2/2 49/2/2
f 49/2/2 43/2/2 50/2/2
f 48/2/2 49/2/2 51/2/2
f 49/3/2 50/3/2 52/3/2
f 51/2/2 49/2/2 52/2/2
f 50/2/2 43/2/2 53/2/2
f 52/3/2 50/3/2 53/3/2
f 43/3/2 44/3/2 54/3/2
f 53/2/2 43/2/2 54/2/2
f 44/2/2 45/2/2 55/2/2
f 54/3/2 44/3/2 55/3/2
f 55/2/2 45/2/2 56/2/2
f 52/2/2 53/2/2 57/2/2
f 53/3/2 54/3/2 58/3/2
f 57/2/2 53/2/2 58/2/2
f 54/2/2 55/2/2 59/2/2
f 58/3/2 54/3/2 59/3/2
f 59/2/2 55/2/2 60/2/2
f 63/1/3 62/1/3 61/1/3
f 64/1/3 62/1/3 63/1/3
f 69/2/3 66/2/3 65/2/3
f 70/3/3 67/3/3 66/3/3
f 70/2/3 66/2/3 69/2/3
f 71/2/3 68/2/3 67/2/3
f 71/3/3 67/3/3 70/3/3
f 72/2/3 68/2/3 71/2/3
f 75/2/3 74/2/3 73/2/3
f 76/2/3 74/2/3 75/2/3
f 79/4/3 78/4/3 77/4/3
f 80/4/3 78/4/3 79/4/3
f 81/2/4 82/2/4 85/2/4
f 85/2/4 82/2/4 86/2/4
f 83/2/4 84/2/4 87/2/4
f 87/2/4 84/2/4 88/2/4
f 89/2/4 90/2/4 91/2/4
f 91/2/4 90/2/4 92/2/4
f 93/1/4 94/1/4 96/1/4
f 94/4/4 95/4/4 97/4/4
f 96/1/4 94/1/4 97/1/4
f 97/4/4 95/4/4 98/4/4
f 101/1/5 100/1/5 99/1/5
f 102/1/5 100/1/5 101/1/5
f 105/2/5 104/2/5 103/2/5
f 106/2/5 104/2/5 105/2/5
f 107/1/6 108/1/6 109/1/6
f 109/1/6 108/1/6 110/1/6
f 111/1/6 112/1/6 113/1/6
f 113/1/6 112/1/6 114/1/6
f 115/4/6 116/4/6 117/4/6
f 117/4/6 116/4/6 118/4/6
f 119/2/6 120/2/6 121/2/6
f 121/2/6 120/2/6 122/2/6
f 123/2/6 124/2/6 125/2/6
f 125/2/6 124/2/6 126/2/6
f 127/2/6 128/2/6 129/2/6
f 129/2/6 128/2/6 130/2/6
f 129/3/6 130/3/6 131/3/6
f 131/3/6 130/3/6 132/3/6
f 131/2/6 132/2/6 133/2/6
f 133/2/6 132/2/6 134/2/6
