# MagicaVoxel @ Ephtracy

# group
o 

# material
mtllib screwdriver.mtl
usemtl palette

# normals
vn -1 0 0
vn 1 0 0
vn 0 0 1
vn 0 0 -1
vn 0 -1 0
vn 0 1 0

# texcoords
vt 0.845703 0.5
vt 0.853516 0.5
vt 0.978516 0.5
vt 0.982422 0.5

# verts
v 0.3 2 -0.1
v 0.3 2 -0.6
v 0.3 2.1 -0.1
v 0.3 2.1 -0.6
v 0.4 2 -0.6
v 0.4 2 -1
v 0.4 2 -1.1
v 0.4 2.1 -0.6
v 0.4 2.1 -1
v 0.4 2.1 -1.1
v 0.5 2 -0.6
v 0.5 2 -1
v 0.5 2 -1.1
v 0.5 2.1 -0.6
v 0.5 2.1 -1
v 0.5 2.1 -1.1
v 0.6 2 -0.1
v 0.6 2 -0.6
v 0.6 2.1 -0.1
v 0.6 2.1 -0.6
v 0.3 2 -0.1
v 0.3 2.1 -0.1
v 0.4 2 -0.1
v 0.4 2.1 -0.1
v 0.6 2 -0.1
v 0.6 2.1 -0.1
v 0.3 2 -0.6
v 0.3 2.1 -0.6
v 0.4 2 -0.6
v 0.4 2.1 -0.6
v 0.5 2 -0.6
v 0.5 2.1 -0.6
v 0.6 2 -0.6
v 0.6 2.1 -0.6
v 0.4 2 -1.1
v 0.4 2.1 -1.1
v 0.5 2 -1.1
v 0.5 2.1 -1.1
v 0.3 2 -0.1
v 0.4 2 -0.1
v 0.6 2 -0.1
v 0.3 2 -0.6
v 0.4 2 -0.6
v 0.5 2 -0.6
v 0.6 2 -0.6
v 0.4 2 -1
v 0.5 2 -1
v 0.4 2 -1.1
v 0.5 2 -1.1
v 0.3 2.1 -0.1
v 0.4 2.1 -0.1
v 0.6 2.1 -0.1
v 0.3 2.1 -0.6
v 0.4 2.1 -0.6
v 0.5 2.1 -0.6
v 0.6 2.1 -0.6
v 0.4 2.1 -1
v 0.5 2.1 -1
v 0.4 2.1 -1.1
v 0.5 2.1 -1.1

# faces
f 3/2/1 2/2/1 1/2/1
f 4/2/1 2/2/1 3/2/1
f 8/3/1 6/3/1 5/3/1
f 9/4/1 7/4/1 6/4/1
f 9/3/1 6/3/1 8/3/1
f 10/4/1 7/4/1 9/4/1
f 11/3/2 12/3/2 14/3/2
f 12/4/2 13/4/2 15/4/2
f 14/3/2 12/3/2 15/3/2
f 15/4/2 13/4/2 16/4/2
f 17/1/2 18/1/2 19/1/2
f 19/1/2 18/1/2 20/1/2
f 23/2/3 22/2/3 21/2/3
f 24/2/3 22/2/3 23/2/3
f 25/1/3 24/1/3 23/1/3
f 26/1/3 24/1/3 25/1/3
f 27/2/4 28/2/4 29/2/4
f 29/2/4 28/2/4 30/2/4
f 31/1/4 32/1/4 33/1/4
f 33/1/4 32/1/4 34/1/4
f 35/4/4 36/4/4 37/4/4
f 37/4/4 36/4/4 38/4/4
f 42/2/5 40/2/5 39/2/5
f 43/1/5 41/1/5 40/1/5
f 43/2/5 40/2/5 42/2/5
f 44/1/5 41/1/5 43/1/5
f 45/1/5 41/1/5 44/1/5
f 46/3/5 44/3/5 43/3/5
f 47/3/5 44/3/5 46/3/5
f 48/4/5 47/4/5 46/4/5
f 49/4/5 47/4/5 48/4/5
f 50/2/6 51/2/6 53/2/6
f 51/1/6 52/1/6 54/1/6
f 53/2/6 51/2/6 54/2/6
f 54/1/6 52/1/6 55/1/6
f 55/1/6 52/1/6 56/1/6
f 54/3/6 55/3/6 57/3/6
f 57/3/6 55/3/6 58/3/6
f 57/4/6 58/4/6 59/4/6
f 59/4/6 58/4/6 60/4/6
