# MagicaVoxel @ Ephtracy

# group
o 

# material
mtllib Whitestar.mtl
usemtl palette

# normals
vn -1 0 0
vn 1 0 0
vn 0 0 1
vn 0 0 -1
vn 0 -1 0
vn 0 1 0

# texcoords
vt 0.958984 0.5
vt 0.970703 0.5

# verts
v -0.2 0.3 0.1
v -0.2 0.3 0
v -0.2 0.4 0.1
v -0.2 0.4 0
v -0.2 0.4 -0.1
v -0.2 0.5 0
v -0.2 0.5 -0.1
v -0.1 0 0
v -0.1 0 -0.1
v -0.1 0.1 0.1
v -0.1 0.1 0
v -0.1 0.1 -0.1
v -0.1 0.2 0.2
v -0.1 0.2 0.1
v -0.1 0.2 -0.1
v -0.1 0.2 -0.2
v -0.1 0.3 0.4
v -0.1 0.3 0.3
v -0.1 0.3 0.2
v -0.1 0.3 0.1
v -0.1 0.3 0
v -0.1 0.3 -0.1
v -0.1 0.3 -0.2
v -0.1 0.3 -0.3
v -0.1 0.4 0.4
v -0.1 0.4 0.3
v -0.1 0.4 0.1
v -0.1 0.4 0
v -0.1 0.4 -0.1
v -0.1 0.4 -0.3
v -0.1 0.4 -0.4
v -0.1 0.5 0.3
v -0.1 0.5 0.2
v -0.1 0.5 0.1
v -0.1 0.5 0
v -0.1 0.5 -0.1
v -0.1 0.5 -0.2
v -0.1 0.5 -0.3
v -0.1 0.5 -0.4
v -0.1 0.6 0.2
v -0.1 0.6 0.1
v -0.1 0.6 -0.1
v -0.1 0.6 -0.2
v -0.1 0.7 0.1
v -0.1 0.7 0
v -0.1 0.7 -0.1
v -0.1 0.8 0.1
v -0.1 0.8 0
v 0 0 0
v 0 0 -0.1
v 0 0.1 0.1
v 0 0.1 0
v 0 0.1 -0.1
v 0 0.2 0.2
v 0 0.2 0.1
v 0 0.2 -0.1
v 0 0.2 -0.2
v 0 0.3 0.4
v 0 0.3 0.3
v 0 0.3 0.2
v 0 0.3 0.1
v 0 0.3 0
v 0 0.3 -0.1
v 0 0.3 -0.2
v 0 0.3 -0.3
v 0 0.4 0.4
v 0 0.4 0.3
v 0 0.4 0.1
v 0 0.4 0
v 0 0.4 -0.1
v 0 0.4 -0.3
v 0 0.4 -0.4
v 0 0.5 0.3
v 0 0.5 0.2
v 0 0.5 0.1
v 0 0.5 0
v 0 0.5 -0.1
v 0 0.5 -0.2
v 0 0.5 -0.3
v 0 0.5 -0.4
v 0 0.6 0.2
v 0 0.6 0.1
v 0 0.6 -0.1
v 0 0.6 -0.2
v 0 0.7 0.1
v 0 0.7 0
v 0 0.7 -0.1
v 0 0.8 0.1
v 0 0.8 0
v 0.1 0.3 0
v 0.1 0.3 -0.1
v 0.1 0.4 0.1
v 0.1 0.4 0
v 0.1 0.4 -0.1
v 0.1 0.5 0.1
v 0.1 0.5 0
v -0.1 0.3 0.4
v -0.1 0.4 0.4
v 0 0.3 0.4
v 0 0.4 0.4
v -0.1 0.4 0.3
v -0.1 0.5 0.3
v 0 0.4 0.3
v 0 0.5 0.3
v -0.1 0.2 0.2
v -0.1 0.3 0.2
v -0.1 0.5 0.2
v -0.1 0.6 0.2
v 0 0.2 0.2
v 0 0.3 0.2
v 0 0.5 0.2
v 0 0.6 0.2
v -0.2 0.3 0.1
v -0.2 0.4 0.1
v -0.1 0.1 0.1
v -0.1 0.2 0.1
v -0.1 0.3 0.1
v -0.1 0.4 0.1
v -0.1 0.6 0.1
v -0.1 0.7 0.1
v -0.1 0.8 0.1
v 0 0.1 0.1
v 0 0.2 0.1
v 0 0.4 0.1
v 0 0.5 0.1
v 0 0.6 0.1
v 0 0.7 0.1
v 0 0.8 0.1
v 0.1 0.4 0.1
v 0.1 0.5 0.1
v -0.2 0.4 0
v -0.2 0.5 0
v -0.1 0 0
v -0.1 0.1 0
v -0.1 0.4 0
v -0.1 0.5 0
v 0 0 0
v 0 0.1 0
v 0 0.3 0
v 0 0.4 0
v 0.1 0.3 0
v 0.1 0.4 0
v -0.2 0.3 0
v -0.2 0.4 0
v -0.1 0.3 0
v -0.1 0.4 0
v -0.1 0.7 0
v -0.1 0.8 0
v 0 0.4 0
v 0 0.5 0
v 0 0.7 0
v 0 0.8 0
v 0.1 0.4 0
v 0.1 0.5 0
v -0.2 0.4 -0.1
v -0.2 0.5 -0.1
v -0.1 0 -0.1
v -0.1 0.1 -0.1
v -0.1 0.2 -0.1
v -0.1 0.4 -0.1
v -0.1 0.5 -0.1
v -0.1 0.6 -0.1
v -0.1 0.7 -0.1
v 0 0 -0.1
v 0 0.1 -0.1
v 0 0.2 -0.1
v 0 0.3 -0.1
v 0 0.4 -0.1
v 0 0.6 -0.1
v 0 0.7 -0.1
v 0.1 0.3 -0.1
v 0.1 0.4 -0.1
v -0.1 0.2 -0.2
v -0.1 0.3 -0.2
v -0.1 0.5 -0.2
v -0.1 0.6 -0.2
v 0 0.2 -0.2
v 0 0.3 -0.2
v 0 0.5 -0.2
v 0 0.6 -0.2
v -0.1 0.3 -0.3
v -0.1 0.4 -0.3
v 0 0.3 -0.3
v 0 0.4 -0.3
v -0.1 0.4 -0.4
v -0.1 0.5 -0.4
v 0 0.4 -0.4
v 0 0.5 -0.4
v -0.1 0 0
v 0 0 0
v -0.1 0 -0.1
v 0 0 -0.1
v -0.1 0.1 0.1
v 0 0.1 0.1
v -0.1 0.1 0
v 0 0.1 0
v -0.1 0.2 0.2
v 0 0.2 0.2
v -0.1 0.2 0.1
v 0 0.2 0.1
v -0.1 0.2 -0.1
v 0 0.2 -0.1
v -0.1 0.2 -0.2
v 0 0.2 -0.2
v -0.1 0.3 0.4
v 0 0.3 0.4
v -0.1 0.3 0.3
v 0 0.3 0.3
v -0.1 0.3 0.2
v 0 0.3 0.2
v -0.2 0.3 0.1
v -0.1 0.3 0.1
v -0.2 0.3 0
v -0.1 0.3 0
v 0 0.3 0
v 0.1 0.3 0
v 0 0.3 -0.1
v 0.1 0.3 -0.1
v -0.1 0.3 -0.2
v 0 0.3 -0.2
v -0.1 0.3 -0.3
v 0 0.3 -0.3
v 0 0.4 0.1
v 0.1 0.4 0.1
v -0.2 0.4 0
v -0.1 0.4 0
v 0 0.4 0
v 0.1 0.4 0
v -0.2 0.4 -0.1
v -0.1 0.4 -0.1
v -0.1 0.4 -0.3
v 0 0.4 -0.3
v -0.1 0.4 -0.4
v 0 0.4 -0.4
v -0.1 0.4 0.4
v 0 0.4 0.4
v -0.1 0.4 0.3
v 0 0.4 0.3
v -0.2 0.4 0.1
v -0.1 0.4 0.1
v -0.2 0.4 0
v -0.1 0.4 0
v 0 0.4 0
v 0.1 0.4 0
v 0 0.4 -0.1
v 0.1 0.4 -0.1
v -0.1 0.5 0.3
v 0 0.5 0.3
v -0.1 0.5 0.2
v 0 0.5 0.2
v 0 0.5 0.1
v 0.1 0.5 0.1
v -0.2 0.5 0
v -0.1 0.5 0
v 0 0.5 0
v 0.1 0.5 0
v -0.2 0.5 -0.1
v -0.1 0.5 -0.1
v -0.1 0.5 -0.2
v 0 0.5 -0.2
v -0.1 0.5 -0.3
v 0 0.5 -0.3
v -0.1 0.5 -0.4
v 0 0.5 -0.4
v -0.1 0.6 0.2
v 0 0.6 0.2
v -0.1 0.6 0.1
v 0 0.6 0.1
v -0.1 0.6 -0.1
v 0 0.6 -0.1
v -0.1 0.6 -0.2
v 0 0.6 -0.2
v -0.1 0.7 0
v 0 0.7 0
v -0.1 0.7 -0.1
v 0 0.7 -0.1
v -0.1 0.8 0.1
v 0 0.8 0.1
v -0.1 0.8 0
v 0 0.8 0

# faces
f 3/1/1 2/1/1 1/1/1
f 4/1/1 2/1/1 3/1/1
f 6/1/1 5/1/1 4/1/1
f 7/1/1 5/1/1 6/1/1
f 11/2/1 9/2/1 8/2/1
f 12/2/1 9/2/1 11/2/1
f 14/1/1 11/1/1 10/1/1
f 14/1/1 12/1/1 11/1/1
f 15/1/1 12/1/1 14/1/1
f 19/1/1 15/1/1 14/1/1
f 19/1/1 14/1/1 13/1/1
f 19/1/1 16/1/1 15/1/1
f 20/1/1 16/1/1 19/1/1
f 21/1/1 16/1/1 20/1/1
f 22/1/1 16/1/1 21/1/1
f 23/1/1 16/1/1 22/1/1
f 25/2/1 18/2/1 17/2/1
f 26/1/1 19/1/1 18/1/1
f 26/2/1 18/2/1 25/2/1
f 26/1/1 20/1/1 19/1/1
f 27/1/1 20/1/1 26/1/1
f 28/2/1 22/2/1 21/2/1
f 29/1/1 24/1/1 23/1/1
f 29/1/1 23/1/1 22/1/1
f 29/2/1 22/2/1 28/2/1
f 30/1/1 24/1/1 29/1/1
f 32/1/1 27/1/1 26/1/1
f 33/1/1 27/1/1 32/1/1
f 34/2/1 28/2/1 27/2/1
f 34/1/1 27/1/1 33/1/1
f 35/2/1 28/2/1 34/2/1
f 36/1/1 30/1/1 29/1/1
f 37/1/1 30/1/1 36/1/1
f 38/2/1 31/2/1 30/2/1
f 38/1/1 30/1/1 37/1/1
f 39/2/1 31/2/1 38/2/1
f 40/1/1 37/1/1 36/1/1
f 40/1/1 36/1/1 35/1/1
f 40/1/1 35/1/1 34/1/1
f 40/1/1 34/1/1 33/1/1
f 41/1/1 37/1/1 40/1/1
f 42/1/1 37/1/1 41/1/1
f 43/1/1 37/1/1 42/1/1
f 44/1/1 42/1/1 41/1/1
f 45/1/1 42/1/1 44/1/1
f 46/1/1 42/1/1 45/1/1
f 47/2/1 45/2/1 44/2/1
f 48/2/1 45/2/1 47/2/1
f 49/2/2 50/2/2 52/2/2
f 52/2/2 50/2/2 53/2/2
f 51/1/2 52/1/2 55/1/2
f 52/1/2 53/1/2 55/1/2
f 55/1/2 53/1/2 56/1/2
f 55/1/2 56/1/2 60/1/2
f 54/1/2 55/1/2 60/1/2
f 56/1/2 57/1/2 60/1/2
f 60/1/2 57/1/2 61/1/2
f 61/1/2 57/1/2 62/1/2
f 62/1/2 57/1/2 63/1/2
f 63/1/2 57/1/2 64/1/2
f 58/2/2 59/2/2 66/2/2
f 59/1/2 60/1/2 67/1/2
f 66/2/2 59/2/2 67/2/2
f 60/1/2 61/1/2 67/1/2
f 61/2/2 62/2/2 68/2/2
f 67/1/2 61/1/2 68/1/2
f 68/2/2 62/2/2 69/2/2
f 64/1/2 65/1/2 70/1/2
f 63/1/2 64/1/2 70/1/2
f 70/1/2 65/1/2 71/1/2
f 67/1/2 68/1/2 73/1/2
f 73/1/2 68/1/2 74/1/2
f 74/1/2 68/1/2 75/1/2
f 69/2/2 70/2/2 76/2/2
f 70/1/2 71/1/2 77/1/2
f 76/2/2 70/2/2 77/2/2
f 77/1/2 71/1/2 78/1/2
f 71/2/2 72/2/2 79/2/2
f 78/1/2 71/1/2 79/1/2
f 79/2/2 72/2/2 80/2/2
f 77/1/2 78/1/2 81/1/2
f 75/1/2 76/1/2 81/1/2
f 76/1/2 77/1/2 81/1/2
f 74/1/2 75/1/2 81/1/2
f 81/1/2 78/1/2 82/1/2
f 82/1/2 78/1/2 83/1/2
f 83/1/2 78/1/2 84/1/2
f 82/1/2 83/1/2 85/1/2
f 85/1/2 83/1/2 86/1/2
f 86/1/2 83/1/2 87/1/2
f 85/2/2 86/2/2 88/2/2
f 88/2/2 86/2/2 89/2/2
f 90/1/2 91/1/2 93/1/2
f 93/1/2 91/1/2 94/1/2
f 92/1/2 93/1/2 95/1/2
f 95/1/2 93/1/2 96/1/2
f 99/2/3 98/2/3 97/2/3
f 100/2/3 98/2/3 99/2/3
f 103/1/3 102/1/3 101/1/3
f 104/1/3 102/1/3 103/1/3
f 109/1/3 106/1/3 105/1/3
f 110/1/3 106/1/3 109/1/3
f 111/1/3 108/1/3 107/1/3
f 112/1/3 108/1/3 111/1/3
f 117/1/3 114/1/3 113/1/3
f 118/1/3 114/1/3 117/1/3
f 122/1/3 116/1/3 115/1/3
f 123/1/3 116/1/3 122/1/3
f 126/1/3 120/1/3 119/1/3
f 127/2/3 121/2/3 120/2/3
f 127/1/3 120/1/3 126/1/3
f 128/2/3 121/2/3 127/2/3
f 129/1/3 125/1/3 124/1/3
f 130/1/3 125/1/3 129/1/3
f 135/1/3 132/1/3 131/1/3
f 136/1/3 132/1/3 135/1/3
f 137/2/3 134/2/3 133/2/3
f 138/2/3 134/2/3 137/2/3
f 141/1/3 140/1/3 139/1/3
f 142/1/3 140/1/3 141/1/3
f 143/1/4 144/1/4 145/1/4
f 145/1/4 144/1/4 146/1/4
f 147/2/4 148/2/4 151/2/4
f 151/2/4 148/2/4 152/2/4
f 149/1/4 150/1/4 153/1/4
f 153/1/4 150/1/4 154/1/4
f 155/1/4 156/1/4 160/1/4
f 160/1/4 156/1/4 161/1/4
f 157/2/4 158/2/4 164/2/4
f 158/1/4 159/1/4 165/1/4
f 164/2/4 158/2/4 165/2/4
f 165/1/4 159/1/4 166/1/4
f 162/1/4 163/1/4 169/1/4
f 169/1/4 163/1/4 170/1/4
f 167/1/4 168/1/4 171/1/4
f 171/1/4 168/1/4 172/1/4
f 173/1/4 174/1/4 177/1/4
f 177/1/4 174/1/4 178/1/4
f 175/1/4 176/1/4 179/1/4
f 179/1/4 176/1/4 180/1/4
f 181/1/4 182/1/4 183/1/4
f 183/1/4 182/1/4 184/1/4
f 185/2/4 186/2/4 187/2/4
f 187/2/4 186/2/4 188/2/4
f 191/2/5 190/2/5 189/2/5
f 192/2/5 190/2/5 191/2/5
f 195/1/5 194/1/5 193/1/5
f 196/1/5 194/1/5 195/1/5
f 199/1/5 198/1/5 197/1/5
f 200/1/5 198/1/5 199/1/5
f 203/1/5 202/1/5 201/1/5
f 204/1/5 202/1/5 203/1/5
f 207/2/5 206/2/5 205/2/5
f 208/2/5 206/2/5 207/2/5
f 209/1/5 208/1/5 207/1/5
f 210/1/5 208/1/5 209/1/5
f 213/1/5 212/1/5 211/1/5
f 214/1/5 212/1/5 213/1/5
f 217/1/5 216/1/5 215/1/5
f 218/1/5 216/1/5 217/1/5
f 221/1/5 220/1/5 219/1/5
f 222/1/5 220/1/5 221/1/5
f 227/1/5 224/1/5 223/1/5
f 228/1/5 224/1/5 227/1/5
f 229/1/5 226/1/5 225/1/5
f 230/1/5 226/1/5 229/1/5
f 233/2/5 232/2/5 231/2/5
f 234/2/5 232/2/5 233/2/5
f 235/2/6 236/2/6 237/2/6
f 237/2/6 236/2/6 238/2/6
f 239/1/6 240/1/6 241/1/6
f 241/1/6 240/1/6 242/1/6
f 243/1/6 244/1/6 245/1/6
f 245/1/6 244/1/6 246/1/6
f 247/1/6 248/1/6 249/1/6
f 249/1/6 248/1/6 250/1/6
f 251/1/6 252/1/6 255/1/6
f 255/1/6 252/1/6 256/1/6
f 253/1/6 254/1/6 257/1/6
f 257/1/6 254/1/6 258/1/6
f 259/1/6 260/1/6 261/1/6
f 261/1/6 260/1/6 262/1/6
f 261/2/6 262/2/6 263/2/6
f 263/2/6 262/2/6 264/2/6
f 265/1/6 266/1/6 267/1/6
f 267/1/6 266/1/6 268/1/6
f 269/1/6 270/1/6 271/1/6
f 271/1/6 270/1/6 272/1/6
f 273/1/6 274/1/6 275/1/6
f 275/1/6 274/1/6 276/1/6
f 277/2/6 278/2/6 279/2/6
f 279/2/6 278/2/6 280/2/6
